<?xml version="1.0" encoding="utf-8"?>
<!-- Generator: Adobe Illustrator 16.0.0, SVG Export Plug-In . SVG Version: 6.00 Build 0)  -->
<!DOCTYPE svg PUBLIC "-//W3C//DTD SVG 1.1//EN" "http://www.w3.org/Graphics/SVG/1.1/DTD/svg11.dtd">
<svg version="1.1" id="Layer_1" xmlns="http://www.w3.org/2000/svg" xmlns:xlink="http://www.w3.org/1999/xlink" x="0px" y="0px"
	 width="118.914px" height="37px" viewBox="0 0 118.914 37" enable-background="new 0 0 118.914 37" xml:space="preserve">
<g>
	<g>
		<path fill="#23262E" d="M24.203,17.811c-0.02-2.571,2.104-3.819,2.201-3.877c-1.206-1.753-3.071-1.994-3.726-2.014
			c-1.565-0.164-3.086,0.936-3.886,0.936c-0.813,0-2.04-0.918-3.367-0.891c-1.706,0.022-3.299,1.011-4.173,2.543
			c-1.805,3.127-0.46,7.717,1.271,10.249c0.866,1.231,1.874,2.615,3.2,2.564c1.292-0.051,1.777-0.821,3.338-0.821
			c1.549,0,2,0.821,3.353,0.791c1.386-0.021,2.261-1.241,3.096-2.489c1-1.416,1.402-2.813,1.42-2.89
			C26.896,21.903,24.229,20.884,24.203,17.811z"/>
		<path fill="#23262E" d="M21.653,10.259C22.353,9.388,22.827,8.203,22.695,7c-1.01,0.047-2.267,0.7-2.993,1.55
			c-0.644,0.75-1.214,1.981-1.071,3.138C19.768,11.769,20.929,11.113,21.653,10.259z"/>
	</g>
</g>
<g>
	<path fill="#23262E" d="M50.429,23.18h-1.741l-0.955-3.002h-3.315l-0.911,3.002h-1.693l3.283-10.212h2.031L50.429,23.18z
		 M47.448,18.919l-0.864-2.667c-0.091-0.272-0.264-0.912-0.515-1.922h-0.03c-0.103,0.436-0.263,1.076-0.484,1.922l-0.85,2.667
		H47.448z"/>
	<path fill="#23262E" d="M58.882,19.407c0,1.25-0.337,2.239-1.016,2.968c-0.605,0.645-1.357,0.969-2.256,0.969
		c-0.969,0-1.664-0.348-2.092-1.045h-0.031v3.881h-1.633V18.24c0-0.79-0.021-1.594-0.061-2.424h1.438l0.092,1.167h0.029
		c0.546-0.882,1.375-1.317,2.484-1.317c0.87,0,1.595,0.341,2.173,1.027C58.595,17.381,58.882,18.285,58.882,19.407z M57.217,19.469
		c0-0.717-0.162-1.309-0.482-1.777c-0.355-0.482-0.83-0.726-1.427-0.726c-0.402,0-0.772,0.137-1.1,0.404
		c-0.327,0.268-0.543,0.615-0.642,1.053c-0.052,0.204-0.078,0.367-0.078,0.496v1.228c0,0.537,0.166,0.987,0.494,1.36
		c0.33,0.367,0.756,0.552,1.282,0.552c0.614,0,1.093-0.238,1.438-0.713C57.045,20.868,57.217,20.247,57.217,19.469z"/>
	<path fill="#23262E" d="M67.354,19.407c0,1.25-0.338,2.239-1.018,2.968c-0.604,0.645-1.355,0.969-2.255,0.969
		c-0.974,0-1.668-0.348-2.093-1.045h-0.03v3.881h-1.636V18.24c0-0.79-0.02-1.594-0.062-2.424h1.44l0.091,1.167h0.031
		c0.547-0.882,1.373-1.317,2.484-1.317c0.865,0,1.592,0.341,2.176,1.027C67.061,17.381,67.354,18.285,67.354,19.407z M65.684,19.469
		c0-0.717-0.158-1.309-0.481-1.777c-0.354-0.482-0.824-0.726-1.423-0.726c-0.404,0-0.771,0.137-1.1,0.404
		c-0.328,0.267-0.541,0.615-0.642,1.053c-0.052,0.204-0.08,0.367-0.08,0.496v1.228c0,0.537,0.163,0.987,0.491,1.36
		c0.328,0.367,0.759,0.552,1.283,0.552c0.617,0,1.097-0.238,1.438-0.713C65.516,20.868,65.684,20.247,65.684,19.469z"/>
	<path fill="#23262E" d="M76.82,20.314c0,0.869-0.301,1.578-0.905,2.123c-0.668,0.595-1.595,0.896-2.782,0.896
		c-1.1,0-1.979-0.213-2.648-0.64l0.382-1.362c0.718,0.435,1.506,0.653,2.364,0.653c0.617,0,1.099-0.142,1.439-0.42
		c0.346-0.278,0.514-0.649,0.514-1.116c0-0.411-0.139-0.763-0.424-1.042c-0.279-0.285-0.752-0.553-1.408-0.792
		c-1.791-0.666-2.681-1.646-2.681-2.927c0-0.839,0.313-1.525,0.938-2.062s1.459-0.805,2.498-0.805c0.929,0,1.701,0.16,2.318,0.483
		l-0.408,1.332c-0.574-0.311-1.228-0.466-1.955-0.466c-0.573,0-1.023,0.142-1.348,0.423c-0.271,0.25-0.408,0.562-0.408,0.926
		c0,0.4,0.152,0.734,0.471,0.997c0.271,0.243,0.765,0.506,1.48,0.792c0.883,0.35,1.524,0.766,1.939,1.239
		C76.613,19.02,76.82,19.605,76.82,20.314z"/>
	<path fill="#23262E" d="M82.229,17.044h-1.804v3.573c0,0.906,0.319,1.365,0.955,1.365c0.294,0,0.537-0.025,0.728-0.078l0.045,1.242
		c-0.32,0.119-0.744,0.186-1.271,0.186c-0.645,0-1.146-0.199-1.513-0.596c-0.364-0.395-0.544-1.053-0.544-1.982v-3.711h-1.075
		v-1.229h1.075v-1.347l1.603-0.484v1.831h1.804v1.23H82.229z"/>
	<path fill="#23262E" d="M90.363,19.438c0,1.127-0.322,2.058-0.971,2.789c-0.677,0.746-1.574,1.117-2.697,1.117
		c-1.082,0-1.938-0.359-2.582-1.076c-0.641-0.717-0.963-1.621-0.963-2.707c0-1.142,0.332-2.075,0.994-2.804
		c0.657-0.728,1.551-1.089,2.67-1.089c1.08,0,1.949,0.357,2.604,1.076C90.05,17.438,90.363,18.335,90.363,19.438z M88.667,19.484
		c0-0.673-0.146-1.259-0.44-1.742c-0.342-0.591-0.83-0.88-1.47-0.88c-0.657,0-1.155,0.296-1.5,0.88
		c-0.291,0.483-0.437,1.076-0.437,1.775c0,0.681,0.146,1.266,0.437,1.75c0.354,0.584,0.853,0.877,1.488,0.877
		c0.626,0,1.114-0.299,1.468-0.896C88.516,20.756,88.667,20.167,88.667,19.484z"/>
	<path fill="#23262E" d="M95.682,17.255c-0.16-0.03-0.334-0.047-0.517-0.047c-0.574,0-1.021,0.219-1.335,0.651
		c-0.271,0.385-0.407,0.869-0.407,1.456v3.865h-1.636l0.018-5.048c0-0.847-0.021-1.621-0.062-2.315h1.422l0.062,1.408h0.047
		c0.17-0.482,0.444-0.875,0.815-1.167c0.363-0.264,0.759-0.394,1.183-0.394c0.154,0,0.289,0.009,0.41,0.029V17.255z"/>
	<path fill="#23262E" d="M102.995,19.148c0,0.295-0.019,0.539-0.06,0.74h-4.908c0.021,0.729,0.257,1.286,0.713,1.666
		c0.414,0.348,0.949,0.521,1.605,0.521c0.727,0,1.389-0.117,1.984-0.353l0.258,1.137c-0.699,0.304-1.521,0.455-2.471,0.455
		c-1.143,0-2.037-0.336-2.69-1.008c-0.647-0.671-0.975-1.572-0.975-2.705c0-1.109,0.303-2.036,0.907-2.771
		c0.637-0.786,1.494-1.184,2.574-1.184c1.062,0,1.863,0.397,2.412,1.184C102.777,17.458,102.995,18.228,102.995,19.148z
		 M101.436,18.726c0.016-0.484-0.095-0.902-0.313-1.258c-0.285-0.455-0.72-0.683-1.306-0.683c-0.537,0-0.969,0.224-1.301,0.666
		c-0.271,0.354-0.438,0.776-0.488,1.274L101.436,18.726L101.436,18.726z"/>
</g>
</svg>
