<?xml version="1.0" encoding="utf-8"?>
<!-- Generator: Adobe Illustrator 16.0.0, SVG Export Plug-In . SVG Version: 6.00 Build 0)  -->
<!DOCTYPE svg PUBLIC "-//W3C//DTD SVG 1.1//EN" "http://www.w3.org/Graphics/SVG/1.1/DTD/svg11.dtd">
<svg version="1.1" id="Layer_1" xmlns="http://www.w3.org/2000/svg" xmlns:xlink="http://www.w3.org/1999/xlink" x="0px" y="0px"
	 width="118.914px" height="37px" viewBox="0 0 118.914 37" enable-background="new 0 0 118.914 37" xml:space="preserve">
<g>
	<g>
		<path fill="#23262E" d="M11.229,27.359c0.075-0.027,0.153-0.062,0.233-0.107l10.679-5.847l-2.532-2.527L11.229,27.359
			L11.229,27.359z M22.614,21.147l-2.642-2.637l2.639-2.67l3.633,1.982c0.895,0.489,0.437,1.099,0,1.338L22.614,21.147
			L22.614,21.147z M22.14,15.583L11.462,9.758c-0.114-0.062-0.243-0.1-0.373-0.117l8.517,8.504L22.14,15.583L22.14,15.583z
			 M10.463,9.747l8.781,8.768l-8.737,8.844c-0.255-0.162-0.392-0.514-0.395-0.966c-0.005-0.871-0.075-14.662-0.08-15.697
			C10.03,10.198,10.212,9.895,10.463,9.747z"/>
	</g>
</g>
<g>
	<path fill="#23262E" d="M45.482,17.741H40.41v1.505h3.597c-0.178,2.112-1.933,3.009-3.59,3.009c-2.121,0-3.972-1.664-3.972-4.003
		c0-2.28,1.764-4.033,3.978-4.033c1.706,0,2.713,1.088,2.713,1.088l1.051-1.091c0,0-1.351-1.506-3.82-1.506
		c-3.139,0-5.572,2.65-5.572,5.516c0,2.803,2.288,5.541,5.652,5.541c2.96,0,5.127-2.024,5.127-5.027
		C45.574,18.107,45.481,17.741,45.482,17.741L45.482,17.741z"/>
	<path fill="#23262E" d="M49.815,18.048c1.024,0,1.995,0.828,1.995,2.161c0,1.307-0.965,2.155-2,2.155
		c-1.132,0-2.027-0.908-2.027-2.166C47.783,18.967,48.665,18.048,49.815,18.048L49.815,18.048L49.815,18.048z M49.796,16.649
		c-2.083,0-3.573,1.629-3.573,3.524c0,1.932,1.447,3.589,3.596,3.589c1.948,0,3.543-1.493,3.543-3.542
		C53.361,17.864,51.504,16.649,49.796,16.649L49.796,16.649z"/>
	<path fill="#23262E" d="M57.67,18.048c1.025,0,1.995,0.828,1.995,2.161c0,1.307-0.966,2.155-2,2.155
		c-1.133,0-2.027-0.908-2.027-2.166C55.638,18.967,56.52,18.048,57.67,18.048L57.67,18.048L57.67,18.048z M57.65,16.649
		c-2.083,0-3.573,1.629-3.573,3.524c0,1.932,1.447,3.589,3.597,3.589c1.948,0,3.542-1.493,3.542-3.542
		C61.216,17.864,59.36,16.649,57.65,16.649L57.65,16.649z"/>
	<path fill="#23262E" d="M65.481,18.049c0.935,0,1.901,0.798,1.901,2.166c0,1.386-0.963,2.152-1.924,2.152
		c-1.013,0-1.963-0.829-1.963-2.137C63.496,18.862,64.479,18.049,65.481,18.049L65.481,18.049L65.481,18.049z M65.344,16.654
		c-1.908,0-3.414,1.675-3.414,3.553c0,2.137,1.742,3.556,3.385,3.556c1.009,0,1.549-0.401,1.947-0.865v0.704
		c0,1.228-0.744,1.962-1.871,1.962c-1.085,0-1.628-0.809-1.816-1.268l-1.364,0.57c0.482,1.025,1.454,2.095,3.191,2.095
		c1.903,0,3.351-1.195,3.351-3.703v-6.39h-1.49v0.605C66.805,16.976,66.18,16.654,65.344,16.654L65.344,16.654z"/>
	<path fill="#23262E" d="M75.754,18.016c0.651,0,1.113,0.343,1.312,0.757l-3.177,1.33C73.746,19.073,74.723,18.016,75.754,18.016
		L75.754,18.016L75.754,18.016z M75.69,16.646c-1.8,0-3.313,1.436-3.313,3.551c0,2.238,1.682,3.565,3.485,3.565
		c1.503,0,2.425-0.822,2.979-1.56l-1.229-0.817c-0.322,0.498-0.851,0.979-1.743,0.979c-0.998,0-1.46-0.548-1.745-1.077l4.768-1.98
		l-0.246-0.577C78.186,17.594,77.111,16.646,75.69,16.646L75.69,16.646z"/>
	<rect x="69.944" y="13.076" fill="#23262E" width="1.568" height="10.473"/>
	<rect x="90.936" y="13.076" fill="#23262E" width="1.563" height="10.473"/>
	<polyline fill="#23262E" points="82.631,22.242 82.631,23.549 84.196,23.549 84.196,13.076 82.631,13.076 82.631,22.242 	"/>
	<path fill="#23262E" d="M82.631,13.076h3.79c1.833,0,3.334,1.5,3.334,3.336l0,0c0,1.836-1.503,3.335-3.334,3.335h-3.79V13.076
		L82.631,13.076z M84.196,14.64v3.546h2.226c0.968,0,1.77-0.803,1.77-1.774c0-0.972-0.802-1.773-1.77-1.773L84.196,14.64
		L84.196,14.64z"/>
	<polygon fill="#23262E" points="104.058,26.961 108.591,16.646 106.882,16.646 102.351,26.961 	"/>
	<polygon fill="#23262E" points="104.564,24.602 101.067,16.646 102.78,16.646 105.188,22.131 104.564,22.131 	"/>
	<path fill="#23262E" d="M98.905,23.549h1.568v-3.763c0.242-3.89-4.681-4.801-6.549-2l1.261,0.844
		c0.909-1.591,3.51-1.227,3.685,0.481c-0.78-0.205-1.63-0.357-2.398-0.278c-1.203,0.12-2.236,0.89-2.4,2.138
		c-0.085,0.68,0.066,1.513,0.536,2.02c0.737,0.793,1.946,0.903,2.937,0.629c0.562-0.147,0.999-0.484,1.361-0.913V23.549
		L98.905,23.549z M98.905,20.52c-0.199,0.874-0.872,1.504-1.733,1.731c-1.806,0.499-2.257-2.446,0.429-2.038
		C98.065,20.268,98.466,20.377,98.905,20.52z"/>
</g>
</svg>
