<?xml version="1.0" encoding="utf-8"?>
<!-- Generator: Adobe Illustrator 16.0.0, SVG Export Plug-In . SVG Version: 6.00 Build 0)  -->
<!DOCTYPE svg PUBLIC "-//W3C//DTD SVG 1.1//EN" "http://www.w3.org/Graphics/SVG/1.1/DTD/svg11.dtd">
<svg version="1.1" id="Layer_1" xmlns="http://www.w3.org/2000/svg" xmlns:xlink="http://www.w3.org/1999/xlink" x="0px" y="0px"
	 width="30px" height="30px" viewBox="-305.5 396.5 30.001 30" enable-background="new -305.5 396.5 30.001 30"
	 xml:space="preserve">
<path fill="#fff" d="M-275.674,401.438c0.028-0.047,0.053-0.094,0.073-0.141l0.023-0.064c0.017-0.047,0.033-0.098,0.043-0.148
	c0.015-0.059,0.023-0.119,0.03-0.18c0-0.016,0.002-0.029,0.003-0.043c0.002-0.047,0.005-0.09,0.004-0.137
	c0-0.037,0.004-0.074,0.004-0.111v-0.01c0-0.367-0.02-0.721-0.273-0.98l-2.555-2.715c-0.318-0.324-0.75-0.449-1.16-0.385
	c-0.038-0.008-0.074-0.021-0.112-0.021h-0.01c-0.37,0-0.723,0.271-0.98,0.535l-9.665,9.812l-10.024-9.957
	c-0.29-0.287-0.68-0.41-1.057-0.381c-0.02-0.002-0.038-0.012-0.056-0.012h-0.01c-0.367,0-0.72,0.291-0.978,0.541l-1.147,1.17
	l-1.433,1.41c-0.256,0.26-0.54,0.611-0.54,0.98v0.01c0,0.02,0.008,0.039,0.01,0.061c-0.032,0.379,0.092,0.77,0.383,1.059l9.98,9.994
	l-9.837,9.689c-0.258,0.258-0.537,0.609-0.537,0.98v0.01c0,0.035,0.013,0.07,0.018,0.104c-0.064,0.404,0.062,0.832,0.385,1.148
	l2.716,2.574c0.258,0.252,0.61,0.27,0.977,0.27h0.01c0.04,0,0.077-0.004,0.116-0.004c0.14,0.006,0.276-0.014,0.41-0.049
	c0.005,0,0.01-0.004,0.014-0.004c0.213-0.064,0.416-0.17,0.583-0.338l9.79-9.779l9.89,9.877c0.258,0.26,0.61,0.297,0.98,0.297h0.01
	c0.084,0,0.164-0.002,0.245-0.008c0.36,0.02,0.728-0.111,1.01-0.396l1.12-1.182l1.32-1.24c0.285-0.279,0.415-0.65,0.397-1.016
	c0.005-0.084,0.007-0.17,0.007-0.256v-0.01c0-0.371-0.046-0.725-0.308-0.982l-9.842-9.865l9.757-9.824
	c0.085-0.082,0.15-0.182,0.21-0.283H-275.674z"/>
</svg>
