<svg xmlns="http://www.w3.org/2000/svg" viewBox="-317.048 511.965 422 422">
  <path fill="#fff" d="M-106.035 511.965c-116.552 0-211.014 94.487-211.014 211 0 116.515 94.462 211 211.015 211 116.524 0 210.986-94.483 210.986-211 .002-116.513-94.46-211-210.985-211zm38.16 113.94c1.18-9.604 7.177-18.392 16.65-22.66 14.437-6.502 31.412-.072 37.92 14.36 2.575 5.703 3.09 11.798 1.93 17.486l15.057 9.376-.415 5.734s-9.12-2.652-20.827-6.22c.01.305.022.61.022.918 0 15.745-12.81 28.554-28.553 28.554-15.747 0-28.56-12.81-28.56-28.554 0-7.11 2.62-13.618 6.936-18.623-.117-.138-.175-.26-.16-.37zm73.58 33.386v35.737l-11.822 12.867v-35.91L5.705 659.29zm-153.758-8.527l26.172-28.007 85.036 81.935 25.43-27.156v35.737l-25.743 27.835-30.515-28.75-32.244 33.463-40.756-40.366 31.778-32.936-13.727-13.173-25.434 27.158v-35.737zm-17.476 18.073l11.82-12.69v35.73l-11.82 12.87v-35.91zM-272.2 749.94l40.486-39.893 18.823 18.61-21.626 21.838-37.684-.556zm129.075 4.242l-43.84 43.845-42.485-42.486 21.595-21.89 19.957 19.745 29.44-29.843 12.59-13 49.977 49.307.01.014-.008-.226 58.064 56.21-20.29 20.485-85.01-82.16zm108.763 105.01l-.082-.074-18.527-17.778 20.25-20.522.428.417 42.318-5.64-44.388 43.596z"/>
</svg>
