<?xml version="1.0" encoding="utf-8"?>
<!-- Generator: Adobe Illustrator 16.0.0, SVG Export Plug-In . SVG Version: 6.00 Build 0)  -->
<!DOCTYPE svg PUBLIC "-//W3C//DTD SVG 1.1//EN" "http://www.w3.org/Graphics/SVG/1.1/DTD/svg11.dtd">
<svg version="1.1" id="Layer_1" xmlns="http://www.w3.org/2000/svg" xmlns:xlink="http://www.w3.org/1999/xlink" x="0px" y="0px"
	 width="130.867px" height="70px" viewBox="0 0 130.867 70" enable-background="new 0 0 130.867 70" xml:space="preserve">
<g>
	<path shape-rendering="geometricPrecision" fill="#F36A21" d="M48.412,23.331c-0.674-0.574-1.47-0.861-2.387-0.861
		c-0.921,0-1.715,0.287-2.386,0.861c-0.675,0.574-1.007,1.469-1.007,2.679v18.494c0,1.215,0.332,2.105,1.004,2.679
		c0.67,0.579,1.467,0.861,2.387,0.861c0.919,0,1.712-0.282,2.385-0.861c0.67-0.573,1.006-1.464,1.006-2.679V26.009
		C49.417,24.8,49.082,23.904,48.412,23.331L48.412,23.331z"/>
	<path shape-rendering="geometricPrecision" fill="#F36A21" d="M35,0C15.665,0,0,15.675,0,35c0,19.33,15.665,35,35,35
		c19.325,0,34.993-15.67,34.993-35C69.993,15.675,54.325,0,35,0z M33.103,27.781H28.09v-1.772c0-1.209-0.337-2.104-1.007-2.678
		c-0.676-0.575-1.468-0.861-2.388-0.861c-0.916,0-1.711,0.287-2.386,0.861c-0.667,0.573-1.007,1.469-1.007,2.678v18.495
		c0,1.214,0.341,2.104,1.007,2.678c0.674,0.576,1.466,0.861,2.386,0.861c0.92,0,1.713-0.285,2.388-0.861
		c0.67-0.573,1.007-1.464,1.007-2.68v-6.588h-3.985v-4.431h8.999v11.019c0,1.441-0.243,2.695-0.731,3.766
		c-0.495,1.061-1.142,1.949-1.945,2.648c-0.803,0.709-1.706,1.242-2.706,1.6c-1.002,0.367-2.011,0.545-3.026,0.545
		s-2.023-0.178-3.024-0.545c-0.999-0.357-1.905-0.892-2.701-1.595c-0.807-0.702-1.455-1.591-1.945-2.652
		c-0.492-1.071-0.738-2.324-0.738-3.765V26.009c0-1.407,0.246-2.653,0.738-3.734c0.49-1.084,1.138-1.976,1.945-2.682
		c0.8-0.704,1.702-1.237,2.701-1.597c1-0.365,2.009-0.544,3.024-0.544c1.016,0,2.026,0.179,3.028,0.544
		c0.998,0.36,1.9,0.892,2.704,1.597c0.803,0.707,1.453,1.598,1.945,2.682c0.489,1.081,0.731,2.327,0.731,3.734V27.781L33.103,27.781
		z M54.435,44.504c0,1.44-0.246,2.693-0.738,3.765c-0.487,1.062-1.142,1.948-1.941,2.652c-0.807,0.704-1.706,1.239-2.704,1.595
		c-1.004,0.367-2.01,0.545-3.025,0.545c-1.019,0-2.022-0.178-3.023-0.545c-1.006-0.355-1.904-0.891-2.704-1.595
		c-0.807-0.702-1.452-1.586-1.944-2.652c-0.496-1.071-0.739-2.324-0.739-3.765V26.01c0-1.408,0.243-2.654,0.739-3.734
		c0.492-1.083,1.137-1.976,1.944-2.681c0.8-0.704,1.698-1.237,2.704-1.597c1-0.365,2.005-0.543,3.021-0.543
		c1.015,0,2.023,0.181,3.027,0.543c0.996,0.36,1.897,0.893,2.701,1.597c0.799,0.705,1.452,1.6,1.943,2.681
		c0.492,1.08,0.738,2.326,0.738,3.734L54.435,44.504L54.435,44.504z M75.298,25.716c0-1.408,0.246-2.657,0.738-3.737
		c0.492-1.084,1.142-1.977,1.946-2.68c0.797-0.705,1.699-1.238,2.703-1.599c0.997-0.36,2.004-0.541,3.025-0.541
		c1.014,0,2.025,0.181,3.023,0.541c0.998,0.361,1.899,0.894,2.706,1.599c0.801,0.703,1.444,1.596,1.942,2.68
		c0.492,1.083,0.736,2.331,0.736,3.737v1.769h-5.017v-1.769c0-1.21-0.334-2.104-1.011-2.679c-0.67-0.575-1.464-0.862-2.381-0.862
		c-0.915,0-1.715,0.288-2.385,0.862c-0.674,0.574-1.006,1.467-1.006,2.679v18.492c0,1.209,0.336,2.106,1.006,2.679
		c0.67,0.57,1.47,0.867,2.385,0.867c0.917,0,1.711-0.297,2.381-0.867c0.677-0.572,1.011-1.47,1.011-2.679v-6.595h-3.979v-4.424
		h8.997v11.018c0,1.443-0.243,2.693-0.736,3.761c-0.495,1.062-1.142,1.95-1.942,2.659c-0.807,0.704-1.708,1.236-2.706,1.598
		c-0.999,0.356-2.009,0.537-3.024,0.537c-1.021,0-2.022-0.18-3.021-0.537c-1.003-0.361-1.905-0.894-2.706-1.598
		c-0.804-0.709-1.454-1.593-1.942-2.659c-0.492-1.066-0.738-2.317-0.738-3.761L75.298,25.716L75.298,25.716z M96.168,17.455h14.945
		v4.72h-9.934v10.281h8.659v4.719h-8.659v10.279h9.934v5.017H96.168V17.455L96.168,17.455z M120.051,22.093h-5.807V17.37h16.623
		v4.723h-5.803v30.296h-5.012L120.051,22.093L120.051,22.093z"/>
</g>
</svg>
