<?xml version="1.0" encoding="utf-8"?>
<!-- Generator: Adobe Illustrator 16.0.0, SVG Export Plug-In . SVG Version: 6.00 Build 0)  -->
<!DOCTYPE svg PUBLIC "-//W3C//DTD SVG 1.1//EN" "http://www.w3.org/Graphics/SVG/1.1/DTD/svg11.dtd">
<svg version="1.1" id="Layer_1" xmlns="http://www.w3.org/2000/svg" xmlns:xlink="http://www.w3.org/1999/xlink" x="0px" y="0px"
	 width="790.697px" height="422.93px" viewBox="0 0 790.697 422.93" enable-background="new 0 0 790.697 422.93"
	 xml:space="preserve">
<g>
	<g>
		<path fill="#F36A21" d="M292.504,140.953c-4.074-3.466-8.87-5.188-14.425-5.188c-5.544,0-10.36,1.723-14.406,5.188
			c-4.076,3.477-6.094,8.871-6.094,16.191v111.75c0,7.324,2.018,12.725,6.094,16.189c4.046,3.467,8.862,5.186,14.406,5.186
			c5.555,0,10.352-1.719,14.425-5.186c4.043-3.465,6.074-8.865,6.074-16.189v-111.75
			C298.579,149.824,296.548,144.43,292.504,140.953z"/>
		<path fill="#F36A21" d="M211.465,0C94.663,0,0,94.695,0,211.464C0,328.236,94.663,422.93,211.465,422.93
			c116.774,0,211.438-94.693,211.438-211.465C422.903,94.695,328.239,0,211.465,0z M200.026,167.854h-30.293v-10.71
			c0-7.321-2.056-12.715-6.099-16.191c-4.079-3.466-8.862-5.188-14.423-5.188c-5.543,0-10.334,1.723-14.406,5.188
			c-4.045,3.477-6.099,8.871-6.099,16.191v111.75c0,7.324,2.053,12.725,6.099,16.189c4.072,3.467,8.863,5.186,14.406,5.186
			c5.561,0,10.345-1.719,14.423-5.186c4.043-3.465,6.099-8.865,6.099-16.189v-39.82H145.65v-26.762h54.376v66.582
			c0,8.699-1.487,16.287-4.442,22.736c-2.975,6.418-6.889,11.764-11.752,16.02c-4.843,4.266-10.29,7.486-16.339,9.658
			c-6.047,2.186-12.146,3.281-18.283,3.281c-6.124,0-12.22-1.096-18.27-3.281c-6.029-2.172-11.5-5.393-16.334-9.658
			c-4.866-4.256-8.775-9.602-11.742-16.02c-2.965-6.449-4.453-14.037-4.453-22.736v-111.75c0-8.508,1.488-16.026,4.453-22.565
			c2.967-6.537,6.876-11.936,11.742-16.19c4.833-4.26,10.305-7.475,16.334-9.66c6.049-2.191,12.146-3.278,18.27-3.278
			c6.137,0,12.236,1.087,18.283,3.278c6.049,2.185,11.496,5.399,16.339,9.66c4.863,4.254,8.777,9.654,11.752,16.19
			c2.955,6.539,4.442,14.057,4.442,22.565V167.854z M328.899,268.895c0,8.699-1.495,16.287-4.472,22.736
			c-2.952,6.418-6.891,11.764-11.729,16.02c-4.861,4.266-10.302,7.486-16.329,9.658c-6.054,2.186-12.151,3.281-18.29,3.281
			c-6.144,0-12.216-1.096-18.271-3.281c-6.049-2.172-11.49-5.393-16.329-9.658c-4.874-4.256-8.78-9.602-11.755-16.02
			c-2.982-6.449-4.447-14.037-4.447-22.736v-111.75c0-8.508,1.465-16.026,4.447-22.565c2.975-6.537,6.881-11.936,11.755-16.19
			c4.838-4.26,10.28-7.475,16.329-9.66c6.055-2.191,12.126-3.278,18.271-3.278c6.139,0,12.235,1.087,18.29,3.278
			c6.027,2.185,11.468,5.399,16.329,9.66c4.838,4.254,8.777,9.654,11.729,16.19c2.978,6.539,4.472,14.057,4.472,22.565V268.895z"/>
	</g>
	<path fill="#F36A21" d="M454.948,155.382c0-8.508,1.485-16.054,4.46-22.594c2.984-6.538,6.896-11.94,11.729-16.194
		c4.863-4.26,10.311-7.467,16.364-9.658c6.02-2.164,12.118-3.26,18.262-3.26c6.145,0,12.243,1.096,18.268,3.26
		c6.05,2.191,11.491,5.398,16.359,9.658c4.838,4.254,8.744,9.656,11.725,16.194c2.984,6.54,4.465,14.086,4.465,22.594v10.678
		h-30.316v-10.678c0-7.327-2.022-12.723-6.094-16.191c-4.051-3.469-8.869-5.22-14.406-5.22c-5.535,0-10.354,1.75-14.4,5.22
		c-4.07,3.469-6.099,8.864-6.099,16.191v111.716c0,7.326,2.028,12.732,6.099,16.191c4.047,3.469,8.865,5.213,14.4,5.213
		c5.537,0,10.355-1.744,14.406-5.213c4.071-3.459,6.094-8.865,6.094-16.191v-39.812h-24.058V200.55h54.374v66.548
		c0,8.727-1.48,16.291-4.465,22.729c-2.98,6.453-6.887,11.805-11.725,16.045c-4.868,4.281-10.31,7.484-16.359,9.67
		c-6.024,2.162-12.123,3.264-18.268,3.264c-6.144,0-12.242-1.102-18.262-3.264c-6.054-2.186-11.501-5.389-16.364-9.67
		c-4.833-4.24-8.745-9.592-11.729-16.045c-2.975-6.438-4.46-14.002-4.46-22.729V155.382z"/>
	<path fill="#F36A21" d="M581.035,105.451h90.331v28.52h-60.034v62.112h52.306v28.522h-52.306v62.107h60.034v30.295h-90.331V105.451
		z"/>
	<path fill="#F36A21" d="M725.331,133.476h-35.064V104.95h100.431v28.526h-35.07v183.04h-30.296V133.476z"/>
</g>
</svg>
