<?xml version="1.0" encoding="utf-8"?>
<!-- Generator: Adobe Illustrator 16.0.0, SVG Export Plug-In . SVG Version: 6.00 Build 0)  -->
<!DOCTYPE svg PUBLIC "-//W3C//DTD SVG 1.1//EN" "http://www.w3.org/Graphics/SVG/1.1/DTD/svg11.dtd">
<svg version="1.1" id="Layer_1" xmlns="http://www.w3.org/2000/svg" xmlns:xlink="http://www.w3.org/1999/xlink" x="0px" y="0px"
	 width="70px" height="70px" viewBox="0 0 70 70" enable-background="new 0 0 70 70" xml:space="preserve">
<g>
	<path shape-rendering="geometricPrecision" fill="#FFFFFF" d="M48.418,23.328c-0.676-0.571-1.469-0.855-2.391-0.855
		c-0.917,0-1.717,0.284-2.385,0.855c-0.674,0.578-1.012,1.472-1.012,2.68v18.496c0,1.214,0.338,2.105,1.012,2.678
		c0.668,0.576,1.468,0.861,2.385,0.861c0.921,0,1.715-0.285,2.391-0.861c0.665-0.572,1.005-1.464,1.005-2.678V26.008
		C49.423,24.8,49.083,23.906,48.418,23.328z"/>
	<path shape-rendering="geometricPrecision" fill="#FFFFFF" d="M35.001,0C15.668,0,0,15.671,0,35c0,19.33,15.668,35,35.001,35
		C54.332,70,70,54.33,70,35C70,15.671,54.332,0,35.001,0L35.001,0z M33.107,27.78h-5.014v-1.772c0-1.208-0.341-2.102-1.011-2.68
		c-0.675-0.571-1.464-0.855-2.386-0.855c-0.916,0-1.709,0.284-2.385,0.855c-0.67,0.578-1.012,1.472-1.012,2.68v18.496
		c0,1.214,0.341,2.105,1.012,2.678c0.676,0.576,1.467,0.861,2.385,0.861c0.922,0,1.713-0.285,2.386-0.861
		c0.67-0.572,1.012-1.464,1.012-2.678v-6.59h-3.986v-4.431h9.003v11.021c0,1.439-0.25,2.693-0.737,3.764
		c-0.492,1.062-1.14,1.949-1.946,2.653c-0.8,0.704-1.703,1.237-2.705,1.595c-1,0.367-2.011,0.545-3.025,0.545
		c-1.014,0-2.023-0.178-3.026-0.545c-0.996-0.357-1.902-0.891-2.702-1.595c-0.806-0.702-1.455-1.586-1.944-2.652
		c-0.489-1.071-0.735-2.324-0.735-3.765V26.008c0-1.405,0.246-2.649,0.735-3.732c0.489-1.08,1.138-1.976,1.944-2.677
		c0.8-0.71,1.706-1.237,2.702-1.603c1.003-0.36,2.013-0.543,3.026-0.543s2.025,0.184,3.025,0.543
		c1.002,0.366,1.905,0.893,2.705,1.603c0.807,0.701,1.454,1.597,1.946,2.677c0.487,1.083,0.737,2.327,0.737,3.732v1.772H33.107z
		 M54.441,44.504c0,1.44-0.247,2.693-0.74,3.765c-0.489,1.062-1.141,1.948-1.941,2.652c-0.805,0.704-1.707,1.237-2.705,1.595
		c-1,0.367-2.011,0.545-3.027,0.545c-1.018,0-2.024-0.178-3.023-0.545c-1.003-0.357-1.904-0.891-2.701-1.595
		c-0.807-0.702-1.454-1.586-1.947-2.652c-0.492-1.071-0.736-2.324-0.736-3.765V26.008c0-1.405,0.244-2.649,0.736-3.732
		c0.494-1.08,1.136-1.976,1.947-2.677c0.797-0.71,1.699-1.237,2.701-1.603c1.004-0.36,2.006-0.543,3.023-0.543
		c1.017,0,2.027,0.184,3.027,0.543c0.996,0.366,1.899,0.893,2.701,1.603c0.805,0.701,1.455,1.597,1.945,2.677
		c0.493,1.083,0.738,2.327,0.738,3.732v18.496H54.441z"/>
</g>
</svg>
