<?xml version="1.0" encoding="utf-8"?>
<!-- Generator: Adobe Illustrator 16.0.0, SVG Export Plug-In . SVG Version: 6.00 Build 0)  -->
<!DOCTYPE svg PUBLIC "-//W3C//DTD SVG 1.1//EN" "http://www.w3.org/Graphics/SVG/1.1/DTD/svg11.dtd">
<svg version="1.1" id="Layer_1" xmlns="http://www.w3.org/2000/svg" xmlns:xlink="http://www.w3.org/1999/xlink" x="0px" y="0px"
	 width="132px" height="70px" viewBox="-34 53.5 132 70" enable-background="new -34 53.5 132 70" xml:space="preserve">
<g>
	<path shape-rendering="geometricPrecision" fill="#FFFFFF" d="M42.432,79.216c0-1.407,0.246-2.657,0.738-3.737
		c0.49-1.084,1.142-1.977,1.945-2.68c0.797-0.705,1.699-1.238,2.703-1.599c0.996-0.36,2.004-0.541,3.024-0.541
		c1.015,0,2.024,0.181,3.022,0.541s1.898,0.894,2.707,1.599c0.801,0.703,1.442,1.596,1.94,2.68c0.492,1.084,0.735,2.332,0.735,3.737
		v1.769H54.23v-1.769c0-1.21-0.334-2.104-1.011-2.679c-0.67-0.575-1.464-0.862-2.381-0.862c-0.915,0-1.716,0.288-2.386,0.862
		c-0.674,0.574-1.006,1.467-1.006,2.679v18.492c0,1.209,0.336,2.106,1.006,2.679c0.67,0.57,1.471,0.867,2.386,0.867
		c0.917,0,1.711-0.297,2.381-0.867c0.677-0.572,1.011-1.47,1.011-2.679v-6.595h-3.979v-4.424h8.996v11.018
		c0,1.443-0.242,2.693-0.735,3.761c-0.495,1.062-1.142,1.95-1.942,2.659c-0.807,0.704-1.707,1.236-2.705,1.598
		c-1,0.356-2.01,0.537-3.023,0.537c-1.021,0-2.021-0.18-3.021-0.537c-1.004-0.359-1.904-0.894-2.707-1.598
		c-0.803-0.709-1.453-1.593-1.94-2.659c-0.492-1.065-0.738-2.317-0.738-3.761L42.432,79.216L42.432,79.216z M63.303,70.955h14.945
		v4.72h-9.934v10.281h8.658v4.719h-8.658v10.279h9.934v5.017H63.303V70.955L63.303,70.955z M87.186,75.593h-5.809V70.87H98v4.723
		h-5.803v30.296h-5.012V75.593L87.186,75.593z"/>
</g>
</svg>
