<svg xmlns="http://www.w3.org/2000/svg" viewBox="-360.625 408.064 335 215">
  <g fill="#fff">
    <path d="M-360.625 459.77c0-8.507 1.485-16.053 4.46-22.594 2.984-6.537 6.896-11.94 11.73-16.193 4.863-4.26 10.31-7.467 16.364-9.658 6.018-2.164 12.117-3.26 18.26-3.26 6.145 0 12.243 1.096 18.268 3.26 6.05 2.19 11.49 5.398 16.36 9.658 4.837 4.254 8.743 9.656 11.724 16.193 2.984 6.54 4.465 14.087 4.465 22.595v10.68h-30.317v-10.68c0-7.326-2.022-12.723-6.094-16.19-4.05-3.47-8.87-5.22-14.406-5.22-5.535 0-10.354 1.75-14.4 5.22-4.07 3.47-6.1 8.864-6.1 16.19v111.717c0 7.326 2.03 12.732 6.1 16.19 4.047 3.47 8.865 5.214 14.4 5.214 5.537 0 10.355-1.743 14.406-5.212 4.07-3.46 6.094-8.865 6.094-16.19v-39.813h-24.057V504.94h54.374v66.548c0 8.727-1.48 16.29-4.465 22.73-2.98 6.452-6.887 11.805-11.725 16.044-4.868 4.28-10.31 7.484-16.36 9.67-6.023 2.162-12.122 3.265-18.267 3.265-6.144 0-12.242-1.103-18.262-3.264-6.054-2.187-11.5-5.39-16.364-9.67-4.833-4.24-8.745-9.593-11.73-16.046-2.974-6.438-4.46-14.002-4.46-22.73V459.772zM-234.54 409.84h90.332v28.52h-60.034v62.112h52.306v28.522h-52.306V591.1h60.034v30.295h-90.33V409.84zM-90.243 437.864h-35.063v-28.526h100.43v28.526h-35.068v183.04H-90.24v-183.04h-.003z"/>
  </g>
</svg>
