<?xml version="1.0" encoding="utf-8"?>
<!-- Generator: Adobe Illustrator 16.0.0, SVG Export Plug-In . SVG Version: 6.00 Build 0)  -->
<!DOCTYPE svg PUBLIC "-//W3C//DTD SVG 1.1//EN" "http://www.w3.org/Graphics/SVG/1.1/DTD/svg11.dtd">
<svg version="1.1" id="Layer_1" xmlns="http://www.w3.org/2000/svg" xmlns:xlink="http://www.w3.org/1999/xlink" x="0px" y="0px"
	 width="335px" height="215px" viewBox="-360.625 408.064 335 215" enable-background="new -360.625 408.064 335 215"
	 xml:space="preserve">
<g>
	<path fill="#F36A21" d="M-360.625,459.771c0-8.508,1.485-16.054,4.46-22.595c2.984-6.537,6.896-11.939,11.729-16.193
		c4.864-4.26,10.311-7.467,16.365-9.658c6.019-2.164,12.118-3.26,18.261-3.26c6.145,0,12.243,1.096,18.268,3.26
		c6.05,2.191,11.491,5.398,16.359,9.658c4.838,4.254,8.744,9.656,11.725,16.193c2.984,6.541,4.465,14.087,4.465,22.595v10.678
		h-30.317v-10.678c0-7.327-2.022-12.724-6.094-16.19c-4.051-3.47-8.869-5.221-14.406-5.221c-5.535,0-10.354,1.75-14.4,5.221
		c-4.07,3.469-6.099,8.863-6.099,16.19v111.716c0,7.326,2.028,12.732,6.099,16.191c4.047,3.469,8.865,5.213,14.4,5.213
		c5.537,0,10.355-1.744,14.406-5.213c4.071-3.459,6.094-8.865,6.094-16.191v-39.812h-24.057v-26.735h54.374v66.548
		c0,8.727-1.48,16.291-4.465,22.729c-2.98,6.453-6.887,11.806-11.725,16.045c-4.868,4.281-10.31,7.484-16.359,9.671
		c-6.024,2.161-12.123,3.264-18.268,3.264c-6.144,0-12.242-1.103-18.262-3.264c-6.054-2.187-11.501-5.39-16.364-9.671
		c-4.833-4.239-8.745-9.592-11.729-16.045c-2.975-6.438-4.46-14.002-4.46-22.729V459.771z"/>
	<path fill="#F36A21" d="M-234.539,409.84h90.331v28.52h-60.034v62.112h52.306v28.522h-52.306v62.106h60.034v30.295h-90.331V409.84z
		"/>
	<path fill="#F36A21" d="M-90.243,437.864h-35.063v-28.526h100.431v28.526h-35.069v183.04h-30.296v-183.04H-90.243z"/>
</g>
</svg>
