<?xml version="1.0" encoding="utf-8"?>
<!-- Generator: Adobe Illustrator 16.0.0, SVG Export Plug-In . SVG Version: 6.00 Build 0)  -->
<!DOCTYPE svg PUBLIC "-//W3C//DTD SVG 1.1//EN" "http://www.w3.org/Graphics/SVG/1.1/DTD/svg11.dtd">
<svg version="1.1" id="Layer_1" xmlns="http://www.w3.org/2000/svg" xmlns:xlink="http://www.w3.org/1999/xlink" x="0px" y="0px"
	 width="70px" height="70px" viewBox="0 0 70 70" enable-background="new 0 0 70 70" xml:space="preserve">
<path shape-rendering="geometricPrecision" fill="#FFFFFF" d="M-44.498,38.5c-19.334,0-35.002,15.672-35.002,35s15.668,35,35.002,35
	c19.33,0,34.998-15.672,34.998-35S-25.168,38.5-44.498,38.5L-44.498,38.5z M-38.168,57.398c0.195-1.59,1.191-3.047,2.762-3.76
	c2.396-1.072,5.21-0.01,6.29,2.383c0.429,0.946,0.513,1.959,0.32,2.903l2.499,1.558l-0.068,0.947c0,0-1.515-0.438-3.458-1.033
	c0.002,0.052,0.005,0.105,0.005,0.158c0,2.608-2.126,4.734-4.737,4.734c-2.61,0-4.739-2.126-4.739-4.734
	c0-1.186,0.436-2.259,1.152-3.097C-38.161,57.439-38.171,57.42-38.168,57.398L-38.168,57.398z M-25.964,62.936v5.933L-27.925,71
	v-5.956L-25.964,62.936L-25.964,62.936z M-51.468,61.525l4.341-4.646l14.107,13.596l4.217-4.508v5.926l-4.27,4.619l-5.062-4.771
	l-5.346,5.55l-6.763-6.691l5.271-5.463l-2.275-2.187l-4.22,4.507L-51.468,61.525L-51.468,61.525z M-54.369,64.521l1.964-2.104v5.929
	l-1.964,2.137V64.521z M-72.059,77.975l6.714-6.613l3.123,3.087l-3.586,3.622L-72.059,77.975L-72.059,77.975z M-50.65,78.68
	l-7.272,7.271l-7.048-7.047l3.582-3.631l3.311,3.275l4.884-4.953l2.088-2.15l8.288,8.181v0.002V79.59l9.632,9.319l-3.363,3.399
	L-50.65,78.68L-50.65,78.68z M-32.609,96.1l-0.015-0.018l-3.072-2.949l3.358-3.402l0.07,0.068l7.02-0.932L-32.609,96.1L-32.609,96.1
	z"/>
</svg>
