<svg xmlns="http://www.w3.org/2000/svg" viewBox="-317.048 511.965 422 422">
  <g fill="#fff">
    <path d="M-25.168 652.608c-4.065-3.46-8.852-5.176-14.395-5.176-5.53 0-10.337 1.72-14.375 5.176-4.067 3.47-6.08 8.852-6.08 16.155v111.504c0 7.31 2.013 12.697 6.08 16.153 4.038 3.46 8.844 5.176 14.375 5.176 5.543 0 10.33-1.716 14.395-5.176 4.034-3.457 6.06-8.845 6.06-16.153V668.764c0-7.304-2.026-12.687-6.06-16.156z"/>
    <path d="M-106.035 511.965c-116.553 0-211.014 94.487-211.014 211 0 116.515 94.462 211 211.015 211 116.524 0 210.986-94.484 210.986-211 .002-116.513-94.46-211-210.985-211zM-117.45 679.45h-30.23v-10.687c0-7.305-2.05-12.687-6.084-16.155-4.07-3.46-8.843-5.176-14.392-5.176-5.53 0-10.312 1.72-14.375 5.176-4.038 3.47-6.087 8.852-6.087 16.155v111.504c0 7.31 2.048 12.697 6.086 16.153 4.063 3.46 8.843 5.176 14.374 5.176 5.55 0 10.323-1.716 14.392-5.176 4.034-3.457 6.085-8.845 6.085-16.153v-39.73h-24.03v-26.704h54.26v66.435c0 8.68-1.484 16.25-4.433 22.687-2.97 6.403-6.875 11.74-11.727 15.985-4.832 4.255-10.268 7.468-16.304 9.635-6.035 2.183-12.12 3.274-18.244 3.274-6.11 0-12.194-1.094-18.23-3.275-6.017-2.167-11.477-5.38-16.3-9.635-4.855-4.246-8.755-9.582-11.717-15.985-2.958-6.436-4.442-14.007-4.442-22.687V668.764c0-8.49 1.484-15.99 4.442-22.516 2.962-6.522 6.862-11.91 11.717-16.155 4.823-4.25 10.284-7.458 16.3-9.64 6.035-2.184 12.12-3.27 18.23-3.27 6.124 0 12.21 1.086 18.244 3.27 6.036 2.182 11.472 5.39 16.304 9.64 4.853 4.245 8.758 9.634 11.727 16.155 2.95 6.525 4.432 14.025 4.432 22.516v10.685zM11.148 780.267c0 8.68-1.492 16.25-4.463 22.688C3.74 809.358-.19 814.693-5.02 818.94c-4.85 4.255-10.28 7.468-16.292 9.635-6.042 2.183-12.126 3.274-18.252 3.274-6.13 0-12.19-1.094-18.23-3.275-6.038-2.167-11.467-5.38-16.295-9.635-4.863-4.247-8.76-9.582-11.73-15.985-2.974-6.437-4.437-14.007-4.437-22.688V668.764c0-8.49 1.463-15.99 4.438-22.515 2.97-6.523 6.867-11.91 11.73-16.155 4.83-4.25 10.258-7.46 16.295-9.64 6.042-2.186 12.1-3.27 18.23-3.27 6.126 0 12.21 1.084 18.253 3.27 6.013 2.18 11.442 5.39 16.293 9.64 4.83 4.245 8.76 9.633 11.705 16.154 2.973 6.524 4.463 14.024 4.463 22.514v111.504z"/>
  </g>
</svg>
