<svg xmlns="http://www.w3.org/2000/svg" viewBox="0 0 790.697 422.93"><g fill="#F36A21"><path d="M292.504 140.953c-4.074-3.466-8.87-5.188-14.425-5.188-5.545 0-10.36 1.723-14.407 5.188-4.076 3.477-6.094 8.87-6.094 16.19v111.75c0 7.325 2.017 12.726 6.093 16.19 4.046 3.467 8.862 5.186 14.406 5.186 5.554 0 10.35-1.72 14.424-5.187 4.043-3.465 6.074-8.865 6.074-16.19v-111.75c0-7.32-2.03-12.713-6.074-16.19z"/><path d="M211.465 0C94.663 0 0 94.695 0 211.464 0 328.236 94.663 422.93 211.465 422.93c116.774 0 211.438-94.693 211.438-211.465C422.903 94.695 328.24 0 211.465 0zm-11.44 167.854h-30.292v-10.71c0-7.32-2.056-12.715-6.1-16.19-4.078-3.467-8.86-5.19-14.422-5.19-5.542 0-10.333 1.724-14.405 5.19-4.045 3.476-6.1 8.87-6.1 16.19v111.75c0 7.324 2.054 12.725 6.1 16.19 4.072 3.466 8.863 5.185 14.406 5.185 5.562 0 10.346-1.72 14.424-5.187 4.043-3.465 6.1-8.865 6.1-16.19v-39.82H145.65v-26.76h54.376v66.58c0 8.7-1.487 16.288-4.442 22.737-2.975 6.418-6.89 11.764-11.752 16.02-4.843 4.266-10.29 7.486-16.34 9.658-6.046 2.186-12.145 3.28-18.282 3.28-6.124 0-12.22-1.095-18.27-3.28-6.03-2.172-11.5-5.393-16.334-9.658-4.866-4.256-8.775-9.602-11.742-16.02-2.965-6.45-4.453-14.037-4.453-22.736v-111.75c0-8.508 1.49-16.026 4.454-22.565 2.967-6.538 6.876-11.937 11.742-16.19 4.833-4.26 10.305-7.476 16.334-9.66 6.05-2.192 12.146-3.28 18.27-3.28 6.137 0 12.236 1.088 18.283 3.28 6.05 2.184 11.496 5.398 16.34 9.66 4.862 4.253 8.776 9.653 11.75 16.19 2.956 6.538 4.443 14.056 4.443 22.564v10.71zM328.9 268.894c0 8.7-1.496 16.288-4.473 22.737-2.952 6.42-6.89 11.765-11.73 16.02-4.86 4.267-10.3 7.487-16.328 9.66-6.055 2.185-12.152 3.28-18.29 3.28-6.145 0-12.217-1.096-18.272-3.28-6.05-2.173-11.49-5.394-16.33-9.66-4.873-4.255-8.78-9.6-11.754-16.02-2.982-6.448-4.447-14.036-4.447-22.735v-111.75c0-8.508 1.465-16.026 4.447-22.565 2.975-6.537 6.88-11.936 11.755-16.19 4.837-4.26 10.28-7.475 16.328-9.66 6.055-2.19 12.126-3.278 18.27-3.278 6.14 0 12.236 1.087 18.29 3.278 6.028 2.185 11.47 5.4 16.33 9.66 4.838 4.254 8.777 9.654 11.73 16.19 2.977 6.54 4.47 14.057 4.47 22.565v111.75zM454.948 155.382c0-8.508 1.485-16.054 4.46-22.594 2.984-6.538 6.896-11.94 11.73-16.194 4.862-4.26 10.31-7.467 16.363-9.658 6.02-2.164 12.12-3.26 18.263-3.26 6.145 0 12.243 1.096 18.268 3.26 6.05 2.19 11.492 5.398 16.36 9.658 4.838 4.254 8.744 9.656 11.725 16.194 2.984 6.54 4.465 14.086 4.465 22.594v10.678h-30.316v-10.678c0-7.327-2.022-12.723-6.094-16.19-4.05-3.47-8.87-5.22-14.406-5.22-5.535 0-10.354 1.75-14.4 5.22-4.07 3.468-6.1 8.863-6.1 16.19v111.716c0 7.326 2.03 12.732 6.1 16.19 4.047 3.47 8.865 5.214 14.4 5.214 5.537 0 10.355-1.744 14.406-5.213 4.07-3.46 6.094-8.866 6.094-16.192v-39.812h-24.058V200.55h54.374v66.548c0 8.727-1.48 16.29-4.465 22.73-2.98 6.452-6.887 11.804-11.725 16.044-4.868 4.28-10.31 7.484-16.36 9.67-6.023 2.162-12.122 3.264-18.267 3.264-6.144 0-12.242-1.102-18.262-3.264-6.053-2.186-11.5-5.39-16.363-9.67-4.833-4.24-8.745-9.592-11.73-16.045-2.974-6.438-4.46-14.002-4.46-22.73V155.383zM581.035 105.45h90.33v28.52h-60.033v62.113h52.306v28.522h-52.306v62.107h60.034v30.295h-90.33V105.45zM725.33 133.476h-35.063V104.95h100.43v28.526h-35.07v183.04h-30.295v-183.04z"/></g></svg>