<svg xmlns="http://www.w3.org/2000/svg" width="401.269" height="367.512" viewBox="0 0 401.269 367.512"><path shape-rendering="geometricPrecision" fill="#fff" d="M290.51 35.824c1.68-13.655 10.205-26.15 23.674-32.218 20.526-9.245 44.66-.103 53.915 20.417 3.66 8.108 4.392 16.774 2.743 24.86l21.408 13.332-.59 8.152s-12.967-3.77-29.612-8.843c.015.434.03.867.03 1.305 0 22.386-18.212 40.598-40.595 40.598-22.39 0-40.607-18.214-40.607-40.6 0-10.108 3.726-19.36 9.862-26.478-.167-.195-.25-.37-.228-.525zm104.617 47.47v50.81l-16.81 18.294V101.34l16.81-18.05v.003zM176.514 71.168l37.21-39.82L334.63 147.843l36.156-38.61v50.81l-36.602 39.577-43.387-40.876-45.845 47.578-57.947-57.393 45.182-46.83-19.518-18.728-36.163 38.613V71.173l.007-.004zm-24.847 25.695l16.806-18.043v50.8l-16.806 18.3V96.865zM0 212.178l57.564-56.72 26.763 26.46-30.748 31.05L0 212.175v.002zm183.52 6.03l-62.33 62.34-60.406-60.407 30.704-31.122 28.375 28.073 41.858-42.43 17.9-18.483 71.058 70.104.015.022-.01-.32 82.554 79.918-28.848 29.126L183.52 218.21zm154.64 149.304l-.116-.104-26.342-25.277 28.792-29.177.607.593 60.17-8.02-63.11 61.986z"/></svg>