<?xml version="1.0" encoding="utf-8"?>
<!-- Generator: Adobe Illustrator 16.0.0, SVG Export Plug-In . SVG Version: 6.00 Build 0)  -->
<!DOCTYPE svg PUBLIC "-//W3C//DTD SVG 1.1//EN" "http://www.w3.org/Graphics/SVG/1.1/DTD/svg11.dtd">
<svg version="1.1" id="Layer_1" xmlns="http://www.w3.org/2000/svg" xmlns:xlink="http://www.w3.org/1999/xlink" x="0px" y="0px"
	 width="70px" height="70px" viewBox="0 0 70 70" enable-background="new 0 0 70 70" xml:space="preserve">
<path d="M29.876,54.655c-0.251,0.038-0.516-0.03-0.722-0.211L15.656,43.396c-0.365-0.32-0.411-0.87-0.104-1.244l4.26-5.179
	c0.155-0.188,0.385-0.304,0.625-0.324c0.244-0.021,0.486,0.062,0.668,0.226l7.845,6.42l19.011-21.659
	c0.158-0.177,0.372-0.287,0.619-0.3c0.236-0.015,0.47,0.066,0.648,0.225l5.121,4.67c0.371,0.328,0.404,0.895,0.076,1.266
	l-24.01,26.869C30.271,54.529,30.078,54.627,29.876,54.655L29.876,54.655L29.876,54.655z M17.601,42.617l12.064,9.854l22.712-25.607
	l-3.557-3.156L29.695,45.27c-0.159,0.181-0.384,0.293-0.621,0.302c-0.238,0.015-0.473-0.069-0.65-0.229l-7.819-6.395L17.601,42.617
	L17.601,42.617L17.601,42.617z"/>
</svg>
