<?xml version="1.0" encoding="utf-8"?>
<!-- Generator: Adobe Illustrator 16.0.0, SVG Export Plug-In . SVG Version: 6.00 Build 0)  -->
<!DOCTYPE svg PUBLIC "-//W3C//DTD SVG 1.1//EN" "http://www.w3.org/Graphics/SVG/1.1/DTD/svg11.dtd">
<svg version="1.1" id="Layer_1" xmlns="http://www.w3.org/2000/svg" xmlns:xlink="http://www.w3.org/1999/xlink" x="0px" y="0px"
	 width="70px" height="70px" viewBox="0 0 70 70" enable-background="new 0 0 70 70" xml:space="preserve">
<g>
	<path fill="#23262E" d="M32.051,32.86h2.573c1.224,0,2.133-0.308,2.725-0.918c0.593-0.613,0.887-1.428,0.887-2.441
		c0-0.978-0.293-1.742-0.879-2.289c-0.586-0.546-1.392-0.82-2.414-0.82c-0.926,0-1.7,0.254-2.324,0.762
		c-0.625,0.505-0.936,1.167-0.936,1.98h-4.831c0-1.27,0.342-2.41,1.027-3.418c0.687-1.009,1.645-1.796,2.876-2.365
		c1.23-0.566,2.588-0.852,4.068-0.852c2.575,0,4.589,0.616,6.049,1.847c1.464,1.231,2.192,2.927,2.192,5.089
		c0,1.114-0.34,2.14-1.021,3.075c-0.682,0.936-1.57,1.653-2.674,2.154c1.371,0.492,2.393,1.226,3.064,2.205
		c0.678,0.982,1.015,2.143,1.015,3.479c0,2.159-0.791,3.892-2.364,5.196c-1.58,1.306-3.664,1.955-6.262,1.955
		c-2.429,0-4.414-0.641-5.957-1.919c-1.543-1.284-2.315-2.976-2.315-5.082h4.83c0,0.911,0.342,1.661,1.028,2.24
		c0.686,0.577,1.529,0.866,2.532,0.866c1.146,0,2.049-0.302,2.7-0.907c0.651-0.607,0.978-1.412,0.978-2.415
		c0-2.435-1.336-3.646-4.013-3.646h-2.556V32.86L32.051,32.86z"/>
</g>
</svg>
