<svg xmlns="http://www.w3.org/2000/svg" viewBox="172.636 -5.464 712.728 604.464"><path d="M436.088 598.824c-4.557.672-9.363-.576-13.104-3.857l-244.787-200.34c-6.61-5.785-7.44-15.763-1.88-22.554l77.25-93.9c2.815-3.44 6.984-5.504 11.35-5.917 4.425-.342 8.803 1.152 12.122 4.117L419.3 392.78 764.056 0c2.864-3.22 6.734-5.202 11.207-5.435 4.305-.257 8.534 1.208 11.77 4.068l92.853 84.663c6.72 5.965 7.348 16.235 1.384 22.97L445.865 593.534c-2.636 2.97-6.125 4.752-9.78 5.29h.002zm-222.61-218.316L432.247 559.22l411.88-464.39-64.504-57.23-346.84 391.02c-2.88 3.237-6.953 5.27-11.254 5.443-4.322.244-8.575-1.253-11.798-4.146L267.946 313.965 213.48 380.51v-.002z"/></svg>