<svg xmlns="http://www.w3.org/2000/svg" xmlns:xlink="http://www.w3.org/1999/xlink" viewBox="0 0 148.884 148.878"><defs><path id="a" d="M0 0h148.884v148.878H0z"/></defs><clipPath id="b"><use xlink:href="#a" overflow="visible"/></clipPath><path clip-path="url(#b)" fill="#020202" d="M74.442 84.793c-5.71 0-10.355-4.643-10.355-10.35 0-5.715 4.646-10.365 10.355-10.365 4.82 0 9.073 3.414 10.11 8.118.163.75.244 1.503.244 2.247 0 5.707-4.644 10.35-10.354 10.35m0-12.97c-1.436 0-2.604 1.176-2.604 2.62 0 1.433 1.17 2.6 2.604 2.6s2.603-1.167 2.603-2.6c0-.213-.02-.415-.062-.602-.253-1.144-1.346-2.016-2.54-2.016"/><path clip-path="url(#b)" fill="#020202" d="M74.442 148.878C33.395 148.878 0 115.486 0 74.443 0 33.393 33.395 0 74.442 0c34.645 0 65.215 24.518 72.688 58.3 1.164 5.266 1.753 10.698 1.753 16.143 0 41.043-33.392 74.435-74.44 74.435m0-141.13c-36.774 0-66.692 29.92-66.692 66.695 0 36.772 29.92 66.688 66.692 66.688s66.688-29.915 66.688-66.687c0-4.897-.527-9.765-1.567-14.47-6.688-30.262-34.075-52.226-65.12-52.226"/><path clip-path="url(#b)" fill="#020202" d="M70.566 7.68h7.75v13.295h-7.75zM7.68 70.563h12.972v7.75H7.682zM70.566 127.777h7.75v13.294h-7.75zM128.73 70.563h12.74v7.75h-12.74zM29.72 35.198l-9.7-9.71 5.486-5.475 9.695 9.704"/><path transform="rotate(45 27.615 121.262)" clip-path="url(#b)" fill="#020202" d="M23.736 114.412h7.752v13.714h-7.752z"/><path transform="rotate(44.984 121.276 121.274)" clip-path="url(#b)" fill="#020202" d="M114.414 117.394h13.715v7.75h-13.716z"/><path clip-path="url(#b)" fill="#020202" d="M119.162 35.2l-5.478-5.484 9.698-9.703 5.48 5.475M68.936 71.612L53.116 36.67l7.06-3.19 15.818 34.95M126.633 99.246L77.188 80.653l2.713-7.265 49.454 18.593"/><path clip-path="url(#b)" fill="#020202" d="M74.442 82.463c-4.42 0-8.025-3.592-8.025-8.02 0-4.428 3.604-8.036 8.025-8.036 3.736 0 7.032 2.645 7.836 6.29.124.573.19 1.157.19 1.746 0 4.428-3.602 8.02-8.026 8.02m0-12.968c-2.72 0-4.934 2.218-4.934 4.948 0 2.722 2.214 4.928 4.934 4.928s4.932-2.205 4.932-4.927c0-.37-.037-.737-.113-1.092-.49-2.23-2.52-3.855-4.818-3.855"/><path clip-path="url(#b)" fill="#020202" d="M74.442 146.55c-39.76 0-72.114-32.348-72.114-72.107S34.682 2.33 74.442 2.33c33.562 0 63.176 23.757 70.413 56.473 1.127 5.097 1.7 10.357 1.7 15.64 0 39.76-32.347 72.106-72.113 72.106m0-141.133c-38.06 0-69.02 30.957-69.02 69.025 0 38.062 30.96 69.02 69.02 69.02s69.02-30.957 69.02-69.02c0-5.058-.545-10.093-1.624-14.972-6.923-31.32-35.27-54.053-67.396-54.053"/><path clip-path="url(#b)" fill="#020202" d="M72.895 10.01h3.092v8.636h-3.092zM10.01 72.892h8.313v3.093H10.01zM72.895 130.106h3.092v8.636h-3.092zM131.057 72.892h8.082v3.093h-8.083z"/><path transform="rotate(45.04 27.613 27.605)" clip-path="url(#b)" fill="#020202" d="M23.08 26.06h9.064v3.09H23.08z"/><path transform="rotate(44.992 27.613 121.274)" clip-path="url(#b)" fill="#020202" d="M26.065 116.742h3.094v9.055h-3.095z"/><path transform="rotate(44.992 121.273 121.266)" clip-path="url(#b)" fill="#020202" d="M116.744 119.724h9.056v3.09h-9.056z"/><path transform="rotate(45.033 121.272 27.603)" clip-path="url(#b)" fill="#020202" d="M119.726 23.074h3.093v9.062h-3.094z"/><path clip-path="url(#b)" fill="#020202" d="M70.1 68.534L56.2 37.832l2.814-1.27L72.91 67.265M125.27 96.245L80.183 79.29l1.084-2.9 45.09 16.953"/></svg>