<svg xmlns="http://www.w3.org/2000/svg" xmlns:xlink="http://www.w3.org/1999/xlink" viewBox="0 0 116.444 155.104"><defs><path id="a" d="M0 0h116.444v155.104H0z"/></defs><clipPath id="b"><use xlink:href="#a" overflow="visible"/></clipPath><path clip-path="url(#b)" fill="#231F20" d="M26.613 60.388v-5.89c-5.87-4.917-9.8-12.27-9.8-20.61 0-14.732 12.268-27 26.977-27 14.734 0 27 12.268 27 27 0 6.37-2.468 12.743-6.396 17.155 1.964 0 3.45.504 5.414.982 3.93-5.394 5.87-11.766 5.87-18.64C75.678 15.728 61.465 1.5 43.79 1.5c-17.656 0-31.893 14.227-31.893 31.886 0 11.284 5.894 21.112 14.716 27.002"/><path clip-path="url(#b)" fill="#231F20" d="M102.678 70.184c-2.946 0-5.39.98-7.355 2.47 0-6.88-5.413-12.267-12.266-12.267-2.946 0-5.893.982-8.36 2.92-1.94-4.884-6.375-7.83-11.285-7.83-2.924 0-5.39.98-7.356 2.442V33.384c0-6.876-5.39-12.265-12.265-12.265-6.856 0-12.265 5.39-12.265 12.265v43.67C21.727 68.22 10.92 61.37 4.045 68.22c-9.806 9.82 10.804 28.97 26.49 57.904 11.29 20.125 27.006 27.48 42.698 27.48 23.07 0 41.71-18.638 41.71-41.71V82.45c0-6.877-5.39-12.266-12.265-12.266m7.354 23.07v18.64c0 19.144-16.674 36.8-36.8 36.8-18.644 0-29.443-10.302-38.26-24.532-19.14-32.39-32.89-47.106-27.477-52.495 5.384-5.41 18.638 6.374 28.935 17.156V33.385c0-3.926 3.43-7.354 7.36-7.354s7.355 3.43 7.355 7.355V84.92h4.91V67.745c0-3.936 3.452-7.36 7.356-7.36 3.93 0 7.38 3.424 7.38 7.36v12.26h4.888v-7.35c0-3.932 3.45-7.387 7.38-7.387 3.905 0 7.353 3.454 7.353 7.385V84.92h4.912v-2.47c0-3.926 3.427-7.354 7.355-7.354s7.354 3.428 7.354 7.353v10.805z"/><path clip-path="url(#b)" fill="none" stroke="#231F20" stroke-width="3" stroke-miterlimit="10" d="M26.613 60.388v-5.89c-5.87-4.917-9.8-12.27-9.8-20.61 0-14.732 12.268-27 26.977-27 14.734 0 27 12.268 27 27 0 6.37-2.468 12.743-6.396 17.155 1.964 0 3.45.504 5.414.982 3.93-5.394 5.87-11.766 5.87-18.64C75.678 15.728 61.465 1.5 43.79 1.5c-17.656 0-31.893 14.227-31.893 31.886 0 11.284 5.894 21.112 14.716 27.002z"/><path clip-path="url(#b)" fill="none" stroke="#231F20" stroke-width="3" stroke-miterlimit="10" d="M102.678 70.184c-2.946 0-5.39.98-7.355 2.47 0-6.88-5.413-12.267-12.266-12.267-2.946 0-5.893.982-8.36 2.92-1.94-4.884-6.375-7.83-11.285-7.83-2.924 0-5.39.98-7.356 2.442V33.384c0-6.876-5.39-12.265-12.265-12.265-6.856 0-12.265 5.39-12.265 12.265v43.67C21.727 68.22 10.92 61.37 4.045 68.22c-9.806 9.82 10.804 28.97 26.49 57.904 11.29 20.125 27.006 27.48 42.698 27.48 23.07 0 41.71-18.638 41.71-41.71V82.45c0-6.877-5.39-12.266-12.265-12.266zm7.354 23.07v18.64c0 19.144-16.674 36.8-36.8 36.8-18.644 0-29.443-10.302-38.26-24.532-19.14-32.39-32.89-47.106-27.477-52.495 5.384-5.41 18.638 6.374 28.935 17.156V33.385c0-3.926 3.43-7.354 7.36-7.354s7.355 3.43 7.355 7.355V84.92h4.91V67.745c0-3.936 3.452-7.36 7.356-7.36 3.93 0 7.38 3.424 7.38 7.36v12.26h4.888v-7.35c0-3.932 3.45-7.387 7.38-7.387 3.905 0 7.353 3.454 7.353 7.385V84.92h4.912v-2.47c0-3.926 3.427-7.354 7.355-7.354s7.354 3.428 7.354 7.353v10.805z"/></svg>