<?xml version="1.0" encoding="utf-8"?>
<!-- Generator: Adobe Illustrator 16.0.0, SVG Export Plug-In . SVG Version: 6.00 Build 0)  -->
<!DOCTYPE svg PUBLIC "-//W3C//DTD SVG 1.1//EN" "http://www.w3.org/Graphics/SVG/1.1/DTD/svg11.dtd">
<svg version="1.1" id="Layer_1" xmlns="http://www.w3.org/2000/svg" xmlns:xlink="http://www.w3.org/1999/xlink" x="0px" y="0px"
	 width="70px" height="70px" viewBox="-99.5 18.5 70 70" enable-background="new -99.5 18.5 70 70" xml:space="preserve">
<g>
	<g>
		<g>
			<defs>
				<rect id="SVGID_1_" x="-80.85" y="28.889" width="35.451" height="47.222"/>
			</defs>
			<clipPath id="SVGID_2_">
				<use xlink:href="#SVGID_1_"  overflow="visible"/>
			</clipPath>
			<path clip-path="url(#SVGID_2_)" fill="#231F20" d="M-72.747,47.273V45.48c-1.787-1.496-2.984-3.734-2.984-6.273
				c0-4.486,3.735-8.22,8.213-8.22c4.485,0,8.22,3.734,8.22,8.22c0,1.938-0.751,3.879-1.947,5.223c0.598,0,1.05,0.152,1.648,0.299
				c1.196-1.643,1.787-3.582,1.787-5.676c0-5.375-4.327-9.707-9.708-9.707c-5.375,0-9.71,4.332-9.71,9.707
				C-77.228,42.488-75.433,45.48-72.747,47.273"/>
		</g>
	</g>
	<g>
		<g>
			<defs>
				<rect id="SVGID_3_" x="-80.85" y="28.889" width="35.451" height="47.222"/>
			</defs>
			<clipPath id="SVGID_4_">
				<use xlink:href="#SVGID_3_"  overflow="visible"/>
			</clipPath>
			<path clip-path="url(#SVGID_4_)" fill="#231F20" d="M-49.59,50.256c-0.896,0-1.641,0.299-2.239,0.752
				c0-2.094-1.647-3.732-3.734-3.732c-0.897,0-1.794,0.299-2.545,0.889c-0.59-1.486-1.941-2.385-3.436-2.385
				c-0.89,0-1.641,0.299-2.239,0.744v-7.471c0-2.094-1.641-3.732-3.734-3.732c-2.087,0-3.734,1.641-3.734,3.732v13.295
				c-2.983-2.688-6.273-4.773-8.366-2.688c-2.985,2.988,3.289,8.818,8.064,17.627c3.437,6.127,8.222,8.367,12.999,8.367
				c7.023,0,12.699-5.674,12.699-12.699v-8.963C-45.855,51.896-47.497,50.256-49.59,50.256 M-47.351,57.279v5.676
				c0,5.828-5.076,11.203-11.203,11.203c-5.676,0-8.964-3.137-11.648-7.469c-5.827-9.861-10.013-14.342-8.365-15.982
				c1.639-1.645,5.674,1.941,8.809,5.225V39.053c0-1.193,1.044-2.238,2.241-2.238c1.196,0,2.239,1.045,2.239,2.238v15.689h1.495
				v-5.229c0-1.197,1.051-2.24,2.239-2.24c1.197,0,2.247,1.043,2.247,2.24v3.732h1.488v-2.238c0-1.195,1.05-2.25,2.247-2.25
				c1.189,0,2.238,1.053,2.238,2.25v3.734h1.496V53.99c0-1.195,1.043-2.24,2.239-2.24c1.196,0,2.239,1.045,2.239,2.24
				L-47.351,57.279L-47.351,57.279z"/>
		</g>
	</g>
	<g>
		<g>
			<defs>
				<rect id="SVGID_5_" x="-80.85" y="28.889" width="35.451" height="47.222"/>
			</defs>
			<clipPath id="SVGID_6_">
				<use xlink:href="#SVGID_5_"  overflow="visible"/>
			</clipPath>
			<path clip-path="url(#SVGID_6_)" fill="none" stroke="#231F20" stroke-width="0.2361" stroke-miterlimit="10" d="M-72.747,47.273
				V45.48c-1.787-1.496-2.984-3.734-2.984-6.273c0-4.486,3.735-8.22,8.213-8.22c4.485,0,8.22,3.734,8.22,8.22
				c0,1.938-0.751,3.879-1.947,5.223c0.598,0,1.05,0.152,1.648,0.299c1.196-1.643,1.787-3.582,1.787-5.676
				c0-5.375-4.327-9.707-9.708-9.707c-5.375,0-9.71,4.332-9.71,9.707C-77.228,42.488-75.433,45.48-72.747,47.273z"/>
		</g>
	</g>
	<g>
		<g>
			<defs>
				<rect id="SVGID_7_" x="-80.85" y="28.889" width="35.451" height="47.222"/>
			</defs>
			<clipPath id="SVGID_8_">
				<use xlink:href="#SVGID_7_"  overflow="visible"/>
			</clipPath>
			<path clip-path="url(#SVGID_8_)" fill="none" stroke="#231F20" stroke-width="0.2361" stroke-miterlimit="10" d="M-49.59,50.256
				c-0.896,0-1.641,0.299-2.239,0.752c0-2.094-1.647-3.732-3.734-3.732c-0.897,0-1.794,0.299-2.545,0.889
				c-0.59-1.486-1.941-2.385-3.436-2.385c-0.89,0-1.641,0.299-2.239,0.744v-7.471c0-2.094-1.641-3.732-3.734-3.732
				c-2.087,0-3.734,1.641-3.734,3.732v13.295c-2.983-2.688-6.273-4.773-8.366-2.688c-2.985,2.988,3.289,8.818,8.064,17.627
				c3.437,6.127,8.222,8.367,12.999,8.367c7.023,0,12.699-5.674,12.699-12.699v-8.963C-45.855,51.896-47.497,50.256-49.59,50.256z
				 M-47.351,57.279v5.676c0,5.828-5.076,11.203-11.203,11.203c-5.676,0-8.964-3.137-11.648-7.469
				c-5.827-9.861-10.013-14.342-8.365-15.982c1.639-1.645,5.674,1.941,8.809,5.225V39.053c0-1.193,1.044-2.238,2.241-2.238
				c1.196,0,2.239,1.045,2.239,2.238v15.689h1.495v-5.229c0-1.197,1.051-2.24,2.239-2.24c1.197,0,2.247,1.043,2.247,2.24v3.732
				h1.488v-2.238c0-1.195,1.05-2.25,2.247-2.25c1.189,0,2.238,1.053,2.238,2.25v3.734h1.496V53.99c0-1.195,1.043-2.24,2.239-2.24
				c1.196,0,2.239,1.045,2.239,2.24L-47.351,57.279L-47.351,57.279z"/>
		</g>
	</g>
</g>
</svg>
