<?xml version="1.0" encoding="utf-8"?>
<!-- Generator: Adobe Illustrator 16.0.0, SVG Export Plug-In . SVG Version: 6.00 Build 0)  -->
<!DOCTYPE svg PUBLIC "-//W3C//DTD SVG 1.1//EN" "http://www.w3.org/Graphics/SVG/1.1/DTD/svg11.dtd">
<svg version="1.1" id="Layer_1" xmlns="http://www.w3.org/2000/svg" xmlns:xlink="http://www.w3.org/1999/xlink" x="0px" y="0px"
	 width="70px" height="70px" viewBox="-34.5 565.5 70 70" enable-background="new -34.5 565.5 70 70" xml:space="preserve">
<path d="M-4.624,617.155c-0.251,0.038-0.516-0.03-0.722-0.211l-13.498-11.048c-0.365-0.32-0.411-0.87-0.104-1.244l4.26-5.178
	c0.155-0.189,0.385-0.304,0.625-0.325c0.244-0.021,0.486,0.063,0.668,0.226l7.845,6.42l19.011-21.659
	c0.158-0.177,0.372-0.287,0.619-0.3c0.237-0.015,0.47,0.066,0.648,0.224l5.121,4.67c0.371,0.329,0.405,0.895,0.077,1.266
	l-24.01,26.869C-4.229,617.029-4.422,617.127-4.624,617.155L-4.624,617.155L-4.624,617.155z M-16.899,605.117l12.064,9.855
	l22.712-25.608l-3.556-3.156L-4.805,607.77c-0.159,0.18-0.384,0.292-0.621,0.301c-0.238,0.015-0.473-0.069-0.65-0.229l-7.819-6.395
	L-16.899,605.117L-16.899,605.117L-16.899,605.117z"/>
</svg>
