<?xml version="1.0" encoding="utf-8"?>
<!-- Generator: Adobe Illustrator 16.0.0, SVG Export Plug-In . SVG Version: 6.00 Build 0)  -->
<!DOCTYPE svg PUBLIC "-//W3C//DTD SVG 1.1//EN" "http://www.w3.org/Graphics/SVG/1.1/DTD/svg11.dtd">
<svg version="1.1" id="Layer_1" xmlns="http://www.w3.org/2000/svg" xmlns:xlink="http://www.w3.org/1999/xlink" x="0px" y="0px"
	 width="70px" height="70px" viewBox="0 0 70 70" enable-background="new 0 0 70 70" xml:space="preserve">
<g>
	<path fill="#FFFFFF" d="M56.964,27.771c-0.497-0.292-1.039-0.083-1.353,0.354c-0.454,0.635-0.909,1.271-1.365,1.906
		c-0.76-2.918-2.148-5.617-4.119-7.957c-2.434-2.89-5.734-5.014-9.336-6.127c-7.536-2.332-15.999,0.213-21.055,6.242
		c-2.105,2.511-3.584,5.523-4.252,8.734c-0.109,0.527,0.146,1.065,0.69,1.215c0.494,0.136,1.105-0.163,1.215-0.69
		c0.753-3.624,2.531-6.842,5.176-9.398c2.631-2.543,5.982-4.181,9.64-4.782c3.566-0.587,7.477,0.033,10.719,1.641
		c3.246,1.608,5.878,4.124,7.664,7.242c0.582,1.015,0.991,1.935,1.357,2.999c0.109,0.312,0.209,0.643,0.305,0.979
		c-0.527-0.427-1.053-0.854-1.579-1.281c-0.418-0.338-0.987-0.41-1.397,0c-0.351,0.352-0.418,1.058,0,1.398
		c1.229,0.996,2.459,1.994,3.689,2.991c0.229,0.186,0.479,0.277,0.721,0.274c0.021,0.001,0.043,0.003,0.064,0.003
		c0.419,0,0.906-0.34,0.982-0.778c0.862-1.204,1.727-2.408,2.588-3.611C57.633,28.684,57.396,28.024,56.964,27.771z M53.745,38.061
		c-0.498-0.137-1.101,0.164-1.216,0.689c-0.795,3.63-2.62,6.838-5.32,9.377c-2.675,2.518-6.092,4.115-9.782,4.655
		c-3.58,0.524-7.464-0.173-10.688-1.843c-3.212-1.664-5.794-4.227-7.53-7.383c-0.65-1.183-1.153-2.438-1.517-3.752
		c0.546,0.442,1.091,0.885,1.636,1.326c0.418,0.34,0.987,0.411,1.396,0c0.352-0.352,0.419-1.057,0-1.396
		c-1.229-0.998-2.458-1.994-3.688-2.991c-0.5-0.405-1.097-0.357-1.494,0.128c-0.059,0.059-0.107,0.125-0.146,0.195
		c-0.905,1.264-1.811,2.526-2.716,3.789c-0.313,0.438-0.077,1.1,0.355,1.352c0.497,0.292,1.038,0.083,1.352-0.354l1.32-1.844
		c1.737,6.68,7.003,12.129,13.676,14.107c7.592,2.25,16.061-0.41,21.038-6.547c1.957-2.413,3.347-5.256,4.013-8.295
		C54.549,38.75,54.284,38.21,53.745,38.061z M30.921,47.337c3.705,1.199,7.905,0.58,11.142-1.563
		c3.637-2.41,5.838-6.543,5.858-10.898c-0.019-3.852-1.733-7.573-4.706-10.036c-3.066-2.542-7.104-3.521-11.003-2.761
		c-3.719,0.726-6.996,3.216-8.818,6.517c-1.883,3.41-2.123,7.649-0.622,11.244C24.264,43.408,27.24,46.146,30.921,47.337z
		 M26.037,28.135c2.063-2.777,5.549-4.399,9.05-4.349c3.486,0.049,6.858,1.878,8.838,4.7c1.343,1.912,2.009,4.101,2.021,6.389
		c-0.018,3.51-1.723,6.902-4.526,8.945c-2.97,2.166-6.725,2.697-10.182,1.544c-3.25-1.085-5.886-3.827-6.941-7.081
		C23.173,34.811,23.851,31.079,26.037,28.135z"/>
	<g>
		<path fill="#FFFFFF" d="M32.512,36.76c0.091,0,0.164,0.025,0.218,0.077c0.053,0.052,0.08,0.12,0.08,0.204v0.508h-3.403v-0.281
			c0-0.058,0.012-0.117,0.036-0.181c0.024-0.062,0.062-0.119,0.115-0.17l1.506-1.51c0.126-0.127,0.238-0.25,0.338-0.367
			c0.099-0.117,0.183-0.232,0.249-0.347c0.066-0.114,0.117-0.23,0.152-0.348c0.036-0.118,0.054-0.242,0.054-0.372
			c0-0.119-0.018-0.224-0.052-0.314c-0.034-0.09-0.083-0.167-0.146-0.229s-0.139-0.108-0.227-0.139
			c-0.088-0.031-0.187-0.046-0.297-0.046c-0.101,0-0.194,0.014-0.279,0.043c-0.085,0.028-0.162,0.068-0.228,0.12
			c-0.067,0.052-0.123,0.111-0.168,0.18c-0.046,0.068-0.08,0.144-0.103,0.226c-0.039,0.105-0.089,0.175-0.151,0.209
			s-0.15,0.042-0.268,0.024l-0.445-0.079c0.034-0.238,0.101-0.447,0.199-0.626c0.098-0.18,0.221-0.33,0.369-0.45
			s0.317-0.21,0.508-0.271s0.396-0.091,0.616-0.091c0.229,0,0.438,0.034,0.628,0.102c0.19,0.067,0.353,0.163,0.487,0.286
			c0.134,0.123,0.241,0.272,0.315,0.446c0.076,0.174,0.114,0.367,0.114,0.58c0,0.183-0.027,0.352-0.081,0.508
			c-0.054,0.156-0.125,0.304-0.216,0.446c-0.091,0.142-0.196,0.28-0.318,0.412c-0.121,0.133-0.248,0.268-0.38,0.405l-1.119,1.143
			c0.108-0.031,0.215-0.057,0.321-0.073s0.208-0.025,0.304-0.025L32.512,36.76L32.512,36.76z"/>
		<path fill="#FFFFFF" d="M36.932,35.68v0.49c0,0.046-0.015,0.085-0.045,0.119c-0.029,0.033-0.072,0.05-0.126,0.05h-0.452v1.211
			H35.57v-1.211h-2.093c-0.057,0-0.107-0.019-0.151-0.053c-0.043-0.036-0.071-0.08-0.082-0.132l-0.09-0.43l2.351-3.14h0.804v3.095
			H36.932L36.932,35.68z M35.568,35.68v-1.624c0-0.153,0.011-0.323,0.031-0.508l-1.541,2.13h1.509V35.68z"/>
		<path fill="#FFFFFF" d="M38.372,34.406c0.137-0.127,0.289-0.232,0.453-0.312c0.164-0.08,0.358-0.12,0.579-0.12
			c0.193,0,0.363,0.032,0.513,0.098c0.147,0.065,0.272,0.156,0.372,0.274c0.1,0.118,0.175,0.258,0.227,0.422
			c0.053,0.164,0.077,0.344,0.077,0.541v2.241h-0.847v-2.241c0-0.215-0.049-0.381-0.146-0.5c-0.1-0.117-0.248-0.176-0.449-0.176
			c-0.146,0-0.284,0.033-0.412,0.099c-0.129,0.066-0.249,0.157-0.364,0.271v2.546h-0.847V32.45h0.847v1.956H38.372z"/>
	</g>
</g>
</svg>
