<?xml version="1.0" encoding="utf-8"?>
<!-- Generator: Adobe Illustrator 16.0.0, SVG Export Plug-In . SVG Version: 6.00 Build 0)  -->
<!DOCTYPE svg PUBLIC "-//W3C//DTD SVG 1.1//EN" "http://www.w3.org/Graphics/SVG/1.1/DTD/svg11.dtd">
<svg version="1.1" id="Layer_1" xmlns="http://www.w3.org/2000/svg" xmlns:xlink="http://www.w3.org/1999/xlink" x="0px" y="0px"
	 width="70px" height="70px" viewBox="-528.5 300.5 70 70" enable-background="new -528.5 300.5 70 70" xml:space="preserve">
<g>
	<g>
		<g>
			<g>
				<path fill="none" d="M-489.166,344.618C-489.157,344.549-489.16,344.587-489.166,344.618L-489.166,344.618z"/>
			</g>
			<g>
				<path fill="none" d="M-473.935,349.304C-473.875,349.278-473.898,349.283-473.935,349.304L-473.935,349.304z"/>
				<g>
					<path fill="none" d="M-490.445,334.342L-490.445,334.342C-490.407,334.266-490.428,334.298-490.445,334.342z"/>
					<path fill="none" d="M-490.448,334.323C-490.422,334.188-490.445,334.259-490.448,334.323L-490.448,334.323z"/>
					<path fill="none" d="M-491.074,318.271h0.009c0.472,0,0.868,0.395,0.868,0.867s-0.396,0.867-0.868,0.867h-0.009
						c-0.473,0-0.87-0.395-0.87-0.867S-491.547,318.271-491.074,318.271z M-495.791,318.271h2.137c1.117,0,1.117,1.734,0,1.734
						h-2.137C-496.91,320.005-496.91,318.271-495.791,318.271z M-492.432,351.541h-3.778c-1.118,0-1.118-1.735,0-1.735h3.778
						C-491.313,349.806-491.313,351.541-492.432,351.541z"/>
					<path fill="none" d="M-490.412,334.323c0.013-0.012,0.002-0.003-0.014,0.017C-490.42,334.332-490.414,334.327-490.412,334.323
						L-490.412,334.323z"/>
					<path fill="none" d="M-488.936,333.835C-488.856,333.901-488.89,333.866-488.936,333.835L-488.936,333.835z"/>
					<path fill="none" d="M-489.659,346.037c0.002,0.006,0.005,0.01,0.007,0.016C-489.697,345.944-489.69,345.983-489.659,346.037z"
						/>
					<path fill="none" d="M-474.821,346.568c-0.517-2.207-1.034-4.415-1.552-6.621c-0.149-0.646-0.302-1.288-0.45-1.924
						c-0.014-0.059-0.025-0.11-0.039-0.156c0-0.01-0.002-0.019-0.002-0.022c-0.003-0.002-0.003-0.004-0.003-0.004
						c-0.014-0.023-0.024-0.044-0.038-0.066c-0.006-0.005-0.012-0.013-0.017-0.021c0,0-0.002,0-0.003-0.003
						c-0.006-0.001-0.007-0.001-0.012-0.001c-0.039-0.012-0.142-0.021-0.123-0.021c-0.042-0.002-0.079,0-0.118,0.001
						c0.026,0.001-0.21,0.042-0.203,0.039c-0.118,0.028-0.229,0.065-0.341,0.104c-0.123,0.048-0.259,0.121-0.374,0.201
						c0.011-0.005-0.047,0.054-0.081,0.086c-0.023,0.026-0.051,0.064-0.056,0.076c-0.008,0.02-0.013,0.022-0.017,0.029l0,0
						c-0.01,0.03-0.016,0.058-0.022,0.085c0.002,0.023-0.006,0.124-0.006,0.187c0.098,0.241,0.173,0.494,0.263,0.755
						c0.151,0.45-0.169,0.947-0.606,1.074c-0.494,0.129-0.896-0.173-1.068-0.613c0.151,0.379,0.025,0.068-0.011-0.012
						c-0.064-0.156-0.132-0.312-0.182-0.468c-0.025-0.079-0.048-0.169-0.071-0.256c-0.005-0.011-0.012-0.019-0.016-0.025
						c-0.016-0.015-0.028-0.029-0.042-0.043c-0.005-0.001-0.005-0.005-0.006-0.006c-0.03-0.016-0.082-0.035-0.098-0.043
						c-0.007-0.003-0.013-0.004-0.02-0.005c-0.039-0.003-0.097-0.012-0.117-0.012c-0.021,0-0.219,0.028-0.137,0.012
						c-0.08,0.016-0.162,0.032-0.24,0.064c-0.17,0.047-0.33,0.107-0.481,0.205c-0.008,0.004-0.197,0.158-0.128,0.091
						c-0.029,0.028-0.06,0.062-0.089,0.095c-0.004,0.008-0.026,0.04-0.045,0.069c-0.011,0.026-0.021,0.056-0.023,0.07
						c-0.003,0.017-0.005,0.023-0.008,0.031c-0.002,0.052-0.002,0.103,0,0.152c0,0.005,0,0.007,0,0.011
						c0.007,0.031,0.014,0.063,0.021,0.096c0.097,0.207,0.177,0.43,0.26,0.664c0.154,0.444-0.173,0.944-0.607,1.064
						c-0.494,0.138-0.89-0.166-1.065-0.605c0.15,0.375,0.023,0.071-0.019-0.019c-0.062-0.147-0.132-0.297-0.185-0.453
						c-0.012-0.038-0.027-0.076-0.038-0.12c-0.013-0.021-0.027-0.043-0.043-0.062c0.085,0.128-0.254-0.195-0.066-0.078
						c-0.041-0.025-0.082-0.056-0.126-0.076c-0.01-0.001-0.02-0.002-0.033-0.002c-0.033-0.013-0.13-0.021-0.134-0.024
						c-0.032,0-0.061,0-0.092,0.004c-0.023,0.008-0.169,0.027-0.177,0.03c-0.064,0.014-0.129,0.035-0.195,0.057
						c-0.135,0.051-0.271,0.109-0.396,0.196c0.002,0.011-0.11,0.096-0.119,0.103c-0.009,0.01-0.02,0.025-0.024,0.026
						c-0.002,0.01-0.008,0.015-0.015,0.026c-0.015,0.023-0.035,0.09-0.045,0.109c0,0.003-0.001,0.008-0.001,0.008
						c0.002,0.026-0.006,0.152-0.004,0.207c0,0.005,0,0.007,0.004,0.011c0.001,0.012,0.004,0.028,0.007,0.038
						c0.085,0.235,0.174,0.473,0.262,0.708c0.166,0.444-0.179,0.949-0.605,1.068c-0.495,0.135-0.894-0.169-1.067-0.609
						c0.148,0.379,0.022,0.066-0.016-0.022c-0.064-0.151-0.136-0.306-0.188-0.463c-0.021-0.066-0.042-0.145-0.061-0.223
						c-0.589-1.591-1.178-3.183-1.769-4.767c-0.299-0.814-0.599-1.624-0.898-2.431c-0.028-0.079-0.059-0.161-0.087-0.239
						c-0.005-0.01-0.008-0.023-0.014-0.034c0-0.002-0.003-0.007-0.003-0.007c-0.008-0.019-0.014-0.031-0.024-0.049
						c-0.008-0.002-0.015-0.005-0.021-0.005c-0.013,0-0.024,0.001-0.046,0.001c-0.008,0-0.21,0.029-0.149,0.008
						c-0.22,0.046-0.437,0.107-0.649,0.187c-0.187,0.07-0.372,0.163-0.538,0.277c0,0.005-0.043,0.042-0.071,0.071
						c0,0.014,0.004,0.026,0.009,0.036c0.038,0.122,0.083,0.233,0.128,0.352c0.215,0.587,0.432,1.175,0.652,1.763
						c1.12,3.024,2.241,6.051,3.362,9.077c0.08,0.216,0.158,0.432,0.237,0.643c0.166,0.44-0.18,0.947-0.606,1.065
						c-0.487,0.134-0.903-0.164-1.067-0.606c-0.067-0.181-0.132-0.356-0.199-0.535c-0.023-0.059-0.043-0.119-0.067-0.178
						c-0.004-0.012-0.074-0.176-0.061-0.146c-0.013-0.032-0.026-0.066-0.043-0.094c-0.058-0.123-0.115-0.246-0.185-0.365
						c-0.059-0.1-0.119-0.202-0.188-0.297c0.021,0.037-0.085-0.076-0.149-0.144c-0.021-0.014-0.079-0.054-0.123-0.079
						c-0.033-0.016-0.091-0.037-0.109-0.039c-0.009-0.003-0.017-0.004-0.023-0.006c-0.015,0.002-0.029,0.003-0.049,0.003
						c-0.041,0-0.061,0-0.072-0.001c-0.011,0.003-0.02,0.005-0.037,0.007c-0.184,0.045-0.289,0.075-0.438,0.168
						c-0.039,0.026-0.061,0.038-0.072,0.044c-0.008,0.008-0.017,0.019-0.028,0.031c-0.015,0.012-0.073,0.086-0.095,0.108
						c-0.033,0.072-0.077,0.17-0.053,0.09c-0.015,0.047-0.027,0.095-0.037,0.144c0,0.007,0,0.016,0,0.025
						c-0.002,0.06-0.002,0.125,0,0.185c0.003,0.024,0.01,0.073,0.014,0.104c0.004,0.019,0.008,0.038,0.012,0.058
						c0.02,0.084,0.043,0.174,0.072,0.261c0.005,0.014,0.011,0.03,0.018,0.044c0.023,0.045,0.05,0.092,0.077,0.139
						c0.15,0.279,0.305,0.56,0.46,0.838c1.048,1.912,2.099,3.819,3.149,5.729c0.168,0.303,0.336,0.606,0.503,0.911
						c0.327-0.116,0.65-0.251,0.975-0.376c2.007-0.761,4.013-1.528,6.02-2.293c1.431-0.545,2.861-1.092,4.293-1.636l-0.069-0.305
						L-474.821,346.568z"/>
					<path d="M-491.074,320.005h0.009c0.472,0,0.868-0.395,0.868-0.867s-0.396-0.867-0.868-0.867h-0.009
						c-0.473,0-0.87,0.395-0.87,0.867C-491.944,319.611-491.547,320.005-491.074,320.005z"/>
					<path d="M-495.791,320.005h2.137c1.117,0,1.117-1.734,0-1.734h-2.137C-496.91,318.271-496.91,320.005-495.791,320.005z"/>
					<path d="M-472.658,348.203c-0.219-0.935-0.437-1.872-0.659-2.808c-0.504-2.161-1.011-4.323-1.516-6.482
						c-0.117-0.499-0.234-1-0.352-1.502c-0.078-0.325-0.29-0.66-0.525-0.896c-0.663-0.654-1.661-0.592-2.475-0.311
						c-0.035,0.012-0.064,0.022-0.096,0.038c-0.567,0.229-1.04,0.555-1.349,1.007c-0.467-0.124-0.986-0.095-1.46,0.036
						c-0.711,0.199-1.305,0.583-1.67,1.142v-20.544c0-0.572-0.057-1.139-0.381-1.633c-0.301-0.463-0.789-0.75-1.348-0.75h-19.318
						c-1.141,0-1.768,1.064-1.768,2.111v35.414c0,0.914,0.354,1.999,1.359,2.223c0.34,0.073,0.72,0.034,1.064,0.034h16.761
						c0.229,0.161,0.509,0.239,0.834,0.213c0.258-0.021,0.462-0.091,0.694-0.18c0.653-0.25,1.302-0.497,1.954-0.744
						c2.125-0.808,4.25-1.624,6.379-2.432c0.809-0.307,1.619-0.616,2.43-0.925c0.745-0.286,1.735-0.574,1.74-1.554
						C-472.354,349.186-472.549,348.658-472.658,348.203z M-503.769,353.55c-0.039-0.072-0.045-0.127-0.072-0.248
						c-0.01-0.043,0-0.15,0-0.215v-35.488c0-0.031,0.004-0.106,0.004-0.123c0.013-0.039,0.064-0.224,0.048-0.2
						c0.006-0.013,0.016-0.025,0.024-0.039h19.192c0.052,0.097,0.076,0.225,0.076,0.367v20.931
						c-0.266,0.092-0.513,0.219-0.733,0.371c-0.247-0.67-0.494-1.335-0.741-2.004c-0.048-0.128-0.094-0.254-0.143-0.379
						l-0.038,0.017l-1.65-4c0,0.001,0,0.003,0,0.005c-0.055-0.055-0.112-0.106-0.177-0.154c-0.692-0.523-1.7-0.287-2.437-0.002
						c-0.854,0.327-1.639,0.851-1.761,1.822c-0.056,0.454,0.168,0.908,0.321,1.325l0.039-0.012l2.079,5.607l-0.039,0.018
						c0.24,0.643,0.479,1.288,0.717,1.936c-0.479,0.029-0.96,0.2-1.361,0.45c-0.698,0.44-1.075,1.198-1.07,2.017
						c0.006,0.646,0.242,1.195,0.542,1.745l1.319,2.397c0.706,1.284,1.415,2.571,2.119,3.856H-503.769L-503.769,353.55z
						 M-488.936,333.835C-488.89,333.866-488.856,333.901-488.936,333.835L-488.936,333.835z M-490.44,334.343L-490.44,334.343
						C-490.428,334.298-490.407,334.266-490.44,334.343z M-490.448,334.323C-490.445,334.259-490.422,334.188-490.448,334.323
						L-490.448,334.323z M-490.412,334.323L-490.412,334.323c-0.001,0.004-0.008,0.009-0.014,0.017
						C-490.409,334.32-490.399,334.312-490.412,334.323z M-489.651,346.051c-0.002-0.005-0.005-0.009-0.007-0.015
						C-489.69,345.983-489.697,345.944-489.651,346.051z M-478.455,351.024c-2.004,0.764-4.011,1.529-6.018,2.296
						c-0.324,0.121-0.648,0.261-0.976,0.372c-0.168-0.303-0.334-0.605-0.502-0.91c-1.051-1.907-2.099-3.818-3.15-5.729
						c-0.154-0.277-0.305-0.556-0.461-0.835c-0.026-0.048-0.052-0.093-0.076-0.14c-0.003-0.015-0.011-0.031-0.016-0.045
						c-0.03-0.087-0.054-0.171-0.074-0.262c-0.003-0.017-0.008-0.035-0.011-0.056c-0.006-0.031-0.011-0.078-0.012-0.104
						c-0.007-0.061-0.005-0.125-0.001-0.185c0-0.011,0.001-0.02,0.001-0.024c0.006-0.049,0.021-0.099,0.037-0.144
						c-0.025,0.079,0.019-0.02,0.053-0.091c0.02-0.021,0.078-0.097,0.091-0.112c0.013-0.011,0.021-0.02,0.029-0.026
						c0.012-0.007,0.037-0.018,0.072-0.042c0.147-0.09,0.257-0.124,0.438-0.167c0.014-0.004,0.026-0.011,0.036-0.012
						c0.011,0.001,0.032,0.001,0.072,0.001c0.023-0.001,0.035-0.002,0.048-0.002c0.006,0.001,0.015,0.002,0.025,0.005
						c0.02,0.008,0.075,0.025,0.109,0.037c0.044,0.027,0.103,0.072,0.122,0.084c0.067,0.065,0.171,0.177,0.148,0.142
						c0.07,0.093,0.13,0.197,0.191,0.299c0.069,0.115,0.128,0.24,0.185,0.362c0.015,0.031,0.028,0.062,0.044,0.099
						c-0.016-0.034,0.054,0.131,0.059,0.144c0.023,0.057,0.044,0.12,0.069,0.179c0.064,0.175,0.131,0.355,0.195,0.534
						c0.165,0.442,0.582,0.742,1.068,0.604c0.426-0.118,0.771-0.622,0.606-1.068c-0.08-0.208-0.157-0.421-0.239-0.638
						c-1.119-3.028-2.239-6.051-3.362-9.078c-0.218-0.588-0.435-1.176-0.651-1.762c-0.042-0.118-0.089-0.231-0.128-0.352
						c-0.004-0.01-0.007-0.025-0.011-0.037c0.032-0.029,0.074-0.068,0.075-0.072c0.167-0.115,0.349-0.205,0.538-0.277
						c0.21-0.079,0.428-0.139,0.649-0.185c-0.062,0.016,0.141-0.009,0.147-0.009c0.02,0,0.036-0.002,0.045-0.002
						c0.007,0,0.015,0.002,0.022,0.006c0.008,0.02,0.017,0.029,0.024,0.049l0.003,0.01c0.003,0.009,0.008,0.021,0.012,0.031
						c0.029,0.086,0.059,0.164,0.089,0.242c0.301,0.803,0.602,1.613,0.9,2.423c0.589,1.59,1.178,3.179,1.766,4.769
						c0.018,0.076,0.039,0.153,0.062,0.231c0.051,0.155,0.12,0.306,0.186,0.458c0.038,0.088,0.165,0.4,0.016,0.021
						c0.173,0.441,0.573,0.745,1.069,0.613c0.424-0.125,0.769-0.625,0.604-1.073c-0.088-0.235-0.174-0.47-0.263-0.708
						c-0.002-0.013-0.004-0.024-0.008-0.038c-0.001-0.004-0.001-0.005-0.001-0.009c-0.004-0.056,0.005-0.183,0.002-0.202
						c0,0,0.002-0.01,0.003-0.013c0.007-0.026,0.03-0.085,0.044-0.111c0.004-0.011,0.01-0.018,0.015-0.024
						c0.006-0.008,0.013-0.018,0.025-0.029c0.007-0.006,0.117-0.096,0.117-0.096c0.125-0.09,0.259-0.155,0.398-0.202
						c0.063-0.021,0.127-0.039,0.191-0.058c0.009-0.002,0.153-0.023,0.176-0.029c0.031-0.002,0.062-0.004,0.092-0.002
						c0.003,0.002,0.1,0.009,0.133,0.019c0.014,0.002,0.025,0.006,0.033,0.007c0.045,0.022,0.088,0.049,0.128,0.076
						c-0.186-0.121,0.151,0.209,0.067,0.078c0.013,0.021,0.029,0.041,0.044,0.063c0.01,0.041,0.022,0.078,0.036,0.117
						c0.052,0.156,0.122,0.306,0.187,0.454c0.039,0.091,0.167,0.394,0.017,0.023c0.176,0.433,0.571,0.742,1.067,0.604
						c0.433-0.121,0.762-0.623,0.606-1.069c-0.082-0.234-0.165-0.453-0.261-0.666c-0.008-0.028-0.013-0.061-0.021-0.091
						c0-0.005,0-0.006,0-0.012c-0.003-0.053-0.001-0.101,0-0.152c0.001-0.008,0.005-0.019,0.007-0.03
						c0.003-0.015,0.013-0.041,0.024-0.067c0.019-0.032,0.04-0.067,0.044-0.078c0.029-0.029,0.06-0.061,0.092-0.088
						c-0.069,0.066,0.121-0.089,0.128-0.093c0.152-0.093,0.31-0.157,0.482-0.21c0.078-0.025,0.159-0.039,0.241-0.06
						c-0.083,0.021,0.117-0.008,0.135-0.009c0.021,0,0.08,0.005,0.117,0.009c0.007,0.001,0.014,0.003,0.02,0.005
						c0.016,0.007,0.068,0.027,0.098,0.044c0.003,0.001,0.003,0.011,0.007,0.011c0.012,0.011,0.026,0.021,0.04,0.039
						c0.006,0.003,0.013,0.015,0.02,0.023c0.021,0.094,0.043,0.173,0.07,0.258c0.049,0.154,0.117,0.307,0.183,0.461
						c0.038,0.085,0.16,0.394,0.012,0.018c0.173,0.44,0.574,0.742,1.069,0.607c0.435-0.117,0.756-0.618,0.605-1.067
						c-0.091-0.261-0.164-0.517-0.262-0.758c0-0.061,0.004-0.165,0.002-0.186c0.005-0.027,0.015-0.058,0.022-0.083l0,0
						c0.006-0.009,0.01-0.016,0.018-0.027c0.007-0.017,0.034-0.052,0.055-0.078c0.035-0.034,0.095-0.093,0.082-0.085
						c0.116-0.082,0.252-0.156,0.375-0.204c0.113-0.038,0.226-0.073,0.342-0.104c-0.008,0.004,0.228-0.036,0.201-0.039
						c0.04-0.002,0.078-0.002,0.118-0.001c-0.019,0,0.084,0.009,0.122,0.016c0.003,0.007,0.008,0.008,0.013,0.011
						c0.002,0.001,0.002,0.001,0.002,0.001c0.006,0.005,0.014,0.012,0.018,0.019c0.014,0.023,0.025,0.048,0.039,0.066
						c0,0,0,0.002,0.002,0.006c0,0.005,0.002,0.015,0.002,0.015c0.015,0.054,0.025,0.104,0.039,0.156
						c0.151,0.644,0.3,1.289,0.45,1.929c0.519,2.211,1.035,4.414,1.554,6.623l0.589,2.515l0.072,0.307
						C-475.591,349.935-477.022,350.481-478.455,351.024z M-474.083,349.722c0.003,0.014,0.003,0.021,0.003,0.021
						C-474.08,349.742-474.081,349.735-474.083,349.722z M-473.935,349.304C-473.898,349.283-473.875,349.278-473.935,349.304
						L-473.935,349.304z"/>
					<path d="M-492.432,349.806h-3.778c-1.118,0-1.118,1.735,0,1.735h3.778C-491.313,351.541-491.313,349.806-492.432,349.806z"/>
					<path d="M-487.8,332.539"/>
				</g>
			</g>
		</g>
	</g>
	<polygon points="-491.071,334.235 -493.794,334.235 -493.794,325.23 -494.762,325.23 -494.762,334.235 -500.925,334.235 
		-500.925,335.203 -494.762,335.203 -494.762,344.581 -493.794,344.581 -493.794,335.203 -491.071,335.203 	"/>
</g>
</svg>
