<?xml version="1.0" encoding="utf-8"?>
<!-- Generator: Adobe Illustrator 16.0.0, SVG Export Plug-In . SVG Version: 6.00 Build 0)  -->
<!DOCTYPE svg PUBLIC "-//W3C//DTD SVG 1.1//EN" "http://www.w3.org/Graphics/SVG/1.1/DTD/svg11.dtd">
<svg version="1.1" id="Layer_6" xmlns="http://www.w3.org/2000/svg" xmlns:xlink="http://www.w3.org/1999/xlink" x="0px" y="0px"
	 width="70px" height="70px" viewBox="0 0 70 70" enable-background="new 0 0 70 70" xml:space="preserve">
<g>
	<g id="_x31_">
		<path fill="#FFFFFF" d="M47.902,30.396L43.827,29.7v-3.621c0-4.278-3.481-7.759-7.761-7.759h-2.132c-4.278,0-7.76,3.48-7.76,7.759
			v3.627l-4.075,0.691C20.882,30.602,20,31.647,20,32.881v16.28c0,1.389,1.13,2.521,2.52,2.521h24.96c1.39,0,2.52-1.132,2.52-2.521
			V32.88C50,31.646,49.118,30.602,47.902,30.396z M27.313,26.078c0-3.65,2.97-6.619,6.621-6.619h2.132
			c3.65,0,6.621,2.969,6.621,6.619v3.427l-2.471-0.421v-2.54c0-2.544-2.07-4.615-4.615-4.615h-1.201
			c-2.546,0-4.616,2.071-4.616,4.615v2.549l-2.471,0.419L27.313,26.078L27.313,26.078z M39.078,28.902
			c-1.342-0.188-2.698-0.287-4.049-0.287c-1.37,0-2.747,0.1-4.106,0.295v-2.366c0-1.916,1.561-3.476,3.478-3.476h1.201
			c1.916,0,3.478,1.56,3.478,3.476L39.078,28.902L39.078,28.902z M48.861,49.161c0,0.761-0.619,1.38-1.381,1.38H22.52
			c-0.762,0-1.381-0.619-1.381-1.38v-16.28c0-0.677,0.484-1.248,1.149-1.362l8.115-1.374c1.523-0.259,3.079-0.39,4.625-0.39
			c1.554,0,3.119,0.132,4.65,0.395l8.032,1.368c0.666,0.114,1.149,0.687,1.149,1.362v16.281H48.861z"/>
		<path fill="#FFFFFF" d="M34.992,34.457c-0.029,0-0.06,0.002-0.089,0.002c-1.071,0.024-2.059,0.47-2.779,1.257
			c-0.729,0.798-1.093,1.837-1.022,2.927c0.079,1.219,0.677,2.27,1.655,2.931v2.991c0,0.479,0.39,0.869,0.869,0.869h2.761
			c0.482,0,0.875-0.392,0.875-0.873v-3.006c1.022-0.758,1.646-1.951,1.646-3.184C38.908,36.214,37.15,34.457,34.992,34.457z
			 M36.389,40.771c-0.166,0.104-0.268,0.287-0.268,0.482v3.04h-2.226v-3.04c0-0.206-0.112-0.396-0.293-0.498
			c-0.806-0.449-1.304-1.246-1.364-2.188c-0.051-0.777,0.207-1.518,0.726-2.082c0.509-0.557,1.206-0.872,1.963-0.889
			c1.562-0.035,2.841,1.223,2.841,2.772C37.768,39.504,37.055,40.354,36.389,40.771z"/>
	</g>
</g>
</svg>
