<?xml version="1.0" encoding="utf-8"?>
<!-- Generator: Adobe Illustrator 16.0.0, SVG Export Plug-In . SVG Version: 6.00 Build 0)  -->
<!DOCTYPE svg PUBLIC "-//W3C//DTD SVG 1.1//EN" "http://www.w3.org/Graphics/SVG/1.1/DTD/svg11.dtd">
<svg version="1.1" id="Layer_1" xmlns="http://www.w3.org/2000/svg" xmlns:xlink="http://www.w3.org/1999/xlink" x="0px" y="0px"
	 width="50px" height="50px" viewBox="-89.5 28.5 50 50" enable-background="new -89.5 28.5 50 50" xml:space="preserve">
<path fill="#FFFFFF" d="M-46.792,42.019l-7.901-3.994c-0.114-0.098-0.247-0.166-0.391-0.197l-7.612-3.845
	c-0.559-0.281-1.182-0.431-1.803-0.431c-0.624,0-1.248,0.15-1.806,0.431l-15.904,8.037c-1.392,0.703-2.292,2.189-2.292,3.785V60.95
	c0,0.4,0.056,0.793,0.163,1.168c-0.127,0.691-0.181,1.404-0.153,2.119c0.137,3.422,2.17,6.583,5.208,8.154
	c2.98,1.541,6.645,1.385,9.495-0.379c0.29-0.176,0.567-0.371,0.833-0.578l2.65,1.338c0.559,0.285,1.182,0.434,1.806,0.434
	c0.622,0,1.245-0.148,1.803-0.434l15.904-8.037c1.391-0.701,2.292-2.188,2.292-3.785V45.804
	C-44.5,44.208-45.401,42.722-46.792,42.019z M-71.677,71.048c-2.762,1.279-6.239,0.664-8.493-1.379
	c-2.348-2.131-3.151-5.436-2.148-8.432c0.949-2.844,3.691-4.973,6.645-5.26c2.267-0.22,4.474,0.525,6.11,2.012
	c1.664,1.51,2.573,3.624,2.585,5.84c-0.008,1.57-0.441,3.018-1.312,4.357C-69.095,69.427-70.275,70.399-71.677,71.048z
	 M-46.246,60.95c0,0.945-0.522,1.819-1.334,2.229l-15.901,8.035c-0.317,0.158-0.669,0.244-1.017,0.244
	c-0.352,0-0.703-0.086-1.019-0.244l-2.095-1.057c1.501-1.736,2.364-3.996,2.379-6.328c-0.02-3.451-1.887-6.664-4.882-8.383
	c-3.023-1.735-6.876-1.63-9.832,0.195c-1.122,0.695-2.07,1.613-2.807,2.676V45.804c0-0.944,0.521-1.819,1.333-2.227l15.903-8.038
	c0.315-0.158,0.667-0.242,1.019-0.242c0.348,0,0.699,0.084,1.017,0.242l6.245,3.156l-14.331,7.241
	c-1.392,0.703-2.29,2.188-2.29,3.787v2.312c0,0.482,0.391,0.873,0.872,0.873c0.482,0,0.874-0.391,0.874-0.873v-2.312
	c0-0.945,0.523-1.818,1.332-2.229l15.478-7.82l7.722,3.902c0.812,0.407,1.334,1.282,1.334,2.227V60.95z M-52.336,54.538
	c0.081-0.14,0.159-0.277,0.237-0.416v4.439c0,1.125,1.745,1.125,1.745,0v-5.82c0.105,0.09,0.208,0.18,0.312,0.27
	c0.358,0.312,0.88,0.354,1.234,0c0.317-0.318,0.359-0.922,0-1.234c-0.602-0.521-1.203-1.043-1.801-1.565l-0.004-0.001
	c-0.048-0.046-0.102-0.082-0.159-0.113c-0.359-0.206-0.817-0.175-1.099,0.141c-0.066,0.067-0.125,0.148-0.164,0.242
	c-0.602,1.059-1.206,2.117-1.809,3.176C-54.401,54.636-52.893,55.515-52.336,54.538z M-59.802,58.333
	c0.078-0.139,0.156-0.277,0.234-0.414v4.438c0,1.127,1.745,1.127,1.745,0v-5.82c0.106,0.092,0.208,0.182,0.312,0.271
	c0.359,0.312,0.88,0.354,1.234,0c0.32-0.318,0.359-0.922,0-1.234c-0.602-0.521-1.198-1.043-1.8-1.566h-0.004
	c-0.048-0.046-0.103-0.085-0.16-0.116c-0.359-0.203-0.817-0.172-1.099,0.144c-0.065,0.066-0.12,0.146-0.16,0.24
	c-0.605,1.059-1.21,2.119-1.812,3.178C-61.87,58.431-60.362,59.312-59.802,58.333z M-48.779,60.013l-12.422,6.279
	c-0.431,0.215-0.605,0.742-0.388,1.172c0.153,0.305,0.461,0.48,0.781,0.48c0.133,0,0.266-0.031,0.391-0.094l12.427-6.279
	c0.43-0.217,0.602-0.743,0.386-1.174C-47.823,59.968-48.346,59.794-48.779,60.013z M-70.654,60.855
	c-1.883,1.876-3.766,3.751-5.649,5.628c-0.848-0.838-1.695-1.674-2.543-2.508c-0.801-0.792-2.038,0.441-1.234,1.232
	c1.055,1.041,2.109,2.08,3.161,3.12c0.34,0.335,0.897,0.339,1.234,0c2.089-2.079,4.177-4.157,6.266-6.237
	C-68.62,61.296-69.857,60.062-70.654,60.855z"/>
</svg>
