<?xml version="1.0" encoding="utf-8"?>
<!-- Generator: Adobe Illustrator 16.0.0, SVG Export Plug-In . SVG Version: 6.00 Build 0)  -->
<!DOCTYPE svg PUBLIC "-//W3C//DTD SVG 1.1//EN" "http://www.w3.org/Graphics/SVG/1.1/DTD/svg11.dtd">
<svg version="1.1" id="Layer_1" xmlns="http://www.w3.org/2000/svg" xmlns:xlink="http://www.w3.org/1999/xlink" x="0px" y="0px"
	 width="70px" height="70px" viewBox="0 0 70 70" enable-background="new 0 0 70 70" xml:space="preserve">
<g id="Layer_2">
	<g>
		<path fill="#FFFFFF" d="M29.739,43.285c-0.351,0-0.661-0.309-0.661-0.66v-17.25c0-0.352,0.309-0.66,0.661-0.66
			c0.352,0,0.66,0.308,0.66,0.66v17.206C30.399,42.977,30.092,43.285,29.739,43.285z"/>
		<path fill="#FFFFFF" d="M40.262,43.285c-0.354,0-0.66-0.309-0.66-0.66v-17.25c0-0.352,0.309-0.66,0.66-0.66s0.66,0.308,0.66,0.66
			v17.206C40.922,42.977,40.657,43.285,40.262,43.285z"/>
		<path fill="#FFFFFF" d="M34.978,43.285c-0.352,0-0.66-0.309-0.66-0.66v-17.25c0-0.352,0.309-0.66,0.66-0.66
			c0.353,0,0.661,0.308,0.661,0.66v17.206C35.639,42.977,35.33,43.285,34.978,43.285z"/>
	</g>
	<g>
		<path fill="#FFFFFF" d="M44.514,20.392H25.487c-0.997,0-1.827,0.831-1.827,1.828l-0.001,26.866c0,0.996,0.831,1.826,1.827,1.826
			h19.069c0.998,0,1.827-0.788,1.787-1.783V22.22C46.341,21.223,45.512,20.392,44.514,20.392z M25.091,46.008V22.052h19.777v23.956
			H25.091z"/>
	</g>
</g>
<g transform="translate(0,-1020.3622)">
	<path fill="#FFFFFF" d="M41.291,1039.929c-0.005,0-0.009,0-0.016,0c-0.289,0.004-0.521,0.242-0.519,0.533
		c0,0.986-0.678,1.837-1.641,2.056c-0.866,0.198-1.744-0.167-2.224-0.89c0.203-0.181,0.387-0.385,0.547-0.611
		c0.182-0.229,0.144-0.561-0.086-0.741c-0.229-0.18-0.561-0.142-0.74,0.087c-0.012,0.013-0.021,0.028-0.03,0.044
		c-0.649,0.916-1.802,1.318-2.88,1.007c-1.079-0.311-1.838-1.266-1.899-2.386c-0.012-0.29-0.258-0.517-0.548-0.506
		c-0.006,0.001-0.011,0.001-0.016,0.002c-0.291,0.02-0.51,0.27-0.491,0.562c0,0,0,0.001,0,0.003
		c0.025,0.445,0.132,0.872,0.304,1.267c-0.008,0.013-0.019,0.024-0.026,0.037c-0.435,0.826-1.353,1.266-2.268,1.086
		c-0.916-0.18-1.601-0.933-1.692-1.861c-0.023-0.276-0.256-0.487-0.533-0.483v-0.001c-0.292,0.004-0.524,0.243-0.521,0.534
		c0,0.017,0.002,0.035,0.003,0.053c0.136,1.387,1.171,2.525,2.538,2.793c1.194,0.234,2.401-0.241,3.122-1.184
		c0.454,0.511,1.047,0.9,1.734,1.098c0.886,0.255,1.81,0.162,2.605-0.216c0.719,1.08,2.043,1.63,3.336,1.335
		c1.436-0.327,2.459-1.61,2.459-3.083C41.814,1040.171,41.582,1039.931,41.291,1039.929z"/>
	<path fill="#FFFFFF" d="M45.195,1035.891c-1.039-1.727-2.873-2.749-4.805-2.803c-0.533-0.015-1.072,0.047-1.606,0.186
		c-1.025-1.5-2.761-2.375-4.593-2.291c-1.849,0.085-3.511,1.137-4.387,2.749c-0.504-0.104-1.011-0.14-1.51-0.11l0,0
		c-1.902,0.114-3.68,1.166-4.675,2.884c-1.322,2.286-0.965,5.165,0.929,7.015c0.204,0.208,0.538,0.209,0.745,0.005
		c0.208-0.205,0.209-0.539,0.005-0.745c-0.004-0.004-0.008-0.008-0.012-0.013c-1.553-1.518-1.846-3.849-0.754-5.735
		c1.088-1.879,3.307-2.779,5.395-2.188c0.228,0.062,0.46-0.037,0.582-0.226c0.041-0.042,0.077-0.089,0.102-0.145
		c0.662-1.427,2.058-2.365,3.63-2.438c1.569-0.072,3.049,0.732,3.839,2.092c0.123,0.239,0.402,0.343,0.648,0.253
		c0.004-0.001,0.006-0.001,0.01-0.001c0.013-0.003,0.025-0.007,0.041-0.012c2.099-0.676,4.379,0.18,5.517,2.068
		c1.14,1.892,0.851,4.278-0.729,5.817c-0.209,0.203-0.215,0.537-0.012,0.746s0.537,0.214,0.746,0.011l0.002-0.001
		C46.229,1041.131,46.581,1038.19,45.195,1035.891z"/>
</g>
<g>
	<path fill="#FFFFFF" d="M49.271,27.223H46v1.472h3.271c0.734,0,1.303,0.569,1.303,1.304v8.647c0,0.733-0.567,1.303-1.303,1.303H46
		v1.473h3.271c1.524,0,2.775-1.251,2.775-2.775v-8.648C52.048,28.473,50.797,27.223,49.271,27.223z"/>
</g>
</svg>
