<?xml version="1.0" encoding="utf-8"?>
<!-- Generator: Adobe Illustrator 16.0.0, SVG Export Plug-In . SVG Version: 6.00 Build 0)  -->
<!DOCTYPE svg PUBLIC "-//W3C//DTD SVG 1.1//EN" "http://www.w3.org/Graphics/SVG/1.1/DTD/svg11.dtd">
<svg version="1.1" id="Layer_1" xmlns="http://www.w3.org/2000/svg" xmlns:xlink="http://www.w3.org/1999/xlink" x="0px" y="0px"
	 width="70px" height="70px" viewBox="-483.256 365.525 70 70" enable-background="new -483.256 365.525 70 70"
	 xml:space="preserve">
<g>
	<path fill="#23262E" d="M-439.558,413.025h-16.904v-3.354l7.978-8.502c1.095-1.195,1.906-2.241,2.431-3.133
		c0.525-0.894,0.787-1.739,0.787-2.541c0-1.095-0.276-1.955-0.83-2.583c-0.553-0.628-1.344-0.94-2.372-0.94
		c-1.106,0-1.979,0.383-2.616,1.144c-0.639,0.763-0.958,1.765-0.958,3.007h-4.913c0-1.502,0.358-2.874,1.076-4.117
		c0.717-1.241,1.73-2.214,3.04-2.921c1.311-0.706,2.795-1.059,4.456-1.059c2.54,0,4.513,0.61,5.92,1.829
		c1.405,1.219,2.108,2.942,2.108,5.167c0,1.22-0.316,2.46-0.948,3.726c-0.633,1.264-1.717,2.739-3.252,4.42l-5.606,5.912h10.603
		L-439.558,413.025L-439.558,413.025z"/>
</g>
</svg>
