<?xml version="1.0" encoding="utf-8"?>
<!-- Generator: Adobe Illustrator 16.0.0, SVG Export Plug-In . SVG Version: 6.00 Build 0)  -->
<!DOCTYPE svg PUBLIC "-//W3C//DTD SVG 1.1//EN" "http://www.w3.org/Graphics/SVG/1.1/DTD/svg11.dtd">
<svg version="1.1" id="Layer_6" xmlns="http://www.w3.org/2000/svg" xmlns:xlink="http://www.w3.org/1999/xlink" x="0px" y="0px"
	 width="70px" height="70px" viewBox="0 0 70 70" enable-background="new 0 0 70 70" xml:space="preserve">
<g>
	<path fill="#FFFFFF" d="M44.518,20.827c-0.972-0.364-2.063-0.182-2.854,0.607l-0.182,0.243c-0.185,0.182-0.426,0.425-0.789,0.729
		c-0.67,0.547-1.701,1.336-3.101,2.187c-2.063,1.275-5.283,2.793-9.109,3.097h-0.061h-8.38c-3.583-0.061-6.437,2.854-6.498,6.437
		c0,3.583,2.915,6.499,6.498,6.499l7.591,10.626c0.243,0.365,0.668,0.607,1.093,0.669c0.061,0,0.182,0,0.243,0
		c0.365,0,0.729-0.122,1.033-0.364l3.461-2.672c0.729-0.547,0.85-1.578,0.304-2.309l-4.19-5.891c3.34,0.484,6.134,1.82,7.957,2.977
		c1.396,0.85,2.429,1.64,3.098,2.186c0.364,0.305,0.607,0.547,0.79,0.668l0.242,0.185l0,0l0,0c0.485,0.485,1.153,0.789,1.821,0.789
		c0.365,0,0.668-0.062,0.973-0.183c0.973-0.427,1.578-1.336,1.578-2.369V23.256C46.098,22.224,45.488,21.252,44.518,20.827z
		 M31.825,47.486l-2.733,2.127l-6.437-8.987h4.251L31.825,47.486z M28.483,38.439c-0.061,0-0.121,0-0.182,0h-0.85h-6.862h-0.364
		h-0.182c-2.368,0-4.373-1.944-4.373-4.375c0-2.368,1.943-4.372,4.373-4.372h8.198c0.061,0,0.122,0,0.182,0
		c2.065-0.122,4.008-0.607,5.708-1.215V39.65C32.493,39.105,30.548,38.621,28.483,38.439z M43.971,44.998
		c0,0.182-0.121,0.363-0.303,0.425c-0.184,0.062-0.363,0-0.486-0.062c0-0.062-0.061-0.062-0.061-0.062
		c-0.062-0.062-0.122-0.12-0.244-0.241c-0.182-0.185-0.484-0.428-0.91-0.789c-0.729-0.607-1.883-1.459-3.341-2.369
		c-0.667-0.426-1.457-0.852-2.368-1.274V27.629c0.911-0.425,1.701-0.85,2.368-1.275c1.458-0.911,2.612-1.761,3.341-2.368
		c0.364-0.304,0.668-0.607,0.91-0.79l0.305-0.304c0.123-0.121,0.305-0.182,0.486-0.121s0.303,0.243,0.303,0.425V44.998z"/>
	<path fill="#FFFFFF" d="M58.613,33.278h-7.004c-0.467,0-0.842,0.374-0.842,0.84c0,0.466,0.375,0.841,0.842,0.841h7.004
		c0.467,0,0.842-0.374,0.842-0.841C59.455,33.604,59.081,33.278,58.613,33.278z"/>
	<path fill="#FFFFFF" d="M50.324,28.981c0.186,0,0.42-0.093,0.56-0.233l5.558-5.557c0.328-0.327,0.328-0.84,0-1.167
		c-0.325-0.327-0.84-0.327-1.166,0l-5.512,5.557c-0.326,0.327-0.326,0.84,0,1.167C49.902,28.888,50.139,28.981,50.324,28.981z"/>
	<path fill="#FFFFFF" d="M50.884,39.441c-0.325-0.326-0.84-0.326-1.167,0c-0.326,0.328-0.326,0.842,0,1.168l5.559,5.558
		c0.14,0.14,0.373,0.233,0.56,0.233s0.42-0.094,0.562-0.233c0.326-0.327,0.326-0.841,0-1.168L50.884,39.441z"/>
</g>
</svg>
