<?xml version="1.0" encoding="utf-8"?>
<!-- Generator: Adobe Illustrator 16.0.0, SVG Export Plug-In . SVG Version: 6.00 Build 0)  -->
<!DOCTYPE svg PUBLIC "-//W3C//DTD SVG 1.1//EN" "http://www.w3.org/Graphics/SVG/1.1/DTD/svg11.dtd">
<svg version="1.1" id="Layer_1" xmlns="http://www.w3.org/2000/svg" xmlns:xlink="http://www.w3.org/1999/xlink" x="0px" y="0px"
	 width="89.079px" height="131.813px" viewBox="0 0 89.079 131.813" enable-background="new 0 0 89.079 131.813"
	 xml:space="preserve">
<g>
	<path d="M28.988,54.628h13.569c6.461,0,11.248-1.615,14.362-4.846c3.113-3.229,4.67-7.518,4.67-12.864
		c0-5.168-1.542-9.192-4.625-12.071c-3.084-2.877-7.329-4.317-12.732-4.317c-4.876,0-8.958,1.337-12.248,4.009
		c-3.291,2.674-4.934,6.154-4.934,10.441H1.586c0-6.696,1.806-12.702,5.419-18.019c3.612-5.315,8.664-9.472,15.155-12.468
		C28.649,1.498,35.802,0,43.614,0c13.569,0,24.2,3.247,31.896,9.736c7.695,6.491,11.542,15.435,11.542,26.83
		c0,5.875-1.793,11.278-5.375,16.212c-3.584,4.934-8.283,8.723-14.098,11.366c7.225,2.585,12.613,6.462,16.168,11.63
		c3.553,5.169,5.331,11.279,5.331,18.328c0,11.396-4.156,20.529-12.467,27.401c-8.312,6.872-19.312,10.31-32.998,10.31
		c-12.806,0-23.276-3.377-31.411-10.133C4.067,114.927,0,105.997,0,94.896h25.464c0,4.816,1.806,8.752,5.418,11.807
		c3.613,3.055,8.062,4.581,13.349,4.581c6.049,0,10.793-1.6,14.229-4.802c3.437-3.201,5.154-7.445,5.154-12.732
		c0-12.805-7.049-19.208-21.146-19.208H28.988V54.628z"/>
</g>
</svg>
