<?xml version="1.0" encoding="utf-8"?>
<!-- Generator: Adobe Illustrator 16.0.0, SVG Export Plug-In . SVG Version: 6.00 Build 0)  -->
<!DOCTYPE svg PUBLIC "-//W3C//DTD SVG 1.1//EN" "http://www.w3.org/Graphics/SVG/1.1/DTD/svg11.dtd">
<svg version="1.1" id="Layer_1" xmlns="http://www.w3.org/2000/svg" xmlns:xlink="http://www.w3.org/1999/xlink" x="0px" y="0px"
	 width="144.234px" height="171.61px" viewBox="0 0 144.234 171.61" enable-background="new 0 0 144.234 171.61"
	 xml:space="preserve">
<g>
	<path d="M42.199,19.434h9.203c4.822,0,4.822-7.482,0-7.482h-9.203C37.373,11.952,37.373,19.434,42.199,19.434z M56.68,147.941
		H40.393c-4.826,0-4.826,7.481,0,7.481H56.68C61.506,155.422,61.506,147.941,56.68,147.941z M62.535,19.434h0.035
		c2.039,0,3.74-1.703,3.74-3.741c0-2.04-1.701-3.742-3.74-3.742h-0.035c-2.039,0-3.744,1.702-3.744,3.742
		C58.791,17.731,60.496,19.434,62.535,19.434z M140.49,34.642H98.387V10.271c0-2.457-0.242-4.897-1.633-7.031
		C95.443,1.231,93.348,0,90.936,0H7.623C2.701,0,0,4.592,0,9.117v152.725c0,3.927,1.529,8.613,5.865,9.566
		c1.465,0.324,3.105,0.159,4.588,0.159h80.023c5.066,0,7.762-4.288,7.91-9.035V95.738c0.211-0.404,0.408-0.816,0.588-1.23h41.516
		c2.041,0,3.744-1.703,3.744-3.743V38.382C144.234,36.343,142.531,34.642,140.49,34.642z M90.904,162.533
		c-0.02,0.627-0.125,1.115-0.334,1.553h-0.014c0-0.006-0.01-0.006-0.014,0H7.797c-0.17-0.306-0.197-0.551-0.311-1.062
		c-0.043-0.19-0.004-0.652-0.004-0.928V9.046c0-0.128,0.018-0.454,0.016-0.529c0.057-0.169,0.283-0.965,0.209-0.859
		c0.031-0.059,0.07-0.12,0.107-0.175h82.764c0.23,0.425,0.326,0.974,0.326,1.591v25.567H58.262c-1.16,0-2.043,0.437-2.645,1.096
		c-0.66,0.604-1.096,1.483-1.096,2.645v52.383c0,2.04,1.701,3.743,3.74,3.743H78.41c-0.25,1.23-0.547,2.452-0.938,3.651
		c-0.605,1.855-1.969,3.324-1.998,5.362c-0.068,4.447,4.83,4.98,8.039,4.023c2.496-0.744,5.051-1.994,7.391-3.625V162.533z
		 M136.752,87.025H96.26c-1.6,0-3.252,1.133-3.607,2.747c-0.115,0.515-0.268,1.014-0.439,1.51c-0.049,0.09-0.221,0.5-0.256,0.571
		c-0.193,0.384-0.416,0.754-0.645,1.119c-0.172,0.279-0.361,0.546-0.551,0.812c-0.014,0.021-0.027,0.038-0.041,0.056
		c-0.131,0.162-0.264,0.32-0.4,0.477c-0.506,0.59-1.061,1.139-1.625,1.669c-0.242,0.227-0.496,0.444-0.748,0.661
		c-0.07,0.064-0.586,0.468-0.713,0.571c-0.541,0.401-1.098,0.776-1.668,1.138c-0.137,0.086-0.273,0.165-0.414,0.248
		c0.611-2.235,0.922-4.56,1.275-6.843c0.369-2.362-0.963-4.736-3.605-4.736H62.004V42.124h74.748V87.025z M123.967,68.332
		c-0.002-0.009-0.004-0.015-0.01-0.022C123.967,68.198,123.973,68.234,123.967,68.332z M123.967,59.562l-0.01-0.022
		C123.967,59.427,123.973,59.465,123.967,59.562z M123.959,59.646c0,0.009,0,0.017,0,0.028c-0.002-0.012-0.006-0.025-0.006-0.039
		C123.957,59.64,123.959,59.644,123.959,59.646z M123.959,68.416c0,0,0,0.019,0,0.026c-0.002-0.011-0.006-0.025-0.006-0.036
		C123.957,68.409,123.959,68.414,123.959,68.416z M123.943,59.781L123.943,59.781v0.002V59.781z M123.943,68.55v0.001v0.002V68.55z"
		/>
</g>
<g>
	<path d="M85.568,67.036c0,0.987-0.121,1.879-0.363,2.672c-0.244,0.793-0.605,1.47-1.088,2.027c-0.48,0.559-1.082,0.988-1.803,1.287
		c-0.721,0.3-1.559,0.45-2.514,0.45c-0.438,0-0.867-0.027-1.287-0.079c-0.422-0.053-0.861-0.135-1.324-0.249
		c0.023-0.323,0.053-0.648,0.086-0.972c0.031-0.323,0.061-0.647,0.082-0.972c0.027-0.178,0.098-0.321,0.215-0.43
		c0.117-0.11,0.285-0.164,0.504-0.164c0.139,0,0.316,0.028,0.541,0.084c0.221,0.057,0.504,0.085,0.844,0.085
		c0.461,0,0.869-0.067,1.227-0.201c0.355-0.134,0.654-0.345,0.893-0.637s0.418-0.669,0.539-1.135
		c0.123-0.466,0.184-1.03,0.184-1.694V55.718h3.266V67.036z"/>
	<path d="M106.053,64.498c0,1.288-0.211,2.479-0.637,3.576c-0.426,1.097-1.025,2.046-1.803,2.848s-1.711,1.427-2.807,1.876
		c-1.092,0.45-2.305,0.674-3.643,0.674c-1.326,0-2.537-0.225-3.629-0.674c-1.094-0.449-2.031-1.074-2.812-1.876
		c-0.779-0.802-1.387-1.75-1.814-2.848c-0.428-1.097-0.645-2.289-0.645-3.576c0-1.287,0.217-2.479,0.645-3.577
		c0.428-1.096,1.035-2.045,1.814-2.847c0.781-0.801,1.719-1.427,2.812-1.876c1.092-0.449,2.303-0.673,3.629-0.673
		c0.893,0,1.73,0.103,2.516,0.309s1.506,0.498,2.16,0.874c0.656,0.376,1.244,0.834,1.768,1.373c0.521,0.538,0.965,1.139,1.33,1.803
		c0.363,0.664,0.641,1.384,0.832,2.161C105.959,62.822,106.053,63.64,106.053,64.498z M102.715,64.498
		c0-0.963-0.131-1.827-0.389-2.593c-0.258-0.765-0.627-1.414-1.104-1.949c-0.48-0.534-1.061-0.943-1.744-1.227
		c-0.684-0.284-1.455-0.425-2.314-0.425c-0.855,0-1.627,0.141-2.312,0.425c-0.684,0.283-1.266,0.692-1.748,1.227
		c-0.48,0.535-0.852,1.184-1.111,1.949c-0.258,0.766-0.389,1.629-0.389,2.593s0.131,1.827,0.389,2.593
		c0.26,0.765,0.631,1.413,1.111,1.943c0.482,0.529,1.064,0.937,1.748,1.22c0.686,0.284,1.457,0.425,2.312,0.425
		c0.859,0,1.631-0.141,2.314-0.425c0.684-0.283,1.264-0.69,1.744-1.22c0.477-0.531,0.846-1.178,1.104-1.943
		C102.584,66.325,102.715,65.461,102.715,64.498z"/>
	<path d="M114.98,55.718c1.148,0,2.133,0.11,2.949,0.328c0.818,0.219,1.488,0.531,2.01,0.936c0.523,0.405,0.906,0.894,1.148,1.469
		c0.244,0.576,0.365,1.223,0.365,1.943c0,0.413-0.061,0.807-0.184,1.184c-0.119,0.376-0.309,0.729-0.564,1.056
		c-0.254,0.328-0.578,0.626-0.971,0.893c-0.395,0.267-0.859,0.494-1.402,0.68c2.412,0.542,3.617,1.846,3.617,3.911
		c0,0.744-0.141,1.432-0.424,2.064c-0.285,0.632-0.697,1.176-1.24,1.633c-0.541,0.458-1.207,0.816-2.002,1.074
		c-0.795,0.259-1.701,0.389-2.721,0.389h-6.631V55.718H114.98z M112.199,58.244v5.076h2.6c1.115,0,1.959-0.202,2.531-0.607
		c0.57-0.405,0.855-1.049,0.855-1.931c0-0.914-0.258-1.566-0.777-1.955c-0.52-0.389-1.328-0.583-2.428-0.583H112.199z
		 M115.502,70.727c0.607,0,1.117-0.072,1.531-0.218c0.412-0.146,0.742-0.34,0.988-0.583c0.248-0.243,0.426-0.526,0.535-0.85
		c0.109-0.323,0.164-0.667,0.164-1.032c0-0.38-0.062-0.723-0.184-1.026c-0.119-0.304-0.311-0.563-0.57-0.777
		c-0.26-0.214-0.594-0.378-1.002-0.492s-0.9-0.17-1.475-0.17h-3.291v5.148H115.502z"/>
</g>
</svg>
