<?xml version="1.0" encoding="utf-8"?>
<!-- Generator: Adobe Illustrator 16.0.0, SVG Export Plug-In . SVG Version: 6.00 Build 0)  -->
<!DOCTYPE svg PUBLIC "-//W3C//DTD SVG 1.1//EN" "http://www.w3.org/Graphics/SVG/1.1/DTD/svg11.dtd">
<svg version="1.1" id="Layer_1" xmlns="http://www.w3.org/2000/svg" xmlns:xlink="http://www.w3.org/1999/xlink" x="0px" y="0px"
	 width="70px" height="70px" viewBox="0 0 70 70" enable-background="new 0 0 70 70" xml:space="preserve">
<path fill="#FFFFFF" d="M49.858,40.896c-0.346-1.254-0.82-2.471-1.338-3.664c-1.195-2.758-2.758-5.375-4.682-7.688
	c-1.648-1.983-3.732-3.833-6.214-4.675c0.187-0.191,0.372-0.385,0.556-0.578c1.055-1.107,2.084-2.242,3.103-3.384
	c0.465-0.521,0.926-1.045,1.381-1.574c0.267-0.311,0.679-0.668,0.66-1.106c-0.026-0.586-0.24-1.124-0.677-1.525
	c-0.518-0.476-1.248-0.663-1.896-0.398c-0.489,0.2-0.979,0.399-1.468,0.599c-0.571,0.233-1.143,0.466-1.713,0.7
	C37.19,17.401,36.808,17.2,36.426,17c-0.335-0.176-0.671-0.353-1.004-0.53c-0.418-0.22-0.781-0.416-1.272-0.182
	c-0.917,0.437-1.834,0.874-2.752,1.311c-0.695-0.323-1.391-0.646-2.085-0.97c-0.389-0.181-0.864-0.481-1.3-0.461
	c-0.541,0.024-1.057,0.275-1.421,0.671c-0.406,0.442-0.745,1.284-0.414,1.85c0.109,0.187,0.293,0.364,0.433,0.527
	c0.266,0.313,0.533,0.625,0.801,0.937c0.795,0.925,1.598,1.843,2.413,2.75c0.652,0.725,1.302,1.492,2.021,2.17
	c-0.88,0.351-1.72,0.83-2.494,1.401c-2.449,1.807-4.351,4.286-5.905,6.88c-1.407,2.348-2.59,4.902-3.329,7.542
	c-0.51,1.82-0.619,3.645-0.157,5.488c0.516,2.064,1.828,3.76,3.585,4.932c2.688,1.793,6.138,2.281,9.29,2.455
	c2.152,0.119,4.328,0.071,6.466-0.188c1.652-0.2,3.295-0.521,4.852-1.123c2.017-0.781,3.853-2.027,4.978-3.913
	c0.868-1.452,1.198-3.165,1.201-4.841C50.327,42.76,50.11,41.807,49.858,40.896z M41.364,18.021
	c0.004,0.002,0.007,0.004,0.011,0.007l0,0C41.371,18.025,41.367,18.024,41.364,18.021L41.364,18.021z M28.087,17.982
	c-0.003,0.002-0.006,0.003-0.008,0.004l0,0C28.082,17.986,28.083,17.984,28.087,17.982z M27.873,18.198c0,0,0-0.002,0.001-0.003l0,0
	C27.873,18.196,27.873,18.196,27.873,18.198z M28.007,18.037c0.43,0.2,0.859,0.4,1.289,0.6c0.376,0.175,0.753,0.35,1.13,0.525
	c0.231,0.108,0.486,0.264,0.733,0.332c0.392,0.108,0.745-0.111,1.085-0.272c0.363-0.173,0.726-0.346,1.088-0.519
	c0.419-0.199,0.838-0.398,1.256-0.598c0.481,0.253,0.961,0.507,1.442,0.759c0.318,0.167,0.635,0.334,0.953,0.501
	c0.334,0.175,0.638,0.186,0.969,0.05c0.812-0.331,1.623-0.662,2.434-0.993c0.322-0.132,0.646-0.264,0.969-0.396
	c0.002,0.003,0.008,0.007,0.013,0.012c-1.07,1.25-2.175,2.47-3.289,3.679c-0.595,0.645-1.192,1.287-1.808,1.911
	c-0.207,0.21-0.414,0.419-0.631,0.618c-0.007,0.006-0.014,0.012-0.02,0.019h-1.932c-0.096-0.081-0.189-0.167-0.281-0.252
	c-0.359-0.334-0.699-0.69-1.037-1.046C30.862,21.374,29.429,19.708,28.007,18.037z M48.424,44.999
	C48.438,44.884,48.433,44.939,48.424,44.999L48.424,44.999z M48.431,44.945c-0.004,0.029-0.007,0.061-0.011,0.091
	c0,0.005-0.001,0.01-0.002,0.014c-0.015,0.101-0.032,0.201-0.05,0.3c-0.039,0.217-0.09,0.435-0.146,0.648
	c-0.053,0.2-0.113,0.396-0.183,0.593c-0.034,0.097-0.071,0.192-0.108,0.286c-0.025,0.059-0.053,0.117-0.08,0.175
	c-0.193,0.414-0.432,0.806-0.701,1.173c-0.002,0.002-0.006,0.006-0.008,0.01c-0.031,0.039-0.063,0.08-0.096,0.119
	c-0.074,0.088-0.152,0.176-0.23,0.264c-0.178,0.193-0.366,0.376-0.562,0.551c-0.094,0.083-0.191,0.164-0.291,0.244
	c-0.007,0.007-0.013,0.012-0.02,0.016c-0.053,0.04-0.105,0.078-0.158,0.116c-0.242,0.175-0.495,0.334-0.752,0.483
	c-0.256,0.149-0.518,0.285-0.785,0.412c-0.117,0.057-0.236,0.108-0.355,0.162c0,0-0.134,0.056-0.149,0.062
	c-0.103,0.041-0.205,0.08-0.308,0.119c-0.711,0.265-1.443,0.466-2.183,0.631c-1.87,0.418-3.75,0.549-5.704,0.575
	c-2.023,0.029-4.099-0.071-6.026-0.416c-0.787-0.141-1.565-0.328-2.327-0.568c-0.323-0.102-0.643-0.217-0.958-0.341
	c-0.013-0.005-0.103-0.042-0.138-0.058c-0.052-0.022-0.105-0.045-0.157-0.068c-0.163-0.073-0.324-0.15-0.482-0.23
	c-0.494-0.248-0.966-0.539-1.41-0.869c0.018,0.01-0.188-0.153-0.228-0.188c-0.095-0.081-0.187-0.164-0.277-0.249
	c-0.188-0.176-0.367-0.365-0.537-0.56c-0.053-0.062-0.104-0.125-0.155-0.188c0.026,0.031-0.122-0.167-0.153-0.211
	c-0.136-0.196-0.26-0.399-0.375-0.606c-0.101-0.182-0.192-0.369-0.276-0.561c-0.018-0.046-0.036-0.092-0.053-0.137
	c-0.043-0.113-0.083-0.229-0.121-0.344c-0.134-0.406-0.229-0.822-0.298-1.244c-0.006-0.041-0.013-0.082-0.018-0.121
	c-0.012-0.096-0.022-0.189-0.031-0.284c-0.021-0.214-0.033-0.431-0.04-0.646c-0.012-0.354-0.001-0.705,0.038-1.057
	c0.009-0.061,0.024-0.169,0.03-0.207c0.018-0.107,0.039-0.216,0.06-0.324c0.049-0.254,0.108-0.506,0.172-0.756
	c0.292-1.156,0.703-2.281,1.16-3.382c0.014-0.033,0.055-0.129,0.06-0.142c0.033-0.076,0.066-0.15,0.099-0.228
	c0.068-0.153,0.137-0.306,0.207-0.458c0.155-0.338,0.316-0.673,0.482-1.006c0.33-0.662,0.683-1.312,1.053-1.952
	c0.38-0.653,0.784-1.292,1.209-1.917c0.448-0.657,0.827-1.162,1.264-1.696c0.465-0.568,0.96-1.113,1.482-1.629
	c0.243-0.241,0.495-0.473,0.752-0.699c0.126-0.112,0.255-0.22,0.385-0.327c0.064-0.053,0.13-0.105,0.195-0.157
	c0.01-0.008,0.019-0.015,0.026-0.021c0.039-0.03,0.077-0.059,0.116-0.087c0.535-0.399,1.102-0.754,1.697-1.055
	c0.138-0.07,0.278-0.135,0.419-0.198c0.009-0.004,0.016-0.007,0.023-0.011c0.011-0.004,0.023-0.009,0.041-0.016
	c0.07-0.029,0.142-0.056,0.213-0.083c0.306-0.115,0.619-0.208,0.936-0.285c0.146-0.035,0.292-0.064,0.439-0.09
	c0.04-0.007,0.082-0.013,0.123-0.02c0.017-0.001,0.125-0.016,0.15-0.018c0.321-0.034,0.646-0.04,0.97-0.027
	c0.148,0.006,0.296,0.019,0.445,0.035c0.014,0.001,0.025,0.003,0.035,0.003c0.006,0,0.01,0.001,0.016,0.002
	c0.074,0.011,0.146,0.024,0.22,0.037c0.319,0.058,0.634,0.14,0.943,0.238c0.145,0.045,0.288,0.097,0.429,0.15
	c0.045,0.017,0.09,0.035,0.135,0.053c0.018,0.008,0.123,0.052,0.141,0.061c0.31,0.137,0.609,0.296,0.902,0.465
	c0.278,0.16,0.549,0.335,0.812,0.517c0.378,0.262,0.417,0.296,0.734,0.557c0.551,0.455,1.067,0.952,1.56,1.47
	c0.243,0.257,0.478,0.521,0.708,0.789c0.115,0.136,0.23,0.274,0.344,0.412c0.057,0.069,0.113,0.14,0.169,0.209
	c0.015,0.018,0.136,0.172,0.155,0.197c0.914,1.187,1.72,2.454,2.447,3.761c0.465,0.836,0.893,1.691,1.285,2.562
	c0.084,0.187,0.164,0.373,0.244,0.561c0.018,0.042,0.076,0.182,0.084,0.202c0.051,0.123,0.102,0.245,0.15,0.37
	c0.159,0.4,0.309,0.806,0.449,1.214c0.238,0.69,0.445,1.393,0.605,2.106c0.033,0.147,0.063,0.297,0.092,0.445
	c0.013,0.07,0.056,0.355,0.062,0.383c0.024,0.215,0.04,0.432,0.041,0.647C48.496,44.121,48.476,44.534,48.431,44.945z
	 M38.976,40.093c-0.183-0.106-0.381-0.207-0.595-0.298c-0.213-0.091-0.442-0.174-0.687-0.25c-0.17-0.053-0.385-0.109-0.639-0.169
	c-0.257-0.06-0.556-0.131-0.896-0.217c-0.896-0.218-2.433-0.612-2.433-0.612l-0.475-0.113c-0.281-0.063-0.543-0.203-0.787-0.418
	c-0.232-0.203-0.345-0.414-0.338-0.629c0.006-0.214,0.021-0.392,0.046-0.531v0.016c0.085-0.344,0.271-0.637,0.558-0.878
	s0.619-0.405,0.997-0.491c0,0,1.328-0.186,2.433,0.016c0.394,0.072,0.692,0.271,0.905,0.557s0.332,0.707,0.355,1.265
	c0.014,0.129,0.07,0.247,0.174,0.354s0.24,0.16,0.411,0.16h1.208c0.281,0,0.445-0.063,0.494-0.193
	c0.048-0.129,0.079-0.273,0.091-0.436c0.024-0.623-0.079-1.193-0.311-1.716c-0.231-0.52-0.556-0.926-0.97-1.217
	c-0.342-0.236-0.713-0.432-1.115-0.587c-0.403-0.155-0.818-0.26-1.244-0.314v-0.854c0-0.129-0.059-0.247-0.174-0.354
	c-0.116-0.108-0.26-0.161-0.43-0.161h-1.243c-0.172,0-0.312,0.053-0.422,0.161c-0.109,0.107-0.164,0.226-0.164,0.354v0.854
	c-0.475,0.043-0.93,0.148-1.363,0.314c-0.433,0.167-0.823,0.384-1.17,0.653c-0.347,0.268-0.643,0.58-0.887,0.934
	c-0.245,0.354-0.409,0.741-0.494,1.16l0.018-0.017c-0.061,0.215-0.094,0.412-0.101,0.588c-0.006,0.178-0.008,0.353-0.008,0.523
	v0.227c0,0.473,0.112,0.877,0.338,1.216s0.524,0.626,0.896,0.862c0.371,0.236,0.798,0.433,1.28,0.588
	c0.481,0.156,0.978,0.293,1.49,0.412c0,0,1.859,0.349,2.433,0.498c0.303,0.08,0.573,0.15,0.804,0.227
	c0.232,0.076,0.421,0.167,0.568,0.273c0.072,0.064,0.13,0.14,0.174,0.226c0.042,0.086,0.072,0.172,0.09,0.258
	c0.02,0.086,0.025,0.169,0.02,0.25s-0.01,0.147-0.01,0.201s-0.003,0.106-0.01,0.161c-0.005,0.054-0.016,0.106-0.027,0.162
	c-0.072,0.343-0.256,0.631-0.549,0.86c-0.292,0.232-0.646,0.39-1.061,0.476c0,0-1.208,0.217-2.433,0.017
	c-0.393-0.063-0.722-0.233-0.997-0.476c-0.275-0.241-0.455-0.528-0.54-0.861c-0.013-0.107-0.021-0.196-0.028-0.266
	c-0.005-0.07-0.009-0.127-0.009-0.17v-0.273c0-0.055-0.019-0.135-0.055-0.241c-0.073-0.258-0.256-0.387-0.548-0.387h-1.244
	c-0.281,0-0.448,0.065-0.503,0.192c-0.055,0.129-0.082,0.273-0.082,0.436c0,0.184,0.002,0.359,0.008,0.531
	c0.007,0.172,0.046,0.42,0.12,0.74c0.073,0.355,0.244,0.705,0.512,1.047c0.353,0.516,0.826,0.93,1.417,1.24
	c0.592,0.312,1.24,0.494,1.948,0.549v0.789c0,0.129,0.055,0.248,0.164,0.354c0.11,0.107,0.25,0.161,0.422,0.161h1.242
	c0.17,0,0.313-0.054,0.43-0.161c0.117-0.107,0.175-0.227,0.175-0.354v-0.773c0.549-0.043,1.049-0.135,1.5-0.273
	c0.45-0.141,0.853-0.35,1.207-0.629c0.208-0.16,0.396-0.361,0.567-0.604c0.17-0.241,0.316-0.504,0.438-0.789
	c0.122-0.284,0.217-0.583,0.284-0.895c0.066-0.312,0.1-0.623,0.1-0.935c0-0.547-0.119-1.015-0.355-1.401
	C39.662,40.625,39.353,40.318,38.976,40.093z"/>
</svg>
