<?xml version="1.0" encoding="utf-8"?>
<!-- Generator: Adobe Illustrator 16.0.0, SVG Export Plug-In . SVG Version: 6.00 Build 0)  -->
<!DOCTYPE svg PUBLIC "-//W3C//DTD SVG 1.1//EN" "http://www.w3.org/Graphics/SVG/1.1/DTD/svg11.dtd">
<svg version="1.1" id="Layer_1" xmlns="http://www.w3.org/2000/svg" xmlns:xlink="http://www.w3.org/1999/xlink" x="0px" y="0px"
	 width="70px" height="70px" viewBox="-528.5 300.5 70 70" enable-background="new -528.5 300.5 70 70" xml:space="preserve">
<path d="M-509.936,339.025c-0.923,0.858-0.809,2.328,0,3.199c0.804,0.865,2.141,0.823,3.026,0.152
	c0.061-0.039,0.12-0.086,0.178-0.152c0.059-0.05,0.107-0.112,0.143-0.165c0.713-0.923,0.669-2.157-0.143-3.034
	C-507.592,338.105-509.059,338.21-509.936,339.025z M-507.96,341.005c-0.5,0.47-1.216-0.243-0.748-0.747
	C-508.238,339.75-507.492,340.501-507.96,341.005z M-477.601,321.321c0.319-0.835-0.269-1.751-0.917-2.221
	c-0.265-0.196-0.604-0.263-0.924-0.332c-0.834-0.185-1.662-0.369-2.496-0.545c-0.496-0.11-0.997-0.222-1.493-0.332
	c0.006-0.024,0.008-0.059,0.012-0.091c0.131-0.86-0.371-1.728-1.164-2.078c-0.369-0.161-0.743-0.218-1.138-0.218h-8.822
	c-0.679,0-1.383-0.061-2.017,0.218c-0.934,0.404-1.25,1.331-1.161,2.262c0.33,3.297,0.659,6.602,0.989,9.898
	c-1.412,0.91-2.829,1.833-4.241,2.744c-0.805,0.529-1.615,1.047-2.421,1.566c-0.149,0.101-0.295,0.193-0.445,0.295
	c-0.527,0.343-0.496,1.108-0.567,1.669c-0.044,0.362-0.078,0.726-0.101,1.099h-8.114c-0.475,0-0.87,0.393-0.87,0.863v17.558
	c0,0.472,0.396,0.864,0.87,0.864h9.053c0.119,0,0.229-0.016,0.323-0.053c0.668,0.652,1.511,1.012,2.477,1.012h18.286
	c1.246,0,2.338-0.453,3.099-1.444c0.85-1.119,0.777-2.81,0.24-4.03c-0.158-0.368-0.371-0.707-0.628-1.025
	c1.283-1.465,1.381-3.938,0.032-5.299c0.577-0.743,0.968-1.65,0.989-2.577c0.025-0.931-0.421-1.821-1.055-2.51
	c0.694-0.822,1.135-1.909,1.042-2.96c-0.152-1.668-1.445-2.975-3.049-3.24c0.927-2.451,1.859-4.896,2.788-7.35
	C-478.545,323.816-478.073,322.568-477.601,321.321z M-511.754,352.811v-15.826h7.191c-0.004,0.713,0.002,1.438,0.002,2.15v11.81
	c0,0.644,0.079,1.274,0.274,1.866H-511.754L-511.754,352.811z M-480.851,321.011C-480.851,321.035-480.853,321.033-480.851,321.011
	L-480.851,321.011z M-485.046,328.701C-485.046,328.703-485.046,328.703-485.046,328.701c0.079,0.08,0.052,0.045,0.135,0.191
	c0.075,0.12,0.101,0.235,0.101,0.408c0,0.091-0.056,0.253-0.097,0.332c0,0-0.112,0.159-0.096,0.149
	c-0.065,0.079-0.143,0.14-0.222,0.211c0.016-0.011,0.005-0.009-0.016-0.001C-485.175,329.562-485.109,329.133-485.046,328.701z
	 M-486.572,317.765C-486.572,317.788-486.574,317.784-486.572,317.765L-486.572,317.765z M-486.572,317.764
	c0.002-0.014,0.006-0.042,0.021-0.072c0.016-0.014,0.021-0.029,0.025-0.045c0.039-0.039,0.084-0.078,0.126-0.113
	c-0.11,0.102,0.231-0.088,0.115-0.047c0.167-0.066,0.195-0.064,0.378-0.064c0.191,0,0.307,0.059,0.507,0.186
	c-0.112-0.074,0.151,0.218,0.061,0.076c0.07,0.108,0.039,0.028,0.039,0.125c-0.002,0.021-0.006,0.041-0.022,0.071
	c-0.014,0.023-0.021,0.034-0.031,0.044c-0.032,0.039-0.078,0.078-0.119,0.113c0.111-0.092-0.226,0.099-0.115,0.047
	c-0.166,0.066-0.196,0.064-0.378,0.064c-0.194-0.008-0.299-0.045-0.506-0.186c0.113,0.074-0.151-0.207-0.06-0.077
	C-486.604,317.788-486.572,317.867-486.572,317.764z M-485.3,317.807C-485.3,317.792-485.298,317.795-485.3,317.807L-485.3,317.807z
	 M-495.673,317.765C-495.673,317.788-495.674,317.784-495.673,317.765L-495.673,317.765z M-495.672,317.764
	c0.001-0.014,0.01-0.042,0.021-0.072c0.015-0.014,0.021-0.029,0.032-0.045c0.039-0.039,0.078-0.078,0.119-0.113
	c-0.111,0.102,0.23-0.088,0.114-0.047c0.167-0.066,0.197-0.064,0.378-0.064c0.193,0,0.307,0.059,0.507,0.186
	c-0.112-0.074,0.149,0.218,0.059,0.076c0.072,0.108,0.041,0.028,0.039,0.125c-0.002,0.021-0.004,0.041-0.021,0.071
	c-0.015,0.023-0.022,0.034-0.026,0.044c-0.038,0.039-0.078,0.078-0.126,0.113c0.111-0.092-0.226,0.099-0.108,0.047
	c-0.171,0.066-0.202,0.064-0.384,0.064c-0.195-0.008-0.298-0.045-0.507-0.186c0.112,0.074-0.146-0.207-0.059-0.077
	C-495.7,317.788-495.673,317.867-495.672,317.764z M-494.401,317.807C-494.4,317.792-494.399,317.795-494.401,317.807
	L-494.401,317.807z M-495.245,319.865c0.057,0.008,0.116,0.014,0.178,0.014c0.036,0.002,0.071,0,0.101-0.002
	c1.182-0.045,2.217-0.821,2.299-2.049c0.017-0.214-0.007-0.41-0.062-0.584h4.521c-0.049,0.162-0.084,0.328-0.099,0.51
	c-0.081,1.213,1.091,1.987,2.163,2.113c0.056,0.007,0.115,0.013,0.177,0.013c0.036,0.002,0.072,0,0.101-0.002
	c0.139-0.004,0.273-0.015,0.405-0.044c-0.04,0.277-0.081,0.555-0.128,0.832c-0.551,3.705-1.104,7.41-1.661,11.115
	c0,0.012-0.002,0.031-0.004,0.045c-0.002,0.013-0.004,0.035-0.006,0.048c-0.015,0.062-0.022,0.117-0.022,0.184
	c-0.005,0.03-0.005,0.044-0.005,0.054c-0.005,0.017-0.013,0.033-0.031,0.082c0.038-0.117-0.077,0.075-0.032,0.031
	c-0.067,0.08-0.143,0.112-0.255,0.145c0.037-0.008-0.138,0.002-0.195,0.002h-6.388c-0.196,0-0.319-0.103-0.374-0.23
	c0.001-0.008-0.021-0.113-0.024-0.145c-0.017-0.166-0.034-0.333-0.052-0.509c-0.39-3.915-0.78-7.828-1.17-11.741
	C-495.621,319.797-495.435,319.839-495.245,319.865z M-481.349,334.4c0.304,0.172,0.618,0.553,0.729,0.828
	c0.199,0.498,0.187,0.863,0.014,1.374c-0.039,0.121-0.162,0.353-0.28,0.542c-0.055,0.086-0.114,0.166-0.175,0.257
	c0.044-0.067-0.111,0.126-0.131,0.142c-0.143,0.175-0.302,0.337-0.476,0.471c-0.452,0.371-0.252,1.031,0.135,1.328
	c-0.16-0.12,0.006,0.016,0.063,0.061c0.16,0.133,0.31,0.283,0.448,0.441c0.108,0.119,0.252,0.333,0.389,0.594
	c0.08,0.167,0.152,0.465,0.156,0.687c0.004,0.206-0.083,0.558-0.156,0.717c-0.121,0.272-0.286,0.532-0.463,0.771
	c0.049-0.068-0.138,0.162-0.166,0.197c-0.07,0.077-0.137,0.15-0.208,0.225c-0.063,0.059-0.133,0.125-0.197,0.188
	c-0.543,0.456-0.173,1.23,0.385,1.448c-0.364-0.143-0.109-0.053,0.002,0.014c0.058,0.034,0.114,0.074,0.165,0.11
	c0.048,0.037,0.088,0.077,0.129,0.116c0.026,0.02,0.16,0.176,0.16,0.168c0.074,0.107,0.136,0.221,0.193,0.334
	c0.004,0.008,0.013,0.014,0.017,0.021c0.003,0.021,0.009,0.036,0.022,0.073c0.028,0.082,0.05,0.18,0.074,0.264
	c0.045,0.188,0.043,0.248,0.045,0.479c0.004,0.316-0.049,0.579-0.166,0.903c0.015-0.046-0.064,0.144-0.066,0.147
	c-0.037,0.075-0.076,0.146-0.118,0.207c-0.038,0.07-0.081,0.135-0.123,0.191c-0.003,0.005-0.003,0.007-0.011,0.021
	c-0.007,0.006-0.017,0.013-0.025,0.023c-0.111,0.138-0.232,0.256-0.357,0.368c-0.038,0.021-0.111,0.081-0.148,0.097
	c-0.57,0.338-0.528,1.083-0.056,1.463c0.041,0.023,0.087,0.061,0.126,0.096c0.078,0.073,0.146,0.15,0.222,0.228
	c0.042,0.042,0.083,0.089,0.123,0.146c0.014,0.008,0.019,0.015,0.027,0.021c0.021,0.03,0.039,0.06,0.057,0.081
	c0.215,0.307,0.306,0.525,0.397,0.801c0.136,0.412,0.14,0.764,0.097,1.223c-0.056,0.584-0.39,1.02-0.857,1.281
	c-0.006,0.004-0.121,0.051-0.141,0.06c-0.061,0.026-0.125,0.051-0.186,0.063c-0.081,0.027-0.162,0.042-0.245,0.057
	c-0.03,0.012-0.05,0.016-0.065,0.018c-0.011,0.002-0.028,0.004-0.048,0.006c-0.131,0.01-0.257,0.012-0.387,0.012h-18.244
	c-0.708,0-1.186-0.182-1.605-0.763c-0.477-0.667-0.553-1.369-0.553-2.185v-13.898c0-0.439,0.005-0.879,0.028-1.328
	c0.03-0.514,0.077-1.028,0.145-1.54c0.003-0.026,0.022-0.176,0.026-0.195c0.003-0.032,0.012-0.065,0.016-0.099
	c2.028-1.305,4.05-2.621,6.077-3.928c0.003,0.052,0.008,0.103,0.018,0.164c0.06,0.618,0.122,1.227,0.182,1.845
	c0.02,0.217,0.023,0.434,0.071,0.646c0.144,0.666,0.627,1.188,1.234,1.449c0.134,0.1,0.31,0.171,0.53,0.171h12.099
	C-482.014,334.101-481.678,334.205-481.349,334.4z M-481.449,349.748C-481.42,349.758-481.414,349.767-481.449,349.748
	L-481.449,349.748z M-481.173,325.863c-0.823,2.172-1.644,4.334-2.468,6.506h-1.949c0.017-0.086,0.03-0.184,0.035-0.273
	c0.006-0.046,0.017-0.102,0.021-0.146c1.291-0.277,2.381-1.226,2.457-2.65c0.062-1.148-0.716-2.01-1.692-2.469
	c0.253-1.689,0.508-3.378,0.759-5.076c0.11-0.713,0.214-1.425,0.319-2.146c0.496,0.109,0.987,0.219,1.477,0.329
	c-0.211,0.298-0.347,0.669-0.371,1.063c-0.082,1.212,1.091,1.988,2.157,2.113c0.057,0.007,0.117,0.012,0.183,0.012
	c0.032,0.002,0.066,0.002,0.101-0.001c0.004,0,0.006-0.001,0.012-0.001C-480.477,324.043-480.825,324.953-481.173,325.863z
	 M-479.58,321.055C-479.578,321.039-479.578,321.042-479.58,321.055L-479.58,321.055z M-479.58,321.056
	c0,0.022-0.007,0.052-0.021,0.071c-0.015,0.023-0.021,0.035-0.031,0.044c-0.037,0.04-0.079,0.079-0.121,0.115
	c0.111-0.093-0.23,0.098-0.113,0.057c-0.166,0.057-0.196,0.054-0.38,0.054c-0.194-0.007-0.303-0.043-0.506-0.185
	c0.106,0.074-0.15-0.208-0.06-0.077c-0.071-0.098-0.041-0.018-0.039-0.123c0.002-0.013,0.005-0.041,0.021-0.062
	c0.01-0.023,0.022-0.033,0.026-0.054c0.038-0.04,0.078-0.078,0.124-0.114c-0.109,0.103,0.227-0.088,0.111-0.047
	c0.171-0.057,0.196-0.054,0.382-0.054c0.193-0.001,0.307,0.049,0.509,0.175c-0.114-0.074,0.145,0.218,0.059,0.078
	C-479.553,321.039-479.578,320.96-479.58,321.056z M-490.923,331.76c0.036,0.003,0.074,0.015,0.113,0.015
	c1.607,0.006,3.179-1.032,3.264-2.733c0.093-1.716-1.66-2.787-3.171-2.846c-1.611-0.071-3.18,1.066-3.271,2.73
	C-494.072,330.604-492.409,331.656-490.923,331.76z M-492.156,328.595c0,0,0.112-0.158,0.096-0.14
	c0.071-0.077,0.149-0.15,0.228-0.22c-0.055,0.048,0.166-0.095,0.149-0.089c0.127-0.074,0.15-0.077,0.251-0.113
	c0.271-0.1,0.443-0.109,0.715-0.109c0.217,0.002,0.379,0.043,0.609,0.118c0.037,0.009,0.062,0.023,0.078,0.027
	c0.004,0.005,0.024,0.015,0.082,0.046c0.039,0.014,0.249,0.151,0.235,0.131c0.073,0.062,0.137,0.131,0.196,0.189
	c0.079,0.078,0.052,0.043,0.136,0.189c0.074,0.119,0.1,0.234,0.1,0.419c0,0.079-0.05,0.243-0.091,0.323c0,0-0.113,0.158-0.097,0.147
	c-0.068,0.077-0.147,0.15-0.227,0.211c0.056-0.048-0.171,0.104-0.154,0.098c-0.123,0.064-0.146,0.078-0.251,0.114
	c-0.265,0.09-0.438,0.1-0.709,0.098c-0.22-0.006-0.378-0.041-0.61-0.117c-0.039-0.008-0.062-0.015-0.078-0.017
	c-0.004-0.015-0.029-0.023-0.082-0.057c-0.039-0.014-0.249-0.14-0.234-0.131c-0.075-0.062-0.137-0.122-0.204-0.19
	c-0.076-0.078-0.045-0.043-0.134-0.189c-0.07-0.118-0.101-0.233-0.101-0.408C-492.253,328.848-492.197,328.673-492.156,328.595z"/>
</svg>
