<?xml version="1.0" encoding="utf-8"?>
<!-- Generator: Adobe Illustrator 16.0.0, SVG Export Plug-In . SVG Version: 6.00 Build 0)  -->
<!DOCTYPE svg PUBLIC "-//W3C//DTD SVG 1.1//EN" "http://www.w3.org/Graphics/SVG/1.1/DTD/svg11.dtd">
<svg version="1.1" id="Layer_1" xmlns="http://www.w3.org/2000/svg" xmlns:xlink="http://www.w3.org/1999/xlink" x="0px" y="0px"
	 width="90.489px" height="130.051px" viewBox="0 0 90.489 130.051" enable-background="new 0 0 90.489 130.051"
	 xml:space="preserve">
<g>
	<path d="M90.489,130.051H2.556v-17.446l41.5-44.231c5.697-6.226,9.913-11.659,12.644-16.3c2.731-4.64,4.097-9.045,4.097-13.216
		c0-5.697-1.44-10.177-4.317-13.437c-2.879-3.26-6.991-4.89-12.335-4.89c-5.757,0-10.295,1.982-13.613,5.947
		c-3.319,3.965-4.978,9.179-4.978,15.64H0c0-7.812,1.864-14.948,5.595-21.411c3.729-6.461,9.001-11.527,15.816-15.199
		C28.225,1.836,35.949,0,44.584,0C57.8,0,68.065,3.172,75.378,9.516c7.313,6.344,10.969,15.302,10.969,26.874
		c0,6.344-1.645,12.806-4.934,19.384c-3.291,6.579-8.929,14.245-16.917,22.997l-29.165,30.75h55.157V130.051z"/>
</g>
</svg>
