<?xml version="1.0" encoding="utf-8"?>
<!-- Generator: Adobe Illustrator 16.0.0, SVG Export Plug-In . SVG Version: 6.00 Build 0)  -->
<!DOCTYPE svg PUBLIC "-//W3C//DTD SVG 1.1//EN" "http://www.w3.org/Graphics/SVG/1.1/DTD/svg11.dtd">
<svg version="1.1" id="Layer_6" xmlns="http://www.w3.org/2000/svg" xmlns:xlink="http://www.w3.org/1999/xlink" x="0px" y="0px"
	 width="70px" height="70px" viewBox="0 0 70 70" enable-background="new 0 0 70 70" xml:space="preserve">
<path fill="#FFFFFF" d="M34.999,43.604c5.754,0,10.437-4.683,10.438-10.437c0-3.436-1.834-5.931-3.608-8.343
	c-2.015-2.74-3.919-5.329-3.481-9.368c0.041-0.382-0.132-0.751-0.449-0.964c-0.313-0.211-0.733-0.229-1.063-0.05
	c-0.17,0.093-4.179,2.343-4.431,6.377c-0.018,0.274,0.074,0.539,0.256,0.745c0.182,0.206,0.433,0.328,0.707,0.345
	c0.001,0,0.002,0,0.004,0c0.605,0,1.053-0.423,1.086-0.962c0.066-1.05,0.518-2.065,1.342-3.017l0.438-0.506l0.086,0.664
	c0.427,3.295,2.246,5.77,3.851,7.953c1.722,2.342,3.206,4.365,3.206,7.126c0,4.621-3.759,8.381-8.38,8.381
	c-4.62,0-8.38-3.76-8.38-8.381c0-1.423,0.886-2.461,1.911-3.663c0.884-1.036,1.88-2.202,2.224-3.707l0.127-0.555l0.387,0.418
	c1.437,1.557,2.904,4.368,1.738,8.912c-0.14,0.548,0.193,1.11,0.742,1.251c0.541,0.135,1.114-0.203,1.252-0.742
	c2.387-9.309-4.915-12.886-4.989-12.921c-0.138-0.064-0.284-0.097-0.435-0.097c-0.253,0-0.496,0.093-0.685,0.261
	c-0.308,0.273-0.421,0.703-0.291,1.093c0.647,1.943-0.198,3.07-1.634,4.749c-1.127,1.321-2.404,2.817-2.404,4.998
	C24.562,38.921,29.244,43.604,34.999,43.604z"/>
<path fill="#FFFFFF" d="M45.898,52.794l-8.931-4.232l8.931-4.233c0.42-0.199,0.601-0.702,0.402-1.121
	c-0.194-0.407-0.711-0.6-1.124-0.402l-10.178,4.824l-10.177-4.824c-0.114-0.055-0.234-0.083-0.36-0.083
	c-0.325,0-0.625,0.189-0.763,0.482c-0.198,0.421-0.018,0.925,0.402,1.125l8.931,4.232L24.1,52.794
	c-0.42,0.2-0.599,0.704-0.401,1.125c0.193,0.405,0.72,0.596,1.122,0.399l10.178-4.823l10.179,4.823
	c0.411,0.197,0.93,0.005,1.123-0.401C46.499,53.498,46.318,52.994,45.898,52.794z"/>
</svg>
