<?xml version="1.0" encoding="utf-8"?>
<!-- Generator: Adobe Illustrator 16.0.0, SVG Export Plug-In . SVG Version: 6.00 Build 0)  -->
<!DOCTYPE svg PUBLIC "-//W3C//DTD SVG 1.1//EN" "http://www.w3.org/Graphics/SVG/1.1/DTD/svg11.dtd">
<svg version="1.1" id="Layer_1" xmlns="http://www.w3.org/2000/svg" xmlns:xlink="http://www.w3.org/1999/xlink" x="0px" y="0px"
	 width="50px" height="50px" viewBox="0 0 50 50" enable-background="new 0 0 50 50" xml:space="preserve">
<g>
	<path fill="#FFFFFF" d="M8.859,14.887c1.522,0.595,3.376,0.044,4.405-1.195c1.094-1.317,1.243-3.187,0.369-4.656
		c-0.876-1.485-2.613-2.151-4.271-1.853C7.544,7.52,6.261,9.223,6.193,11.016c-0.002,0.03-0.004,0.06-0.004,0.096
		C6.214,12.832,7.272,14.268,8.859,14.887z M8.416,9.443c0.426-0.46,1.025-0.73,1.6-0.771c0.647-0.044,1.271,0.161,1.722,0.537
		c0.493,0.408,0.817,0.998,0.882,1.537c0.095,0.723-0.068,1.271-0.483,1.859c-0.324,0.459-0.902,0.784-1.516,0.913
		c-1.22,0.261-2.463-0.605-2.789-1.819c-0.063-0.234-0.069-0.322-0.072-0.587C7.767,10.482,7.993,9.899,8.416,9.443z M13.445,26.901
		c-0.43,0-0.785,0.354-0.785,0.788v13.63h-1.676V30.365c0-0.433-0.348-0.783-0.785-0.783c-0.432,0-0.783,0.351-0.783,0.783v10.954
		H7.74v-13.63c0-0.436-0.351-0.788-0.784-0.788s-0.784,0.354-0.784,0.788v14.412c0,0.437,0.351,0.783,0.784,0.783h6.489
		c0.434,0,0.787-0.349,0.787-0.783V27.689C14.232,27.254,13.879,26.901,13.445,26.901z M13.648,16.319H10.51H9.888H6.751
		C5.234,16.319,4,17.554,4,19.071v9.866c0,0.437,0.351,0.783,0.784,0.783c0.432,0,0.783-0.349,0.783-0.783v-9.866
		c0-0.652,0.532-1.187,1.184-1.187h3.137h0.622h3.138c0.653,0,1.183,0.534,1.183,1.187v9.866c0,0.437,0.353,0.783,0.786,0.783
		c0.431,0,0.785-0.349,0.785-0.783v-9.866C16.401,17.552,15.166,16.319,13.648,16.319z"/>
	<path fill="#FFFFFF" d="M23.655,14.887c1.527,0.595,3.38,0.044,4.41-1.195c1.09-1.317,1.238-3.187,0.371-4.656
		c-0.882-1.485-2.616-2.151-4.273-1.853c-1.818,0.336-3.103,2.039-3.171,3.832c-0.001,0.03-0.001,0.06-0.001,0.096
		C21.016,12.832,22.069,14.268,23.655,14.887z M23.214,9.443c0.426-0.46,1.025-0.73,1.604-0.771
		c0.646-0.044,1.265,0.161,1.718,0.537c0.491,0.408,0.815,0.998,0.888,1.537c0.088,0.723-0.072,1.271-0.486,1.859
		c-0.328,0.459-0.904,0.784-1.515,0.913c-1.223,0.261-2.461-0.605-2.79-1.819c-0.066-0.234-0.07-0.322-0.074-0.587
		C22.566,10.482,22.792,9.899,23.214,9.443z M28.246,26.901c-0.432,0-0.785,0.354-0.785,0.788v13.63h-1.676V30.365
		c0-0.433-0.353-0.783-0.785-0.783s-0.785,0.351-0.785,0.783v10.954h-1.674v-13.63c0-0.436-0.353-0.788-0.787-0.788
		c-0.431,0-0.782,0.354-0.782,0.788v14.412c0,0.437,0.352,0.783,0.782,0.783h6.492c0.433,0,0.782-0.349,0.782-0.783V27.689
		C29.029,27.254,28.68,26.901,28.246,26.901z M28.451,16.319H25.31h-0.619H21.55c-1.515,0-2.749,1.235-2.749,2.751v9.866
		c0,0.437,0.349,0.783,0.783,0.783s0.783-0.349,0.783-0.783v-9.866c0-0.652,0.534-1.187,1.183-1.187h3.141h0.619h3.14
		c0.651,0,1.183,0.534,1.183,1.187v9.866c0,0.437,0.347,0.783,0.783,0.783c0.434,0,0.783-0.349,0.783-0.783v-9.866
		C31.2,17.552,29.966,16.319,28.451,16.319z"/>
	<path fill="#FFFFFF" d="M38.456,14.887c1.525,0.595,3.383,0.044,4.411-1.195c1.088-1.317,1.238-3.187,0.369-4.656
		c-0.88-1.485-2.614-2.151-4.274-1.853c-1.815,0.336-3.102,2.039-3.168,3.832c-0.004,0.03-0.004,0.06-0.004,0.096
		C35.816,12.832,36.871,14.268,38.456,14.887z M38.011,9.443c0.433-0.46,1.026-0.73,1.605-0.771
		c0.649-0.044,1.271,0.161,1.723,0.537c0.492,0.408,0.814,0.998,0.884,1.537c0.09,0.723-0.071,1.271-0.484,1.859
		c-0.324,0.459-0.907,0.784-1.519,0.913c-1.22,0.261-2.461-0.605-2.789-1.819c-0.059-0.234-0.068-0.322-0.072-0.587
		C37.371,10.482,37.595,9.899,38.011,9.443z M43.045,26.901c-0.436,0-0.782,0.354-0.782,0.788v13.63h-1.679V30.365
		c0-0.433-0.354-0.783-0.782-0.783c-0.438,0-0.783,0.351-0.783,0.783v10.954h-1.678v-13.63c0-0.436-0.355-0.788-0.782-0.788
		c-0.437,0-0.787,0.354-0.787,0.788v14.412c0,0.437,0.351,0.783,0.787,0.783h6.487c0.436,0,0.783-0.349,0.783-0.783V27.689
		C43.829,27.254,43.481,26.901,43.045,26.901z M43.251,16.319H40.11h-0.622h-3.136c-1.517,0-2.751,1.235-2.751,2.751v9.866
		c0,0.437,0.35,0.783,0.783,0.783c0.431,0,0.785-0.349,0.785-0.783v-9.866c0-0.652,0.53-1.187,1.183-1.187h3.136h0.622h3.141
		c0.651,0,1.183,0.534,1.183,1.187v9.866c0,0.437,0.35,0.783,0.781,0.783c0.433,0,0.785-0.349,0.785-0.783v-9.866
		C46,17.552,44.768,16.319,43.251,16.319z"/>
</g>
</svg>
