<?xml version="1.0" encoding="utf-8"?>
<!-- Generator: Adobe Illustrator 16.0.0, SVG Export Plug-In . SVG Version: 6.00 Build 0)  -->
<!DOCTYPE svg PUBLIC "-//W3C//DTD SVG 1.1//EN" "http://www.w3.org/Graphics/SVG/1.1/DTD/svg11.dtd">
<svg version="1.1" id="Layer_1" xmlns="http://www.w3.org/2000/svg" xmlns:xlink="http://www.w3.org/1999/xlink" x="0px" y="0px"
	 width="145.536px" height="175.252px" viewBox="0 0 145.536 175.252" enable-background="new 0 0 145.536 175.252"
	 xml:space="preserve">
<g>
	<g>
		<path fill="none" d="M71.897,127.572C71.942,127.272,71.92,127.415,71.897,127.572L71.897,127.572z"/>
	</g>
	<g>
		<g>
			<g>
				<rect x="47.37" y="42.638" fill="#231F20" width="4.246" height="84.766"/>
			</g>
			<g>
				<rect x="20.381" y="82.085" fill="#231F20" width="43.17" height="4.244"/>
			</g>
		</g>
		<path fill="none" d="M138.624,148.097C138.886,147.996,138.793,148.014,138.624,148.097L138.624,148.097z"/>
		<g>
			<path fill="none" d="M66.295,82.553l0.003,0.008C66.459,82.224,66.373,82.355,66.295,82.553z"/>
			<path fill="none" d="M66.28,82.467C66.386,81.873,66.294,82.186,66.28,82.467L66.28,82.467z"/>
			<path fill="none" d="M63.533,12.141h0.035c2.072,0,3.802,1.729,3.802,3.802c0,2.071-1.729,3.801-3.802,3.801h-0.035
				c-2.072,0-3.802-1.73-3.802-3.801C59.731,13.87,61.461,12.141,63.533,12.141z M42.873,12.141h9.349c4.903,0,4.903,7.603,0,7.603
				h-9.349C37.969,19.744,37.969,12.141,42.873,12.141z M57.585,157.901H41.039c-4.902,0-4.902-7.603,0-7.603h16.546
				C62.487,150.299,62.487,157.901,57.585,157.901z"/>
			<path fill="none" d="M66.44,82.467c0.053-0.063,0.007-0.013-0.062,0.075c0.026-0.033,0.049-0.056,0.061-0.074L66.44,82.467z"/>
			<path fill="none" d="M72.908,80.325C73.256,80.617,73.107,80.465,72.908,80.325L72.908,80.325z"/>
			<path fill="none" d="M69.736,133.797c0.009,0.021,0.021,0.038,0.032,0.06C69.57,133.383,69.603,133.554,69.736,133.797z"/>
			<path fill="none" d="M134.746,136.114c-2.269-9.668-4.531-19.34-6.797-29.011c-0.66-2.816-1.32-5.635-1.979-8.451
				c-0.056-0.229-0.109-0.46-0.163-0.688c-0.006-0.023-0.013-0.044-0.018-0.065c-0.004-0.008-0.011-0.02-0.011-0.02
				c-0.055-0.098-0.107-0.193-0.164-0.287c-0.026-0.027-0.05-0.057-0.082-0.086c0,0-0.005,0-0.012-0.006
				c-0.021-0.01-0.033-0.018-0.053-0.027c-0.17-0.041-0.622-0.078-0.535-0.082c-0.177-0.003-0.35-0.002-0.521,0.012
				c0.119,0.005-0.92,0.177-0.882,0.167c-0.508,0.136-1.004,0.292-1.501,0.464c-0.535,0.203-1.13,0.525-1.639,0.887
				c0.058-0.025-0.199,0.221-0.359,0.369c-0.09,0.119-0.212,0.277-0.245,0.341c-0.028,0.051-0.05,0.091-0.071,0.126v0.004
				c-0.037,0.12-0.07,0.244-0.1,0.365c0.01,0.096-0.014,0.543-0.014,0.81c0.43,1.062,0.755,2.166,1.145,3.325
				c0.66,1.964-0.741,4.148-2.655,4.674c-2.161,0.595-3.915-0.73-4.675-2.654c0.651,1.652,0.111,0.303-0.054-0.085
				c-0.284-0.661-0.583-1.325-0.795-2.011c-0.112-0.363-0.215-0.74-0.305-1.123c-0.032-0.043-0.062-0.083-0.085-0.115
				c-0.059-0.062-0.116-0.125-0.178-0.183c-0.013-0.01-0.018-0.016-0.028-0.023c-0.131-0.075-0.359-0.167-0.423-0.198
				c-0.029-0.009-0.057-0.014-0.084-0.02c-0.162-0.018-0.421-0.047-0.512-0.045c-0.086,0.004-0.955,0.123-0.594,0.041
				c-0.354,0.073-0.712,0.148-1.058,0.26c-0.746,0.238-1.438,0.498-2.105,0.92c-0.032,0.02-0.863,0.695-0.563,0.4
				c-0.137,0.127-0.268,0.26-0.393,0.396c-0.024,0.052-0.117,0.203-0.196,0.33c-0.045,0.111-0.091,0.239-0.108,0.307
				c-0.014,0.055-0.024,0.096-0.031,0.133c-0.009,0.221-0.017,0.445,0,0.666c0,0.021,0,0.033,0.002,0.052
				c0.029,0.136,0.058,0.27,0.093,0.405c0.422,0.928,0.777,1.893,1.134,2.915c0.682,1.956-0.757,4.153-2.653,4.675
				c-2.169,0.597-3.907-0.731-4.677-2.654c0.66,1.646,0.103,0.312-0.069-0.074c-0.288-0.656-0.588-1.312-0.815-1.994
				c-0.056-0.169-0.112-0.34-0.162-0.516c-0.059-0.096-0.119-0.187-0.182-0.277c0.367,0.57-1.111-0.865-0.295-0.336
				c-0.179-0.123-0.362-0.243-0.559-0.34c-0.039-0.009-0.089-0.02-0.146-0.035c-0.144-0.036-0.566-0.066-0.586-0.076
				c-0.134-0.002-0.263,0.002-0.396,0.01c-0.114,0.029-0.742,0.125-0.775,0.133c-0.284,0.072-0.568,0.154-0.847,0.248
				c-0.599,0.21-1.19,0.487-1.74,0.856c0.007,0.021-0.48,0.423-0.513,0.455c-0.045,0.05-0.083,0.089-0.113,0.124
				c-0.017,0.031-0.036,0.064-0.059,0.109c-0.064,0.115-0.156,0.372-0.198,0.484c-0.003,0.013-0.009,0.034-0.009,0.034
				c0.011,0.111-0.025,0.663-0.016,0.906c0.004,0.016,0.006,0.025,0.01,0.042c0.012,0.057,0.024,0.111,0.037,0.166
				c0.382,1.035,0.766,2.069,1.148,3.104c0.722,1.943-0.787,4.161-2.653,4.675c-2.163,0.596-3.914-0.73-4.676-2.657
				c0.652,1.654,0.094,0.283-0.072-0.104c-0.283-0.667-0.59-1.337-0.809-2.029c-0.104-0.322-0.197-0.651-0.275-0.983
				c-2.581-6.967-5.161-13.933-7.741-20.898c-1.312-3.542-2.624-7.085-3.938-10.626c-0.129-0.35-0.26-0.698-0.389-1.048
				c-0.019-0.051-0.036-0.101-0.059-0.152c-0.003-0.016-0.01-0.037-0.01-0.037c-0.036-0.069-0.073-0.137-0.109-0.204
				c-0.032-0.012-0.062-0.019-0.09-0.023c-0.052,0.003-0.112,0.006-0.198,0.007c-0.034,0.001-0.925,0.103-0.657,0.035
				c-0.967,0.194-1.919,0.458-2.839,0.812c-0.821,0.315-1.634,0.708-2.357,1.213c-0.002,0.02-0.19,0.187-0.33,0.311
				c0.018,0.058,0.03,0.113,0.05,0.171c0.168,0.516,0.367,1.022,0.557,1.532c0.953,2.572,1.903,5.147,2.859,7.72
				c4.912,13.256,9.824,26.51,14.731,39.769c0.356,0.941,0.695,1.883,1.038,2.801c0.721,1.948-0.785,4.163-2.653,4.677
				c-2.129,0.585-3.958-0.713-4.676-2.654c-0.288-0.782-0.58-1.562-0.866-2.342c-0.102-0.26-0.194-0.523-0.296-0.782
				c-0.021-0.05-0.326-0.771-0.263-0.638c-0.062-0.142-0.125-0.283-0.191-0.42c-0.248-0.535-0.507-1.07-0.808-1.581
				c-0.262-0.446-0.529-0.891-0.838-1.307c0.102,0.158-0.363-0.343-0.651-0.637c-0.087-0.05-0.342-0.227-0.531-0.35
				c-0.155-0.057-0.4-0.151-0.479-0.168c-0.045-0.009-0.081-0.017-0.116-0.024c-0.054,0.003-0.116,0.008-0.208,0.01
				c-0.171,0.006-0.264,0.004-0.317-0.004c-0.048,0.012-0.098,0.025-0.161,0.041c-0.801,0.198-1.266,0.328-1.917,0.735
				c-0.171,0.108-0.268,0.161-0.323,0.188c-0.032,0.033-0.072,0.071-0.119,0.12c-0.066,0.064-0.321,0.393-0.408,0.488
				c-0.154,0.317-0.343,0.752-0.239,0.4c-0.064,0.203-0.125,0.41-0.162,0.622c0,0.034-0.004,0.068-0.004,0.116
				c-0.007,0.269-0.013,0.54,0.006,0.809c0.007,0.104,0.037,0.323,0.057,0.454c0.015,0.08,0.031,0.164,0.051,0.242
				c0.09,0.388,0.19,0.768,0.319,1.146c0.021,0.066,0.05,0.131,0.073,0.198c0.111,0.203,0.223,0.404,0.334,0.604
				c0.672,1.224,1.344,2.446,2.019,3.671c4.599,8.366,9.2,16.729,13.801,25.097c0.732,1.331,1.463,2.66,2.196,3.992
				c1.439-0.503,2.854-1.101,4.278-1.641c8.789-3.352,17.581-6.702,26.372-10.052c6.269-2.391,12.539-4.779,18.809-7.168
				l-0.311-1.332L134.746,136.114z"/>
			<path d="M63.533,19.744h0.035c2.072,0,3.802-1.73,3.802-3.801c0-2.073-1.729-3.802-3.802-3.802h-0.035
				c-2.072,0-3.802,1.729-3.802,3.802C59.731,18.014,61.461,19.744,63.533,19.744z"/>
			<path d="M42.873,19.744h9.349c4.903,0,4.903-7.603,0-7.603h-9.349C37.969,12.141,37.969,19.744,42.873,19.744z"/>
			<path d="M144.226,143.274c-0.96-4.1-1.92-8.197-2.882-12.297c-2.217-9.467-4.434-18.935-6.652-28.401
				c-0.513-2.193-1.025-4.384-1.54-6.576c-0.338-1.443-1.265-2.904-2.306-3.932c-2.896-2.861-7.27-2.592-10.839-1.367
				c-0.144,0.051-0.282,0.108-0.417,0.17c-2.486,1.01-4.556,2.432-5.913,4.414c-2.046-0.551-4.314-0.42-6.396,0.164
				c-3.119,0.871-5.719,2.554-7.324,5.01V10.435c0-2.498-0.248-4.977-1.662-7.144C96.967,1.251,94.835,0,92.391,0H7.749
				C2.747,0,0,4.666,0,9.262v155.159c0,3.992,1.557,8.751,5.961,9.719c1.486,0.33,3.15,0.162,4.66,0.162h73.427
				c1.007,0.701,2.232,1.042,3.655,0.929c1.13-0.093,2.029-0.399,3.047-0.788c2.853-1.088,5.705-2.174,8.558-3.261
				c9.315-3.551,18.628-7.099,27.94-10.649c3.551-1.352,7.102-2.706,10.652-4.058c3.271-1.247,7.603-2.526,7.636-6.819
				C145.555,147.579,144.693,145.268,144.226,143.274z M7.921,166.699c-0.171-0.309-0.196-0.557-0.313-1.077
				c-0.044-0.194-0.009-0.661-0.009-0.943V9.192c0-0.133,0.023-0.462,0.02-0.541C7.676,8.481,7.904,7.673,7.83,7.78
				c0.034-0.062,0.071-0.12,0.11-0.179h84.082c0.236,0.432,0.333,0.99,0.333,1.619v91.702c-1.152,0.404-2.24,0.947-3.206,1.623
				c-1.083-2.926-2.167-5.85-3.249-8.774c-0.207-0.556-0.412-1.112-0.619-1.669l-0.169,0.07l-7.231-17.52
				c-0.003,0.007-0.003,0.015-0.004,0.021c-0.238-0.233-0.493-0.457-0.771-0.668c-3.035-2.297-7.464-1.25-10.68-0.011
				c-3.748,1.441-7.181,3.736-7.711,7.987c-0.246,1.977,0.731,3.983,1.405,5.804l0.169-0.062l9.105,24.577l-0.168,0.062
				c1.048,2.832,2.095,5.663,3.145,8.494c-2.107,0.134-4.21,0.873-5.965,1.978c-3.06,1.931-4.713,5.25-4.69,8.828
				c0.019,2.834,1.053,5.243,2.378,7.651l5.777,10.501c3.095,5.63,6.191,11.259,9.284,16.885H7.921z M72.908,80.325
				C73.107,80.465,73.256,80.617,72.908,80.325L72.908,80.325z M66.298,82.562l-0.003-0.008
				C66.373,82.355,66.459,82.224,66.298,82.562z M66.28,82.467C66.294,82.186,66.386,81.873,66.28,82.467L66.28,82.467z
				 M66.44,82.467l-0.002,0c-0.012,0.018-0.034,0.042-0.061,0.074C66.447,82.455,66.493,82.404,66.44,82.467z M69.769,133.856
				c-0.011-0.021-0.023-0.039-0.032-0.06C69.603,133.554,69.57,133.383,69.769,133.856z M118.831,155.641
				c-8.791,3.35-17.583,6.7-26.372,10.052c-1.424,0.54-2.839,1.138-4.278,1.641c-0.733-1.332-1.464-2.661-2.196-3.992
				c-4.601-8.367-9.202-16.73-13.801-25.097c-0.675-1.225-1.347-2.447-2.019-3.671c-0.111-0.2-0.223-0.401-0.334-0.604
				c-0.023-0.067-0.052-0.132-0.073-0.198c-0.129-0.379-0.229-0.759-0.319-1.146c-0.02-0.078-0.036-0.162-0.051-0.242
				c-0.02-0.131-0.05-0.351-0.057-0.454c-0.019-0.269-0.013-0.54-0.006-0.809c0-0.048,0.004-0.082,0.004-0.116
				c0.037-0.212,0.098-0.419,0.162-0.622c-0.104,0.352,0.085-0.083,0.239-0.4c0.087-0.096,0.342-0.424,0.408-0.488
				c0.047-0.049,0.087-0.087,0.119-0.12c0.056-0.026,0.152-0.079,0.323-0.188c0.651-0.407,1.116-0.537,1.917-0.735
				c0.063-0.016,0.113-0.029,0.161-0.041c0.054,0.008,0.146,0.01,0.317,0.004c0.092-0.002,0.154-0.007,0.208-0.01
				c0.035,0.008,0.071,0.016,0.116,0.024c0.078,0.017,0.323,0.111,0.479,0.168c0.189,0.123,0.444,0.3,0.531,0.35
				c0.288,0.294,0.753,0.795,0.651,0.637c0.309,0.416,0.576,0.86,0.838,1.307c0.301,0.511,0.56,1.046,0.808,1.581
				c0.066,0.137,0.13,0.278,0.191,0.42c-0.063-0.134,0.241,0.588,0.263,0.638c0.102,0.259,0.194,0.522,0.296,0.782
				c0.286,0.78,0.578,1.56,0.866,2.342c0.718,1.941,2.547,3.239,4.676,2.654c1.868-0.514,3.374-2.729,2.653-4.677
				c-0.343-0.918-0.682-1.859-1.038-2.801c-4.907-13.259-9.819-26.513-14.731-39.769c-0.956-2.572-1.906-5.148-2.859-7.72
				c-0.189-0.51-0.389-1.016-0.557-1.532c-0.02-0.058-0.032-0.113-0.05-0.171c0.14-0.124,0.328-0.291,0.33-0.311
				c0.724-0.505,1.536-0.898,2.357-1.213c0.92-0.355,1.872-0.618,2.839-0.812c-0.268,0.068,0.623-0.033,0.657-0.035
				c0.086-0.001,0.146-0.004,0.198-0.007c0.028,0.004,0.058,0.011,0.09,0.023c0.036,0.067,0.073,0.135,0.109,0.204
				c0,0,0.007,0.021,0.01,0.037c0.022,0.051,0.04,0.101,0.059,0.152c0.129,0.351,0.26,0.698,0.389,1.048
				c1.313,3.542,2.625,7.084,3.938,10.626c2.58,6.966,5.16,13.932,7.741,20.898c0.078,0.332,0.171,0.661,0.275,0.983
				c0.219,0.692,0.525,1.362,0.809,2.029c0.166,0.388,0.725,1.759,0.072,0.104c0.762,1.927,2.513,3.253,4.676,2.657
				c1.866-0.514,3.375-2.731,2.653-4.675c-0.383-1.034-0.767-2.068-1.148-3.104c-0.013-0.055-0.025-0.109-0.037-0.166
				c-0.004-0.017-0.006-0.026-0.01-0.042c-0.01-0.243,0.026-0.795,0.016-0.906c0,0,0.006-0.021,0.009-0.034
				c0.042-0.112,0.134-0.369,0.198-0.484c0.022-0.045,0.042-0.078,0.059-0.109c0.03-0.035,0.068-0.074,0.113-0.124
				c0.032-0.032,0.52-0.435,0.513-0.455c0.55-0.369,1.142-0.646,1.74-0.856c0.278-0.094,0.562-0.176,0.847-0.248
				c0.033-0.008,0.661-0.104,0.775-0.133c0.133-0.008,0.262-0.012,0.396-0.01c0.02,0.01,0.442,0.04,0.586,0.076
				c0.057,0.016,0.106,0.026,0.146,0.035c0.196,0.097,0.38,0.217,0.559,0.34c-0.816-0.529,0.662,0.906,0.295,0.336
				c0.062,0.091,0.123,0.182,0.182,0.277c0.05,0.176,0.106,0.347,0.162,0.516c0.228,0.682,0.527,1.338,0.815,1.994
				c0.172,0.387,0.729,1.721,0.069,0.074c0.77,1.923,2.508,3.251,4.677,2.654c1.896-0.521,3.335-2.719,2.653-4.675
				c-0.356-1.022-0.712-1.987-1.134-2.915c-0.035-0.136-0.063-0.27-0.093-0.405c-0.002-0.019-0.002-0.03-0.002-0.052
				c-0.017-0.221-0.009-0.445,0-0.666c0.007-0.037,0.018-0.078,0.031-0.133c0.018-0.067,0.063-0.195,0.108-0.307
				c0.079-0.127,0.172-0.278,0.196-0.33c0.125-0.137,0.256-0.27,0.393-0.396c-0.3,0.295,0.531-0.381,0.563-0.4
				c0.668-0.422,1.359-0.682,2.105-0.92c0.346-0.111,0.703-0.187,1.058-0.26c-0.361,0.082,0.508-0.037,0.594-0.041
				c0.091-0.002,0.35,0.027,0.512,0.045c0.027,0.006,0.055,0.011,0.084,0.02c0.063,0.031,0.292,0.123,0.423,0.198
				c0.011,0.008,0.016,0.014,0.028,0.023c0.062,0.058,0.119,0.12,0.178,0.183c0.023,0.032,0.053,0.072,0.085,0.115
				c0.09,0.383,0.192,0.76,0.305,1.123c0.212,0.686,0.511,1.35,0.795,2.011c0.165,0.388,0.705,1.737,0.054,0.085
				c0.76,1.924,2.514,3.249,4.675,2.654c1.914-0.525,3.315-2.71,2.655-4.674c-0.39-1.159-0.715-2.264-1.145-3.325
				c0-0.267,0.023-0.714,0.014-0.81c0.029-0.121,0.062-0.245,0.1-0.365v-0.004c0.021-0.035,0.043-0.075,0.071-0.126
				c0.033-0.063,0.155-0.222,0.245-0.341c0.16-0.148,0.417-0.395,0.359-0.369c0.509-0.361,1.104-0.684,1.639-0.887
				c0.497-0.172,0.993-0.328,1.501-0.464c-0.038,0.01,1.001-0.162,0.882-0.167c0.172-0.014,0.345-0.015,0.521-0.012
				c-0.087,0.004,0.365,0.041,0.535,0.082c0.02,0.01,0.031,0.018,0.053,0.027c0.007,0.006,0.012,0.006,0.012,0.006
				c0.032,0.029,0.056,0.059,0.082,0.086c0.057,0.094,0.109,0.189,0.164,0.287c0,0,0.007,0.012,0.011,0.02
				c0.005,0.021,0.012,0.042,0.018,0.065c0.054,0.229,0.107,0.46,0.163,0.688c0.658,2.816,1.318,5.635,1.979,8.451
				c2.266,9.671,4.528,19.343,6.797,29.011l2.583,11.026l0.311,1.332C131.37,150.861,125.1,153.25,118.831,155.641z
				 M137.977,149.928c0.01,0.059,0.014,0.085,0.012,0.084C137.99,150.013,137.986,149.986,137.977,149.928z M138.624,148.097
				C138.793,148.014,138.886,147.996,138.624,148.097L138.624,148.097z"/>
			<path d="M57.585,150.299H41.039c-4.902,0-4.902,7.603,0,7.603h16.546C62.487,157.901,62.487,150.299,57.585,150.299z"/>
			<path d="M77.881,74.652"/>
		</g>
	</g>
</g>
<g>
	<path fill="none" d="M32.863,132.229C32.906,131.926,32.882,132.07,32.863,132.229L32.863,132.229z"/>
</g>
</svg>
