<?xml version="1.0" encoding="utf-8"?>
<!-- Generator: Adobe Illustrator 16.0.0, SVG Export Plug-In . SVG Version: 6.00 Build 0)  -->
<!DOCTYPE svg PUBLIC "-//W3C//DTD SVG 1.1//EN" "http://www.w3.org/Graphics/SVG/1.1/DTD/svg11.dtd">
<svg version="1.1" id="Layer_1" xmlns="http://www.w3.org/2000/svg" xmlns:xlink="http://www.w3.org/1999/xlink" x="0px" y="0px"
	 width="401.269px" height="367.512px" viewBox="0 0 401.269 367.512" enable-background="new 0 0 401.269 367.512"
	 xml:space="preserve">
<path fill="#2E2E2E" d="M290.511,35.824c1.678-13.655,10.204-26.149,23.673-32.218c20.526-9.245,44.661-0.103,53.915,20.417
	c3.66,8.108,4.393,16.774,2.744,24.861l21.408,13.331l-0.591,8.152c0,0-12.967-3.771-29.612-8.843
	c0.015,0.434,0.031,0.867,0.031,1.305c0,22.387-18.213,40.599-40.596,40.599c-22.389,0-40.607-18.214-40.607-40.599
	c0-10.109,3.726-19.362,9.862-26.479c-0.167-0.195-0.249-0.369-0.228-0.525V35.824z M395.127,83.293v50.811l-16.809,18.294v-51.057
	l16.809-18.05V83.293z M176.514,71.169l37.211-39.82l120.904,116.495l36.157-38.61v50.811l-36.602,39.576l-43.387-40.877
	l-45.845,47.578l-57.947-57.393l45.182-46.828l-19.518-18.729l-36.162,38.613V71.173L176.514,71.169z M151.667,96.865l16.806-18.043
	v50.801l-16.806,18.299V96.865z M0.001,212.178l57.563-56.721l26.763,26.46l-30.748,31.05L0,212.176L0.001,212.178z
	 M183.521,218.209l-62.332,62.339l-60.405-60.407l30.704-31.123l28.375,28.073l41.858-42.431l17.9-18.483l71.057,70.104l0.015,0.021
	l-0.011-0.321l82.555,79.919l-28.848,29.126L183.521,218.209L183.521,218.209z M338.16,367.512l-0.116-0.104l-26.342-25.277
	l28.792-29.178l0.607,0.593l60.168-8.02L338.16,367.512L338.16,367.512z"/>
</svg>
