<?xml version="1.0" encoding="utf-8"?>
<!-- Generator: Adobe Illustrator 16.0.0, SVG Export Plug-In . SVG Version: 6.00 Build 0)  -->
<!DOCTYPE svg PUBLIC "-//W3C//DTD SVG 1.1//EN" "http://www.w3.org/Graphics/SVG/1.1/DTD/svg11.dtd">
<svg version="1.1" id="Layer_1" xmlns="http://www.w3.org/2000/svg" xmlns:xlink="http://www.w3.org/1999/xlink" x="0px" y="0px"
	 width="50px" height="50px" viewBox="0 0 50 50" enable-background="new 0 0 50 50" xml:space="preserve">
<path fill="#FFFFFF" d="M26.732,35.051c-0.328-0.328-0.765-0.509-1.229-0.509s-0.901,0.181-1.227,0.509l-1.661,1.665
	c-0.104,0.101-0.271,0.127-0.401,0.057c-1.074-0.567-3.121-1.762-4.742-3.38c-1.606-1.611-2.722-3.562-3.243-4.584
	c-0.067-0.133-0.042-0.292,0.062-0.398l1.672-1.666c0.676-0.682,0.676-1.785,0-2.462l-4.433-4.432
	c-0.327-0.329-0.764-0.509-1.228-0.509s-0.901,0.18-1.23,0.509l-3.723,3.723C4.5,24.425,4.261,25.73,4.753,26.825
	c0.916,2.041,3.212,6.209,8.299,11.296c5.994,5.992,10.053,7.905,11.155,8.348c0.32,0.128,0.66,0.193,1.005,0.193l0,0
	c0.714,0,1.413-0.29,1.915-0.799l3.955-4.004c0.311-0.31,0.508-0.698,0.541-1.097c0.053-0.478-0.111-0.933-0.461-1.28L26.732,35.051
	z M25.85,44.603c-0.169,0.169-0.394,0.263-0.636,0.263c-0.115,0-0.226-0.021-0.332-0.062c-1.021-0.415-4.805-2.201-10.556-7.954
	c-4.885-4.885-7.064-8.841-7.93-10.763c-0.188-0.418-0.097-0.916,0.228-1.241l3.681-3.684l4.346,4.347l-1.629,1.629
	c-0.659,0.659-0.817,1.658-0.393,2.489c0.567,1.112,1.79,3.251,3.571,5.032c1.79,1.789,4.013,3.086,5.175,3.7
	c0.308,0.162,0.652,0.249,0.999,0.249c0.573,0,1.108-0.222,1.514-0.626l1.617-1.616l4.267,4.265L25.85,44.603z M41.332,8.341
	c-2.608-1.938-6.058-3.003-9.721-3.003c-3.661,0-7.112,1.064-9.721,3.003c-2.688,1.996-4.169,4.674-4.169,7.543
	c0,2.104,0.809,4.132,2.334,5.865c1.322,1.501,3.12,2.714,5.229,3.531c-0.093,0.741-0.553,1.424-1.363,2.031
	c-0.261,0.193-1.052,0.787-0.779,1.606c0.121,0.362,0.467,0.796,1.428,0.796l0,0c0.979,0,2.654-0.4,4.269-1.021
	c1.26-0.483,2.896-1.258,3.889-2.295C39.923,25.965,45.5,21.402,45.5,15.884C45.499,13.015,44.019,10.337,41.332,8.341z
	 M40.466,21.824c-2.149,1.681-5.064,2.674-8.195,2.796c-0.271,0.007-0.519,0.137-0.68,0.346c-0.881,1.143-3.556,2.228-5.462,2.702
	c0.95-1.204,1.025-2.403,0.954-3.104c-0.034-0.351-0.271-0.648-0.604-0.763c-4.227-1.443-6.958-4.552-6.958-7.917
	c0-4.824,5.424-8.748,12.09-8.748c6.668,0,12.089,3.924,12.089,8.748C43.7,18.089,42.551,20.199,40.466,21.824z M33.395,19.731
	h-0.57l-0.313-0.497v-4.33c0-0.497-0.399-0.9-0.9-0.9h-1.837c-0.496,0-0.898,0.403-0.898,0.9c0,0.498,0.402,0.899,0.898,0.899h0.568
	l0.371,0.585v3.343h-0.939c-0.496,0-0.898,0.402-0.898,0.899c0,0.498,0.402,0.9,0.898,0.9h3.621c0.494,0,0.897-0.402,0.897-0.9
	C34.292,20.134,33.889,19.731,33.395,19.731z M31.535,13.06c0.809,0,1.471-0.659,1.471-1.471s-0.662-1.471-1.471-1.471
	s-1.466,0.656-1.466,1.471C30.069,12.4,30.727,13.06,31.535,13.06z M31.535,11.262c0.182,0,0.328,0.146,0.328,0.327
	s-0.146,0.329-0.328,0.329c-0.18,0-0.328-0.147-0.328-0.329S31.355,11.262,31.535,11.262z"/>
</svg>
