<?xml version="1.0" encoding="utf-8"?>
<!-- Generator: Adobe Illustrator 16.0.0, SVG Export Plug-In . SVG Version: 6.00 Build 0)  -->
<!DOCTYPE svg PUBLIC "-//W3C//DTD SVG 1.1//EN" "http://www.w3.org/Graphics/SVG/1.1/DTD/svg11.dtd">
<svg version="1.1" id="Layer_1" xmlns="http://www.w3.org/2000/svg" xmlns:xlink="http://www.w3.org/1999/xlink" x="0px" y="0px"
	 width="70px" height="70px" viewBox="-99.5 18.5 70 70" enable-background="new -99.5 18.5 70 70" xml:space="preserve">
<g>
	<path fill="#231F20" d="M-45.49,52.629l-0.023-0.021c-0.051-1.09-0.19-2.172-0.424-3.229c-0.26-1.172-0.629-2.301-1.095-3.377
		c-2.957-6.836-9.823-11.51-17.468-11.51h-0.873l0,0l-0.022,0.021c-2.334,0.109-4.559,0.642-6.601,1.521
		c-6.765,2.914-11.514,9.646-11.514,17.469v0.855l0.021,0.021c0.107,2.34,0.638,4.568,1.521,6.615c0.001,0,0.001,0.002,0.001,0.004
		c2.915,6.764,9.647,11.51,17.467,11.51l0,0h0.854l0.021-0.02c2.34-0.107,4.572-0.641,6.619-1.521c0,0,0,0,0.001,0
		c6.765-2.916,11.512-9.646,11.512-17.467c0-0.299-0.008-0.594-0.022-0.891l0.023,0.02l0,0H-45.49z M-47.5,54.49
		c-0.227,3.951-1.809,7.545-4.284,10.326l-1.297-1.297l-1.399,1.4l1.297,1.295c-1.553,1.383-3.358,2.486-5.34,3.232l0,0
		c-0.916,0.344-1.869,0.609-2.852,0.795c-0.698,0.129-1.411,0.217-2.137,0.258v-3.381h-1.979V70.5
		c-3.953-0.229-7.547-1.809-10.328-4.285l1.296-1.295l-1.4-1.4l-1.295,1.295c-1.382-1.553-2.486-3.357-3.23-5.338
		c0-0.002,0-0.002,0-0.004c-0.343-0.912-0.611-1.863-0.793-2.844c-0.13-0.699-0.218-1.414-0.26-2.139h3.266v-1.98H-81.5
		c0.228-3.953,1.81-7.545,4.287-10.326l1.294,1.295l1.4-1.398l-1.295-1.295c1.552-1.383,3.357-2.486,5.337-3.23
		c0.911-0.344,1.858-0.607,2.834-0.791l0,0c0.704-0.135,1.422-0.223,2.154-0.264v3.348h1.979V36.5
		c3.891,0.229,7.506,1.803,10.315,4.297l-1.283,1.283l1.398,1.4l1.288-1.291c1.383,1.545,2.492,3.346,3.241,5.332
		c0.277,0.736,0.508,1.5,0.681,2.285c0.041,0.184,0.077,0.367,0.112,0.555c0,0,0,0.002,0,0.004c0.13,0.705,0.217,1.422,0.259,2.145
		h-3.138v1.98H-47.5L-47.5,54.49z"/>
	<path fill="#231F20" d="M-61.864,53.701c0.005-0.066,0.009-0.133,0.009-0.199c0-0.189-0.021-0.381-0.062-0.572
		c-0.264-1.203-1.352-2.074-2.582-2.074c-0.035,0-0.07,0.002-0.105,0.004l-3.537-7.816l-1.803,0.814l3.538,7.814
		c-0.456,0.477-0.737,1.121-0.737,1.83c0,1.459,1.187,2.645,2.644,2.645c0.67,0,1.283-0.252,1.749-0.662l11.579,4.354l0.695-1.854
		L-61.864,53.701z M-64.5,54.166c-0.366,0-0.665-0.297-0.665-0.664c0-0.369,0.298-0.668,0.665-0.668l0,0
		c0.305,0,0.584,0.223,0.648,0.514c0.01,0.049,0.016,0.102,0.016,0.154C-63.835,53.869-64.134,54.166-64.5,54.166z"/>
</g>
</svg>
