<?xml version="1.0" encoding="utf-8"?>
<!-- Generator: Adobe Illustrator 16.0.0, SVG Export Plug-In . SVG Version: 6.00 Build 0)  -->
<!DOCTYPE svg PUBLIC "-//W3C//DTD SVG 1.1//EN" "http://www.w3.org/Graphics/SVG/1.1/DTD/svg11.dtd">
<svg version="1.1" id="Layer_1" xmlns="http://www.w3.org/2000/svg" xmlns:xlink="http://www.w3.org/1999/xlink" x="0px" y="0px"
	 width="153.857px" height="171.048px" viewBox="0 0 153.857 171.048" enable-background="new 0 0 153.857 171.048"
	 xml:space="preserve">
<path d="M15.2,100.612c-3.958,3.678-3.476,9.949,0,13.691c3.439,3.702,9.145,3.52,12.932,0.639c0.261-0.168,0.516-0.376,0.76-0.639
	c0.251-0.233,0.452-0.479,0.616-0.727c3.051-3.916,2.848-9.238-0.616-12.965C25.213,96.654,18.943,97.136,15.2,100.612z
	 M23.648,109.062c-2.157,2.006-5.211-1.049-3.205-3.209C22.45,103.69,25.65,106.912,23.648,109.062z M153.475,24.893
	c1.365-3.59-1.155-7.476-3.912-9.483c-1.16-0.843-2.594-1.151-3.969-1.451c-3.556-0.775-7.112-1.549-10.67-2.325
	c-2.128-0.462-4.258-0.926-6.387-1.391c0.02-0.139,0.041-0.278,0.062-0.418c0.549-3.677-1.591-7.393-4.992-8.89
	c-1.573-0.693-3.172-0.903-4.861-0.903H81.027c-2.898,0-5.914-0.293-8.63,0.903c-3.987,1.753-5.347,5.693-4.95,9.669
	c1.406,14.115,2.812,28.229,4.221,42.343c-6.045,3.916-12.091,7.832-18.137,11.749c-3.451,2.237-6.9,4.472-10.354,6.708
	c-0.631,0.408-1.263,0.819-1.896,1.229c-2.251,1.458-2.134,4.764-2.429,7.127c-0.193,1.564-0.335,3.132-0.437,4.701H3.706
	C1.686,84.46,0,86.148,0,88.167v75.099c0,2.021,1.686,3.707,3.706,3.707h38.721c0.517,0,0.974-0.092,1.378-0.246
	c2.848,2.768,6.457,4.32,10.607,4.32h78.197c5.322,0,9.984-1.909,13.249-6.176c3.642-4.763,3.317-12.013,1.032-17.239
	c-0.679-1.552-1.59-3.035-2.684-4.371c5.477-6.264,5.889-16.865,0.133-22.661c2.475-3.174,4.148-7.073,4.238-11.019
	c0.09-3.977-1.816-7.775-4.512-10.75c2.952-3.521,4.853-8.149,4.441-12.641c-0.649-7.119-6.179-12.731-13.042-13.853
	C139.445,61.86,143.424,51.38,147.4,40.9C149.426,35.564,151.451,30.229,153.475,24.893z M7.411,159.561V91.874h30.757
	c-0.027,3.069,0.01,6.142,0.01,9.205v50.514c0,2.716,0.334,5.428,1.176,7.968H7.411z M139.568,23.576
	C139.567,23.664,139.559,23.647,139.568,23.576L139.568,23.576z M121.629,56.459c0.004,0.003,0.007,0.006,0.007,0.006
	c0.331,0.337,0.206,0.193,0.575,0.805c0.31,0.515,0.426,1.001,0.428,1.768c0.002,0.343-0.227,1.052-0.408,1.392
	c0,0-0.48,0.679-0.41,0.625c-0.292,0.335-0.627,0.634-0.963,0.922c0.065-0.063,0.029-0.049-0.052-0.003
	C121.081,60.136,121.355,58.295,121.629,56.459z M115.105,9.681C115.104,9.769,115.096,9.752,115.105,9.681L115.105,9.681z
	 M115.105,9.679c0.009-0.067,0.032-0.179,0.094-0.297c0.051-0.08,0.092-0.142,0.122-0.192c0.164-0.174,0.335-0.337,0.517-0.489
	c-0.465,0.414,0.98-0.393,0.486-0.21c0.728-0.268,0.842-0.249,1.628-0.252c0.815-0.004,1.313,0.213,2.167,0.776
	c-0.477-0.314,0.637,0.907,0.254,0.329c0.295,0.445,0.174,0.101,0.172,0.533c-0.008,0.068-0.033,0.18-0.095,0.297
	c-0.052,0.08-0.091,0.142-0.122,0.192c-0.164,0.173-0.335,0.337-0.519,0.488c0.466-0.414-0.979,0.394-0.485,0.213
	c-0.727,0.267-0.843,0.249-1.627,0.251c-0.834-0.044-1.284-0.196-2.168-0.776c0.479,0.313-0.637-0.906-0.254-0.331
	C114.982,9.767,115.104,10.112,115.105,9.679z M120.545,9.874C120.547,9.789,120.555,9.806,120.545,9.874L120.545,9.874z
	 M76.189,9.681C76.189,9.769,76.182,9.752,76.189,9.681L76.189,9.681z M76.191,9.679C76.2,9.612,76.221,9.5,76.283,9.382
	c0.053-0.08,0.093-0.142,0.123-0.192c0.164-0.174,0.335-0.337,0.519-0.489c-0.467,0.414,0.979-0.393,0.485-0.21
	c0.729-0.268,0.841-0.249,1.628-0.252c0.815-0.004,1.312,0.213,2.167,0.776c-0.478-0.314,0.635,0.907,0.252,0.329
	c0.296,0.445,0.176,0.101,0.171,0.533c-0.007,0.068-0.029,0.18-0.093,0.297c-0.052,0.08-0.091,0.142-0.124,0.192
	c-0.159,0.173-0.335,0.337-0.517,0.488c0.467-0.414-0.979,0.394-0.486,0.213c-0.727,0.267-0.84,0.249-1.627,0.251
	c-0.833-0.044-1.284-0.196-2.166-0.776c0.477,0.313-0.637-0.906-0.252-0.331C76.066,9.767,76.189,10.112,76.191,9.679z
	 M81.629,9.874C81.633,9.789,81.638,9.806,81.629,9.874L81.629,9.874z M78.017,18.663c0.241,0.043,0.495,0.068,0.765,0.068
	c0.149,0.009,0.294,0.004,0.439-0.01c5.045-0.202,9.467-3.513,9.82-8.786c0.061-0.888-0.038-1.719-0.265-2.491h19.337
	c-0.225,0.693-0.369,1.421-0.42,2.179c-0.35,5.181,4.663,8.49,9.239,9.04c0.239,0.043,0.495,0.068,0.765,0.068
	c0.148,0.009,0.293,0.004,0.436-0.01c0.586-0.024,1.161-0.09,1.725-0.196c-0.178,1.193-0.357,2.386-0.535,3.578
	c-2.367,15.833-4.734,31.668-7.099,47.502c-0.012,0.066-0.021,0.13-0.03,0.198c-0.012,0.07-0.018,0.142-0.025,0.213
	c-0.058,0.25-0.097,0.506-0.107,0.77c-0.004,0.114-0.006,0.195-0.006,0.259c-0.028,0.035-0.069,0.132-0.137,0.353
	c0.156-0.503-0.33,0.314-0.135,0.124c-0.305,0.333-0.621,0.467-1.101,0.597c0.157-0.043-0.579,0.013-0.827,0.013H82.545
	c-0.852,0-1.379-0.421-1.609-0.977c0.004-0.048-0.091-0.48-0.104-0.608c-0.072-0.726-0.146-1.452-0.217-2.179
	c-1.668-16.747-3.337-33.496-5.006-50.244C76.404,18.383,77.217,18.565,78.017,18.663z M137.451,80.816
	c1.29,0.758,2.63,2.374,3.101,3.547c0.849,2.122,0.806,3.71,0.075,5.895c-0.174,0.521-0.706,1.511-1.212,2.316
	c-0.23,0.371-0.485,0.724-0.743,1.075c0.193-0.274-0.467,0.548-0.545,0.637c-0.625,0.72-1.311,1.417-2.053,2.019
	c-1.938,1.564-1.076,4.372,0.572,5.686c-0.694-0.518,0.034,0.026,0.274,0.228c0.688,0.583,1.321,1.227,1.919,1.9
	c0.452,0.511,1.066,1.399,1.657,2.551c0.345,0.675,0.647,1.98,0.667,2.912c0.021,0.896-0.363,2.398-0.667,3.086
	c-0.519,1.167-1.218,2.25-1.97,3.279c0.195-0.275-0.591,0.705-0.723,0.854c-0.284,0.324-0.582,0.634-0.884,0.941
	c-0.272,0.276-0.554,0.546-0.847,0.798c-2.314,1.987-0.736,5.286,1.635,6.194c-1.551-0.593-0.452-0.189,0.011,0.074
	c0.249,0.141,0.487,0.301,0.722,0.465c0.188,0.153,0.361,0.319,0.536,0.486c0.123,0.116,0.695,0.785,0.692,0.749
	c0.309,0.44,0.575,0.912,0.82,1.394c0.023,0.047,0.044,0.085,0.062,0.121c0.018,0.06,0.048,0.157,0.102,0.309
	c0.13,0.366,0.222,0.741,0.312,1.114c0.196,0.792,0.184,1.088,0.197,2.061c0.021,1.36-0.207,2.461-0.705,3.87
	c0.063-0.206-0.271,0.602-0.281,0.621c-0.152,0.311-0.328,0.607-0.505,0.904c-0.166,0.279-0.352,0.546-0.536,0.812
	c-0.015,0.02-0.024,0.035-0.036,0.054c-0.032,0.034-0.069,0.078-0.123,0.143c-0.464,0.556-0.981,1.063-1.532,1.536
	c-0.16,0.121-0.468,0.354-0.623,0.441c-2.441,1.427-2.256,4.614-0.229,6.222c0.175,0.145,0.348,0.292,0.516,0.442
	c0.336,0.302,0.652,0.626,0.963,0.956c0.186,0.196,0.36,0.402,0.537,0.609c0.041,0.049,0.071,0.089,0.1,0.12
	c0.082,0.114,0.166,0.226,0.244,0.341c0.92,1.309,1.326,2.219,1.701,3.4c0.57,1.797,0.6,3.3,0.414,5.251
	c-0.236,2.496-1.665,4.363-3.658,5.465c-0.04,0.023-0.527,0.235-0.613,0.282c-0.258,0.092-0.519,0.176-0.779,0.252
	c-0.348,0.104-0.701,0.182-1.055,0.256c-0.117,0.024-0.2,0.044-0.262,0.059c-0.058,0.005-0.129,0.012-0.217,0.021
	c-0.549,0.058-1.102,0.069-1.65,0.069H54.83c-3.03,0-5.088-0.809-6.865-3.289c-2.054-2.858-2.373-5.857-2.373-9.335V91.587
	c0-1.895,0.031-3.787,0.131-5.679c0.114-2.21,0.327-4.416,0.603-6.612c0.018-0.096,0.103-0.725,0.12-0.828
	c0.02-0.133,0.041-0.265,0.061-0.398c8.664-5.61,17.324-11.222,25.988-16.834c0.021,0.239,0.047,0.475,0.07,0.711
	c0.262,2.637,0.524,5.271,0.786,7.906c0.091,0.902,0.104,1.863,0.297,2.738c0.623,2.855,2.687,5.099,5.279,6.203
	c0.57,0.461,1.323,0.751,2.263,0.751h51.749C134.605,79.545,136.037,79.982,137.451,80.816z M137.021,146.433
	C137.121,146.506,137.166,146.543,137.021,146.433L137.021,146.433z M138.199,44.337c-3.516,9.265-7.032,18.53-10.551,27.795h-8.336
	c0.072-0.379,0.123-0.767,0.149-1.165c0.03-0.205,0.061-0.408,0.091-0.612c5.514-1.188,10.182-5.259,10.499-11.316
	c0.262-4.943-3.059-8.619-7.226-10.577c1.08-7.234,2.162-14.469,3.242-21.701c0.457-3.061,0.913-6.121,1.372-9.18
	c2.106,0.459,4.207,0.917,6.312,1.374c-0.904,1.315-1.481,2.867-1.596,4.562c-0.35,5.181,4.665,8.49,9.239,9.04
	c0.241,0.044,0.493,0.07,0.765,0.069c0.149,0.008,0.293,0.003,0.437-0.011c0.019,0,0.036-0.004,0.053-0.004
	C141.167,36.52,139.684,40.428,138.199,44.337z M145.008,23.769C145.012,23.683,145.018,23.7,145.008,23.769L145.008,23.769z
	 M145.008,23.772c-0.008,0.067-0.031,0.179-0.094,0.296c-0.051,0.082-0.092,0.143-0.123,0.193c-0.16,0.173-0.334,0.337-0.518,0.49
	c0.468-0.415-0.979,0.391-0.485,0.21c-0.728,0.268-0.842,0.25-1.628,0.252c-0.834-0.043-1.284-0.196-2.166-0.775
	c0.477,0.313-0.637-0.907-0.252-0.331c-0.297-0.445-0.175-0.099-0.174-0.533c0.011-0.067,0.031-0.178,0.095-0.297
	c0.05-0.08,0.092-0.142,0.122-0.192c0.164-0.172,0.335-0.337,0.519-0.489c-0.467,0.415,0.979-0.394,0.485-0.211
	c0.729-0.268,0.841-0.25,1.627-0.252c0.816-0.004,1.313,0.214,2.168,0.776c-0.477-0.313,0.635,0.906,0.254,0.331
	C145.133,23.685,145.012,23.339,145.008,23.772z M96.502,69.542c0.153,0.018,0.311,0.029,0.475,0.031
	c6.889,0.037,13.587-4.382,13.971-11.68c0.387-7.338-7.109-11.889-13.57-12.168c-6.881-0.295-13.598,4.573-13.973,11.68
	C83.029,64.565,90.151,69.068,96.502,69.542z M91.227,56.012c0,0,0.48-0.676,0.41-0.625c0.294-0.334,0.625-0.632,0.963-0.919
	c-0.225,0.212,0.723-0.431,0.664-0.395c0.526-0.312,0.633-0.334,1.061-0.484c1.152-0.404,1.887-0.458,3.053-0.452
	c0.928,0.005,1.625,0.185,2.607,0.497c0.167,0.055,0.27,0.085,0.335,0.102c0.02,0.022,0.108,0.078,0.364,0.206
	c0.166,0.083,1.045,0.634,1,0.58c0.305,0.245,0.578,0.521,0.852,0.798c0.328,0.335,0.202,0.19,0.57,0.804
	c0.31,0.513,0.427,0.999,0.43,1.769c0.001,0.342-0.229,1.052-0.41,1.392c0,0-0.479,0.678-0.41,0.624
	c-0.292,0.334-0.624,0.632-0.963,0.921c0.228-0.214-0.722,0.43-0.663,0.393c-0.524,0.312-0.633,0.334-1.06,0.484
	c-1.152,0.404-1.888,0.458-3.053,0.453c-0.937-0.041-1.611-0.179-2.606-0.498c-0.169-0.054-0.272-0.086-0.337-0.102
	c-0.019-0.021-0.107-0.078-0.363-0.204c-0.168-0.083-1.045-0.636-1-0.582c-0.305-0.242-0.579-0.521-0.852-0.797
	c-0.328-0.335-0.203-0.19-0.572-0.806c-0.308-0.512-0.427-0.998-0.43-1.768C90.816,57.062,91.047,56.352,91.227,56.012z"/>
</svg>
