<?xml version="1.0" encoding="utf-8"?>
<!-- Generator: Adobe Illustrator 16.0.0, SVG Export Plug-In . SVG Version: 6.00 Build 0)  -->
<!DOCTYPE svg PUBLIC "-//W3C//DTD SVG 1.1//EN" "http://www.w3.org/Graphics/SVG/1.1/DTD/svg11.dtd">
<svg version="1.1" id="Layer_6" xmlns="http://www.w3.org/2000/svg" xmlns:xlink="http://www.w3.org/1999/xlink" x="0px" y="0px"
	 width="70px" height="70px" viewBox="0 0 70 70" enable-background="new 0 0 70 70" xml:space="preserve">
<g>
	<path fill="#FFFFFF" d="M18.859,24.889c1.521,0.595,3.375,0.044,4.404-1.195c1.094-1.317,1.243-3.187,0.369-4.656
		c-0.876-1.485-2.613-2.151-4.271-1.853c-1.817,0.337-3.1,2.04-3.168,3.833c-0.002,0.03-0.004,0.06-0.004,0.096
		C16.214,22.833,17.271,24.27,18.859,24.889z M18.416,19.444c0.426-0.46,1.025-0.73,1.6-0.771c0.647-0.044,1.271,0.161,1.723,0.537
		c0.492,0.408,0.816,0.998,0.882,1.537c0.095,0.723-0.067,1.271-0.483,1.859c-0.324,0.459-0.902,0.784-1.516,0.913
		c-1.221,0.261-2.463-0.605-2.789-1.819c-0.062-0.234-0.068-0.322-0.072-0.587C17.768,20.483,17.993,19.9,18.416,19.444z
		 M23.445,36.901c-0.43,0-0.785,0.354-0.785,0.789v13.629h-1.676V40.366c0-0.434-0.348-0.783-0.785-0.783
		c-0.432,0-0.783,0.352-0.783,0.783v10.953H17.74V37.69c0-0.437-0.352-0.789-0.784-0.789s-0.784,0.354-0.784,0.789v14.412
		c0,0.437,0.352,0.782,0.784,0.782h6.489c0.434,0,0.787-0.349,0.787-0.782V37.69C24.232,37.255,23.879,36.901,23.445,36.901z
		 M23.648,26.32H20.51h-0.621h-3.138c-1.517,0-2.751,1.235-2.751,2.752v9.866c0,0.437,0.352,0.783,0.784,0.783
		c0.432,0,0.782-0.35,0.782-0.783v-9.866c0-0.652,0.533-1.187,1.185-1.187h3.138h0.621h3.139c0.652,0,1.183,0.534,1.183,1.187v9.866
		c0,0.437,0.353,0.783,0.786,0.783c0.431,0,0.785-0.35,0.785-0.783v-9.866C26.4,27.553,25.166,26.32,23.648,26.32z"/>
	<path fill="#FFFFFF" d="M33.654,24.889c1.527,0.595,3.381,0.044,4.41-1.195c1.09-1.317,1.238-3.187,0.371-4.656
		c-0.881-1.485-2.615-2.151-4.272-1.853c-1.817,0.336-3.103,2.039-3.171,3.832c-0.001,0.03-0.001,0.06-0.001,0.096
		C31.016,22.833,32.068,24.27,33.654,24.889z M33.214,19.444c0.427-0.46,1.024-0.73,1.604-0.771
		c0.646-0.044,1.265,0.161,1.718,0.537c0.491,0.408,0.815,0.998,0.888,1.537c0.088,0.723-0.072,1.271-0.486,1.859
		c-0.328,0.459-0.903,0.784-1.515,0.913c-1.223,0.261-2.461-0.605-2.79-1.819c-0.066-0.234-0.07-0.322-0.074-0.587
		C32.566,20.483,32.792,19.9,33.214,19.444z M38.246,36.901c-0.432,0-0.785,0.354-0.785,0.789v13.629h-1.676V40.366
		c0-0.434-0.354-0.783-0.785-0.783s-0.785,0.352-0.785,0.783v10.953h-1.674V37.69c0-0.437-0.354-0.789-0.787-0.789
		c-0.432,0-0.781,0.354-0.781,0.789v14.412c0,0.437,0.352,0.782,0.781,0.782h6.492c0.434,0,0.781-0.349,0.781-0.782V37.69
		C39.029,37.255,38.68,36.901,38.246,36.901z M38.451,26.32h-3.141h-0.619H31.55c-1.515,0-2.749,1.235-2.749,2.751v9.865
		c0,0.438,0.35,0.783,0.783,0.783s0.783-0.349,0.783-0.783v-9.865c0-0.652,0.533-1.187,1.183-1.187h3.142h0.619h3.14
		c0.651,0,1.183,0.534,1.183,1.187v9.865c0,0.438,0.348,0.783,0.783,0.783c0.434,0,0.783-0.349,0.783-0.783v-9.865
		C41.2,27.553,39.966,26.32,38.451,26.32z"/>
	<path fill="#FFFFFF" d="M48.456,24.889c1.524,0.595,3.383,0.044,4.411-1.195c1.088-1.317,1.238-3.187,0.369-4.656
		c-0.881-1.485-2.614-2.151-4.274-1.853c-1.815,0.336-3.103,2.039-3.168,3.832c-0.004,0.03-0.004,0.06-0.004,0.096
		C45.816,22.833,46.871,24.27,48.456,24.889z M48.012,19.444c0.432-0.46,1.025-0.73,1.604-0.771
		c0.649-0.044,1.271,0.161,1.723,0.537c0.492,0.408,0.813,0.998,0.884,1.537c0.09,0.723-0.07,1.271-0.484,1.859
		c-0.323,0.459-0.906,0.784-1.518,0.913c-1.221,0.261-2.462-0.605-2.789-1.819c-0.06-0.234-0.068-0.322-0.072-0.587
		C47.371,20.483,47.596,19.9,48.012,19.444z M53.045,36.901c-0.436,0-0.781,0.354-0.781,0.789v13.629h-1.68V40.366
		c0-0.434-0.354-0.783-0.781-0.783c-0.439,0-0.783,0.352-0.783,0.783v10.953h-1.679V37.69c0-0.437-0.354-0.789-0.782-0.789
		c-0.437,0-0.787,0.354-0.787,0.789v14.412c0,0.437,0.352,0.782,0.787,0.782h6.487c0.437,0,0.783-0.349,0.783-0.782V37.69
		C53.829,37.255,53.48,36.901,53.045,36.901z M53.251,26.32h-3.142h-0.621h-3.137c-1.517,0-2.75,1.235-2.75,2.751v9.865
		c0,0.438,0.35,0.783,0.782,0.783c0.431,0,0.785-0.349,0.785-0.783v-9.865c0-0.652,0.53-1.187,1.183-1.187h3.137h0.621h3.142
		c0.651,0,1.183,0.534,1.183,1.187v9.865c0,0.438,0.351,0.783,0.781,0.783c0.434,0,0.785-0.349,0.785-0.783v-9.865
		C56,27.553,54.768,26.32,53.251,26.32z"/>
</g>
</svg>
