<?xml version="1.0" encoding="utf-8"?>
<!-- Generator: Adobe Illustrator 16.0.0, SVG Export Plug-In . SVG Version: 6.00 Build 0)  -->
<!DOCTYPE svg PUBLIC "-//W3C//DTD SVG 1.1//EN" "http://www.w3.org/Graphics/SVG/1.1/DTD/svg11.dtd">
<svg version="1.1" id="Layer_6" xmlns="http://www.w3.org/2000/svg" xmlns:xlink="http://www.w3.org/1999/xlink" x="0px" y="0px"
	 width="70px" height="70px" viewBox="0 0 70 70" enable-background="new 0 0 70 70" xml:space="preserve">
<g>
	<path fill="none" stroke="#FFFFFF" stroke-width="1.4" stroke-miterlimit="10" d="M27.038,35.335l4.784,10.686l4.76,4.657
		l1.828-4.151l-11.26-11.15C27.113,35.362,27.076,35.349,27.038,35.335z"/>
	<polygon fill="none" stroke="#FFFFFF" stroke-width="1.4" stroke-miterlimit="10" points="35.256,53.689 36.582,50.678 
		31.822,46.021 	"/>
	<path fill="none" stroke="#FFFFFF" stroke-width="1.4" stroke-miterlimit="10" d="M34.999,36.572c-3.014,0-5.757-0.454-7.849-1.196
		l11.26,11.15l2.087-4.739l-5.127-5.223C35.246,36.566,35.125,36.572,34.999,36.572z"/>
	<path fill="none" stroke="#FFFFFF" stroke-width="1.4" stroke-miterlimit="10" d="M35.37,36.564l5.127,5.223l2.914-6.618
		C41.347,36.002,38.512,36.525,35.37,36.564z"/>
	<path fill="none" stroke="#FFFFFF" stroke-width="1.4" stroke-miterlimit="10" d="M27.071,35.297l0.08,0.079
		c2.091,0.742,4.834,1.196,7.849,1.196c0.125,0,0.247-0.006,0.371-0.008l-0.07-0.071l0.07,0.071
		c3.142-0.039,5.977-0.562,8.041-1.396l0.006-0.013l-0.006,0.013c2.122-0.856,3.435-2.034,3.435-3.336
		c0-1.027-0.818-1.979-2.209-2.756c0.405-0.454,0.629-0.944,0.629-1.456c0-0.931-1.593-1.793-2.841-2.491
		c0.263-0.342,0.406-0.706,0.406-1.085c0-0.959-0.917-0.975-2.41-1.618c0.198-0.251,0.306-0.519,0.306-0.795
		c0-0.705-0.697-1.346-1.826-1.819c0.158-0.189,0.246-0.39,0.246-0.602c0-1.047-3.268-2.751-3.322-2.75
		c-4.179-1.142-1.732-2.858-3.673-1.84c-1.279,0.672-0.847,1.666-0.242,2.395c-0.856,0.342-1.386,2.528-1.386,3.05
		c0,0.153,0.045,0.302,0.13,0.444c-1.369,0.483-2.236,2.046-2.236,2.834c0,0.278,0.107,0.545,0.304,0.795
		c-1.299,0.559-3.989,2.551-3.989,3.482c0,0.513,0.223,1.002,0.631,1.456c-1.392,0.777-2.21,1.728-2.21,2.756
		c0,1.389,1.504,2.635,3.885,3.502l-0.017-0.038l0.017,0.038c0.038,0.014,0.075,0.027,0.112,0.041L27.071,35.297z"/>
</g>
</svg>
