<?xml version="1.0" encoding="utf-8"?>
<!-- Generator: Adobe Illustrator 16.0.0, SVG Export Plug-In . SVG Version: 6.00 Build 0)  -->
<!DOCTYPE svg PUBLIC "-//W3C//DTD SVG 1.1//EN" "http://www.w3.org/Graphics/SVG/1.1/DTD/svg11.dtd">
<svg version="1.1" id="Layer_6" xmlns="http://www.w3.org/2000/svg" xmlns:xlink="http://www.w3.org/1999/xlink" x="0px" y="0px"
	 width="70px" height="70px" viewBox="0 0 70 70" enable-background="new 0 0 70 70" xml:space="preserve">
<g>
	<path fill="#FFFFFF" d="M55.414,30.425l-2.943-7.355c-1.195-3.048-4.033-5.094-7.062-5.094h-4.975
		c-0.994,0-1.922,0.413-2.617,1.164l-2.763,2.888l-0.14,0.145l-0.146-0.139l-3.069-2.948c-0.787-0.726-1.718-1.11-2.687-1.11H24.22
		c-2.854,0-5.432,1.854-6.568,4.725l-3.07,7.677c-0.094,0.235-0.107,0.608,0.047,0.866c0.169,0.283,0.432,0.473,0.721,0.521
		l6.517,1.353l0.159,0.032v0.164v17.683c0,0.567,0.461,1.03,1.029,1.03h23.886c0.565,0,1.027-0.463,1.027-1.03V33.372v-0.163
		l0.158-0.033l6.512-1.352c0.293-0.048,0.562-0.243,0.729-0.521C55.548,31.007,55.492,30.662,55.414,30.425z M52.754,30.253
		l-4.482,0.951l-0.24,0.051v-0.247v-1.811c0-0.567-0.463-1.028-1.028-1.028c-0.567,0-1.067,0.498-1.067,1.067l-0.021,20.593v0.198
		h-0.2H24.221H24.02v-0.198V29.137c0-0.566-0.461-1.027-1.026-1.027c-0.567,0-1.028,0.461-1.028,1.027v1.78v0.248l-0.242-0.053
		l-4.545-0.982l-0.229-0.05l0.087-0.219l2.518-6.325c0.823-2.09,2.656-3.442,4.668-3.442h4.789c0.463,0,0.883,0.186,1.248,0.551
		l3.988,3.804c0.202,0.203,0.458,0.313,0.721,0.313c0.263,0,0.519-0.111,0.718-0.311l3.619-3.803
		c0.25-0.313,0.653-0.493,1.127-0.493h4.976c2.256,0,4.21,1.46,5.101,3.812l2.387,6.017l0.088,0.22L52.754,30.253z"/>
</g>
</svg>
