<?xml version="1.0" encoding="utf-8"?>
<!-- Generator: Adobe Illustrator 16.0.0, SVG Export Plug-In . SVG Version: 6.00 Build 0)  -->
<!DOCTYPE svg PUBLIC "-//W3C//DTD SVG 1.1//EN" "http://www.w3.org/Graphics/SVG/1.1/DTD/svg11.dtd">
<svg version="1.1" xmlns="http://www.w3.org/2000/svg" xmlns:xlink="http://www.w3.org/1999/xlink" x="0px" y="0px" width="70px"
	 height="70px" viewBox="-528.5 300.5 70 70" enable-background="new -528.5 300.5 70 70" xml:space="preserve">
<g id="Layer_1">
	<g>
		<g>
			<path d="M-495.798,320.029h2.145c1.123,0,1.123-1.746,0-1.746h-2.145C-496.924,318.283-496.924,320.029-495.798,320.029z
				 M-492.422,349.983h-3.797c-1.125,0-1.125,1.74,0,1.74h3.797C-491.299,351.726-491.299,349.983-492.422,349.983z
				 M-491.057,320.029h0.006c0.475,0,0.873-0.397,0.873-0.87c0-0.478-0.398-0.876-0.873-0.876h-0.006
				c-0.478,0-0.874,0.398-0.874,0.876C-491.931,319.632-491.535,320.029-491.057,320.029z M-472.888,323.575h-9.813v-5.682
				c0-0.57-0.056-1.142-0.382-1.639c-0.306-0.469-0.794-0.755-1.355-0.755h-19.42c-1.148,0-1.777,1.069-1.777,2.124v35.601
				c0,0.913,0.355,2.006,1.367,2.229c0.341,0.076,0.724,0.037,1.068,0.037h18.653c1.181,0,1.81-1.001,1.844-2.105v-15.571
				c0.049-0.092,0.093-0.191,0.137-0.284h9.676c0.477,0,0.873-0.397,0.873-0.872v-12.212
				C-472.014,323.971-472.412,323.575-472.888,323.575z M-484.446,353.385c-0.004,0.146-0.027,0.26-0.078,0.361h-0.002
				c0-0.002-0.002-0.002-0.003,0h-19.288c-0.04-0.073-0.045-0.127-0.071-0.247c-0.012-0.045-0.001-0.151-0.001-0.218v-35.673
				c0-0.032,0.003-0.106,0.003-0.124c0.013-0.038,0.066-0.226,0.048-0.198c0.007-0.018,0.016-0.03,0.026-0.041h19.289
				c0.054,0.096,0.076,0.225,0.076,0.367v5.963h-7.606c-0.271,0-0.479,0.099-0.618,0.253c-0.153,0.142-0.255,0.347-0.255,0.617
				v12.211c0,0.476,0.397,0.872,0.874,0.872h4.696c-0.059,0.284-0.126,0.571-0.218,0.852c-0.141,0.433-0.458,0.776-0.466,1.25
				c-0.017,1.034,1.127,1.156,1.874,0.938c0.582-0.177,1.176-0.467,1.723-0.848v13.664H-484.446z M-473.758,335.782h-9.439
				c-0.372,0-0.759,0.266-0.84,0.643c-0.026,0.121-0.062,0.238-0.101,0.352c-0.013,0.02-0.053,0.117-0.06,0.132
				c-0.045,0.087-0.097,0.178-0.151,0.263c-0.04,0.062-0.083,0.126-0.127,0.19c-0.005,0.004-0.008,0.007-0.01,0.012
				c-0.03,0.038-0.062,0.074-0.094,0.11c-0.118,0.135-0.246,0.269-0.378,0.391c-0.056,0.05-0.116,0.1-0.175,0.154
				c-0.017,0.013-0.137,0.104-0.165,0.131c-0.127,0.091-0.258,0.184-0.388,0.266c-0.033,0.018-0.065,0.039-0.096,0.055
				c0.142-0.52,0.215-1.061,0.296-1.597c0.085-0.55-0.224-1.102-0.84-1.102h-4.854v-10.467h17.425v10.468H-473.758z
				 M-476.741,329.401c0,0.003,0,0.004,0,0.006c0-0.002,0-0.004,0-0.008C-476.741,329.401-476.741,329.401-476.741,329.401z
				 M-476.741,331.444v0.004c0-0.001,0-0.003,0-0.006C-476.741,331.443-476.741,331.444-476.741,331.444z M-476.744,329.435
				L-476.744,329.435L-476.744,329.435L-476.744,329.435z M-476.744,331.479L-476.744,331.479L-476.744,331.479L-476.744,331.479z"
				/>
		</g>
		<g>
			<path d="M-485.688,331.124c0,0.23-0.029,0.438-0.086,0.624c-0.057,0.187-0.141,0.343-0.254,0.472
				c-0.109,0.127-0.252,0.23-0.418,0.302c-0.169,0.064-0.366,0.101-0.586,0.101c-0.102,0-0.204-0.005-0.301-0.016
				c-0.099-0.012-0.2-0.031-0.308-0.06c0.005-0.07,0.011-0.147,0.02-0.222c0.006-0.077,0.012-0.152,0.019-0.229
				c0.005-0.042,0.022-0.075,0.048-0.104c0.026-0.021,0.069-0.038,0.117-0.038c0.034,0,0.074,0.006,0.128,0.021
				c0.05,0.013,0.117,0.018,0.197,0.018c0.106,0,0.2-0.015,0.284-0.046c0.085-0.033,0.154-0.081,0.209-0.15
				c0.056-0.063,0.098-0.156,0.125-0.265c0.03-0.104,0.044-0.239,0.044-0.395v-2.656h0.761L-485.688,331.124L-485.688,331.124z"/>
			<path d="M-480.915,330.534c0,0.302-0.048,0.578-0.147,0.831c-0.099,0.259-0.24,0.476-0.42,0.664
				c-0.181,0.188-0.399,0.335-0.655,0.435c-0.256,0.108-0.537,0.158-0.849,0.158c-0.31,0-0.59-0.05-0.845-0.158
				c-0.254-0.1-0.475-0.247-0.656-0.435c-0.181-0.188-0.323-0.405-0.422-0.664c-0.101-0.253-0.15-0.529-0.15-0.831
				c0-0.303,0.05-0.579,0.15-0.836c0.099-0.255,0.241-0.479,0.422-0.664c0.181-0.185,0.402-0.332,0.656-0.438
				c0.255-0.102,0.535-0.158,0.845-0.158c0.208,0,0.404,0.027,0.587,0.074c0.182,0.045,0.35,0.115,0.504,0.2
				c0.154,0.094,0.29,0.196,0.413,0.323c0.121,0.127,0.225,0.264,0.31,0.419c0.083,0.155,0.149,0.326,0.194,0.504
				C-480.937,330.144-480.915,330.335-480.915,330.534z M-481.693,330.534c0-0.228-0.03-0.427-0.09-0.607
				c-0.06-0.177-0.147-0.327-0.258-0.452c-0.11-0.126-0.246-0.223-0.405-0.29c-0.16-0.062-0.341-0.096-0.541-0.096
				c-0.199,0-0.378,0.034-0.54,0.096c-0.159,0.067-0.295,0.164-0.406,0.29c-0.113,0.124-0.201,0.274-0.261,0.452
				c-0.06,0.18-0.088,0.38-0.088,0.607c0,0.226,0.029,0.426,0.088,0.601c0.061,0.181,0.148,0.333,0.261,0.457
				c0.11,0.121,0.247,0.221,0.406,0.283c0.161,0.067,0.341,0.101,0.54,0.101c0.2,0,0.38-0.033,0.541-0.101
				c0.159-0.062,0.294-0.162,0.405-0.283c0.111-0.124,0.198-0.276,0.258-0.457C-481.723,330.961-481.693,330.76-481.693,330.534z"/>
			<path d="M-478.834,328.483c0.267,0,0.497,0.027,0.689,0.077c0.189,0.056,0.346,0.128,0.467,0.22
				c0.122,0.092,0.212,0.206,0.269,0.346c0.057,0.13,0.084,0.281,0.084,0.449c0,0.099-0.014,0.189-0.042,0.275
				c-0.028,0.092-0.072,0.172-0.131,0.249c-0.059,0.077-0.136,0.143-0.228,0.207c-0.091,0.063-0.199,0.115-0.325,0.156
				c0.562,0.126,0.843,0.433,0.843,0.911c0,0.176-0.033,0.337-0.099,0.484c-0.067,0.149-0.163,0.274-0.29,0.377
				c-0.126,0.108-0.281,0.191-0.467,0.254c-0.186,0.058-0.396,0.09-0.634,0.09h-1.546v-4.094h1.41V328.483z M-479.481,329.075v1.186
				h0.606c0.26,0,0.457-0.048,0.589-0.145c0.133-0.093,0.2-0.243,0.2-0.447c0-0.216-0.061-0.369-0.182-0.458
				c-0.123-0.089-0.311-0.136-0.566-0.136H-479.481z M-478.712,331.985c0.141,0,0.26-0.016,0.356-0.05
				c0.096-0.035,0.174-0.079,0.23-0.139c0.059-0.054,0.1-0.122,0.124-0.198c0.027-0.076,0.039-0.155,0.039-0.24
				c0-0.086-0.014-0.165-0.042-0.238c-0.028-0.071-0.074-0.128-0.133-0.182c-0.061-0.049-0.139-0.087-0.234-0.115
				c-0.095-0.021-0.208-0.04-0.342-0.04h-0.769v1.202H-478.712L-478.712,331.985z"/>
		</g>
	</g>
</g>
<g id="Layer_2">
</g>
</svg>
