<?xml version="1.0" encoding="utf-8"?>
<!-- Generator: Adobe Illustrator 16.0.0, SVG Export Plug-In . SVG Version: 6.00 Build 0)  -->
<!DOCTYPE svg PUBLIC "-//W3C//DTD SVG 1.1//EN" "http://www.w3.org/Graphics/SVG/1.1/DTD/svg11.dtd">
<svg version="1.1" id="Layer_1" xmlns="http://www.w3.org/2000/svg" xmlns:xlink="http://www.w3.org/1999/xlink" x="0px" y="0px"
	 width="70px" height="70px" viewBox="0 0 70 70" enable-background="new 0 0 70 70" xml:space="preserve">
<path fill="#FFFFFF" d="M42.674,46.777c-0.217-1.301-0.434-2.604-0.65-3.904c0.041-0.209-0.002-0.418-0.101-0.6
	c-0.144-0.86-0.286-1.723-0.431-2.584c0.016-0.154-0.014-0.308-0.074-0.447c-0.107-0.646-0.216-1.294-0.324-1.941
	c-0.742-4.448-1.484-8.896-2.227-13.343c-0.07-0.419-0.141-0.839-0.21-1.258c-0.005-0.029-0.009-0.058-0.015-0.086v-0.007
	c0.056,0.337,0.008-0.012-0.006-0.111c-0.022-0.169-0.072-0.334-0.14-0.492c0.203-0.292,0.329-0.646,0.353-1.042
	c0.23-1.832,0.461-3.664,0.689-5.496c0.115-0.91-0.689-1.706-1.51-1.91c-0.334-0.083-0.704-0.056-1.045-0.056h-5.086
	c-0.392,0-0.783-0.016-1.161,0.118c-0.762,0.271-1.402,1.047-1.296,1.891c0.051,0.406,0.103,0.812,0.152,1.217
	c0.15,1.191,0.299,2.383,0.449,3.575c0.042,0.334,0.063,0.684,0.123,1.016c0.064,0.36,0.236,0.668,0.474,0.912
	c-0.06,0.22-0.094,0.451-0.125,0.686c-0.468,3.51-0.937,7.021-1.406,10.532c-0.018,0.131-0.035,0.263-0.052,0.394
	c-0.148,0.233-0.166,0.485-0.095,0.712c-0.481,3.607-0.963,7.212-1.444,10.82c-0.023,0.08-0.033,0.159-0.032,0.238
	c-0.028,0.207-0.055,0.414-0.083,0.623c-0.038,0.279-0.075,0.559-0.112,0.839c-0.042,0.317,0.185,0.676,0.34,0.936
	c0.216,0.361,0.462,0.706,0.707,1.05c1.462,2.049,3.044,4.019,4.617,5.984c0.317,0.396,0.634,0.791,0.954,1.186
	c0.316,0.391,1.016,0.352,1.34,0c1.193-1.297,2.375-2.608,3.542-3.931c0.835-0.944,1.665-1.896,2.465-2.871
	c0.5-0.608,1.175-1.28,1.419-2.052c0.031-0.095,0.037-0.204,0.042-0.3C42.721,46.971,42.706,46.871,42.674,46.777z M31.837,50.588
	c-0.019-0.023-0.038-0.049-0.057-0.074c0.004,0.006-0.086-0.111-0.099-0.128c-0.088-0.114-0.177-0.229-0.265-0.346
	c2.632-2.631,5.264-5.265,7.895-7.896c0.194-0.193,0.389-0.388,0.582-0.582c0.047,0.276,0.094,0.554,0.14,0.83
	c-2.632,2.633-5.265,5.265-7.897,7.897C32.036,50.391,31.937,50.489,31.837,50.588z M30.576,36.639
	c0.086-0.645,0.172-1.29,0.258-1.935l6.783-6.783c0.17,1.022,0.341,2.045,0.511,3.067c-0.114,0.045-0.229,0.118-0.335,0.224
	c-2.498,2.498-4.996,4.996-7.494,7.494C30.392,38.018,30.484,37.328,30.576,36.639z M32.415,22.863c0-0.001,0.001-0.003,0.001-0.003
	l3.863-0.001c-1.486,1.486-2.972,2.972-4.458,4.458c0.158-1.185,0.316-2.37,0.475-3.555C32.334,23.461,32.375,23.162,32.415,22.863z
	 M31.409,30.4c0.029-0.023,0.058-0.048,0.085-0.077c1.863-1.864,3.728-3.728,5.591-5.591c0.049,0.297,0.099,0.596,0.149,0.893
	c-0.004,0.004-0.008,0.007-0.012,0.011l-5.977,5.975C31.301,31.208,31.355,30.804,31.409,30.4z M29.895,41.741
	c0.074-0.042,0.146-0.097,0.215-0.166c2.759-2.759,5.518-5.517,8.275-8.275l0.111-0.11c0.05,0.297,0.1,0.595,0.148,0.893
	c-2.664,2.664-5.327,5.327-7.99,7.989c-0.31,0.311-0.619,0.619-0.929,0.929C29.783,42.581,29.839,42.161,29.895,41.741z
	 M37.674,15.457c0.004,0.008,0.01,0.017,0.016,0.026c-0.01-0.008-0.015-0.018-0.02-0.027C37.671,15.456,37.672,15.457,37.674,15.457
	z M31.371,15.394c-0.095,0.057,0.151,0,0.052,0h6.109c0.021,0,0.021-0.004,0.012-0.008c0.022,0.006,0.052,0.013,0.088,0.022
	c-0.062-0.015-0.013,0.021,0.022,0.04c0.002,0.232-0.069,0.494-0.098,0.719c-0.072,0.579-0.146,1.159-0.218,1.739
	c-0.12,0.955-0.239,1.909-0.358,2.863c-0.213-0.047-0.435-0.071-0.66-0.071h-3.317c-0.355,0-0.687,0.037-0.999,0.136
	c-0.01-0.083-0.021-0.167-0.031-0.25c-0.064-0.507-0.128-1.015-0.191-1.522c-0.141-1.122-0.282-2.245-0.423-3.367
	c-0.011-0.091-0.023-0.181-0.035-0.272C31.337,15.415,31.352,15.405,31.371,15.394z M29.188,47.042
	C29.194,47.115,29.181,47.107,29.188,47.042L29.188,47.042z M29.314,46.094c2.685-2.685,5.37-5.369,8.055-8.056
	c0.553-0.554,1.105-1.106,1.658-1.658c0.16,0.962,0.322,1.925,0.481,2.888c-2.663,2.662-5.327,5.326-7.991,7.99
	c-0.417,0.417-0.834,0.834-1.251,1.252c-0.159-0.217-0.315-0.436-0.47-0.654c-0.209-0.297-0.417-0.6-0.597-0.916
	C29.239,46.658,29.276,46.375,29.314,46.094z M40.624,47.176c-0.052,0.072-0.104,0.145-0.158,0.215
	c-0.024,0.034-0.051,0.069-0.077,0.103c-0.156,0.2-0.314,0.396-0.475,0.592c-0.799,0.976-1.63,1.926-2.465,2.872
	c-0.936,1.059-1.879,2.109-2.831,3.152c-0.538-0.67-1.072-1.342-1.604-2.017c2.467-2.467,4.934-4.934,7.401-7.401
	c0.125,0.748,0.249,1.494,0.374,2.24C40.736,47.014,40.682,47.096,40.624,47.176z M40.833,46.91c0-0.002,0-0.004,0-0.004
	c0.003-0.01,0.006-0.018,0.01-0.026C40.84,46.891,40.836,46.9,40.833,46.91z M40.854,46.826l-0.002,0.005
	c-0.004,0.006-0.008,0.011-0.012,0.017C40.85,46.791,40.857,46.796,40.854,46.826z"/>
</svg>
