<?xml version="1.0" encoding="utf-8"?>
<!-- Generator: Adobe Illustrator 16.0.0, SVG Export Plug-In . SVG Version: 6.00 Build 0)  -->
<!DOCTYPE svg PUBLIC "-//W3C//DTD SVG 1.1//EN" "http://www.w3.org/Graphics/SVG/1.1/DTD/svg11.dtd">
<svg version="1.1" id="Layer_1" xmlns="http://www.w3.org/2000/svg" xmlns:xlink="http://www.w3.org/1999/xlink" x="0px" y="0px"
	 width="70px" height="70px" viewBox="-34.5 565.5 70 70" enable-background="new -34.5 565.5 70 70" xml:space="preserve">
<g>
	<defs>
		<rect id="SVGID_1_" x="-17.226" y="576.89" width="35.451" height="47.221"/>
	</defs>
	<clipPath id="SVGID_2_">
		<use xlink:href="#SVGID_1_"  overflow="visible"/>
	</clipPath>
	<path clip-path="url(#SVGID_2_)" fill="#231F20" d="M-9.123,595.274v-1.793c-1.787-1.497-2.984-3.735-2.984-6.274
		c0-4.485,3.735-8.22,8.213-8.22c4.485,0,8.22,3.734,8.22,8.22c0,1.938-0.751,3.879-1.947,5.223c0.598,0,1.05,0.153,1.648,0.299
		c1.196-1.643,1.787-3.582,1.787-5.675c0-5.376-4.327-9.707-9.708-9.707c-5.375,0-9.71,4.331-9.71,9.707
		C-13.604,590.489-11.809,593.481-9.123,595.274"/>
</g>
<g>
	<defs>
		<rect id="SVGID_3_" x="-17.226" y="576.89" width="35.451" height="47.221"/>
	</defs>
	<clipPath id="SVGID_4_">
		<use xlink:href="#SVGID_3_"  overflow="visible"/>
	</clipPath>
	<path clip-path="url(#SVGID_4_)" fill="#231F20" d="M14.034,598.257c-0.896,0-1.641,0.298-2.239,0.752
		c0-2.095-1.647-3.734-3.734-3.734c-0.897,0-1.794,0.299-2.545,0.889c-0.59-1.486-1.941-2.384-3.436-2.384
		c-0.89,0-1.641,0.299-2.239,0.743v-7.469c0-2.094-1.641-3.734-3.734-3.734c-2.087,0-3.734,1.641-3.734,3.734v13.295
		c-2.983-2.689-6.273-4.775-8.366-2.689c-2.985,2.989,3.289,8.819,8.064,17.628c3.437,6.127,8.222,8.366,12.999,8.366
		c7.023,0,12.699-5.674,12.699-12.698v-8.964C17.769,599.897,16.127,598.257,14.034,598.257 M16.273,605.28v5.675
		c0,5.828-5.076,11.204-11.203,11.204c-5.676,0-8.964-3.137-11.648-7.469c-5.827-9.861-10.013-14.342-8.365-15.982
		c1.639-1.646,5.674,1.94,8.809,5.224v-16.878c0-1.195,1.044-2.239,2.241-2.239c1.196,0,2.239,1.045,2.239,2.239v15.689h1.495
		v-5.229c0-1.198,1.051-2.241,2.239-2.241c1.197,0,2.247,1.043,2.247,2.241v3.732h1.488v-2.238c0-1.196,1.05-2.249,2.247-2.249
		c1.189,0,2.238,1.052,2.238,2.249v3.734h1.496v-0.752c0-1.195,1.043-2.239,2.239-2.239s2.239,1.044,2.239,2.239L16.273,605.28
		L16.273,605.28z"/>
</g>
<g>
	<defs>
		<rect id="SVGID_5_" x="-17.226" y="576.89" width="35.451" height="47.221"/>
	</defs>
	<clipPath id="SVGID_6_">
		<use xlink:href="#SVGID_5_"  overflow="visible"/>
	</clipPath>
	<path clip-path="url(#SVGID_6_)" fill="none" stroke="#231F20" stroke-width="0.2361" stroke-miterlimit="10" d="M-9.123,595.274
		v-1.793c-1.787-1.497-2.984-3.735-2.984-6.274c0-4.485,3.735-8.22,8.213-8.22c4.485,0,8.22,3.734,8.22,8.22
		c0,1.938-0.751,3.879-1.947,5.223c0.598,0,1.05,0.153,1.648,0.299c1.196-1.643,1.787-3.582,1.787-5.675
		c0-5.376-4.327-9.707-9.708-9.707c-5.375,0-9.71,4.331-9.71,9.707C-13.604,590.489-11.809,593.481-9.123,595.274z"/>
</g>
<g>
	<defs>
		<rect id="SVGID_7_" x="-17.226" y="576.89" width="35.451" height="47.221"/>
	</defs>
	<clipPath id="SVGID_8_">
		<use xlink:href="#SVGID_7_"  overflow="visible"/>
	</clipPath>
	<path clip-path="url(#SVGID_8_)" fill="none" stroke="#231F20" stroke-width="0.2361" stroke-miterlimit="10" d="M14.034,598.257
		c-0.896,0-1.641,0.298-2.239,0.752c0-2.095-1.647-3.734-3.734-3.734c-0.897,0-1.794,0.299-2.545,0.889
		c-0.59-1.486-1.941-2.384-3.436-2.384c-0.89,0-1.641,0.299-2.239,0.743v-7.469c0-2.094-1.641-3.734-3.734-3.734
		c-2.087,0-3.734,1.641-3.734,3.734v13.295c-2.983-2.689-6.273-4.775-8.366-2.689c-2.985,2.989,3.289,8.819,8.064,17.628
		c3.437,6.127,8.222,8.366,12.999,8.366c7.023,0,12.699-5.674,12.699-12.698v-8.964C17.769,599.897,16.127,598.257,14.034,598.257z
		 M16.273,605.28v5.675c0,5.828-5.076,11.204-11.203,11.204c-5.676,0-8.964-3.137-11.648-7.469
		c-5.827-9.861-10.013-14.342-8.365-15.982c1.639-1.646,5.674,1.94,8.809,5.224v-16.878c0-1.195,1.044-2.239,2.241-2.239
		c1.196,0,2.239,1.045,2.239,2.239v15.689h1.495v-5.229c0-1.198,1.051-2.241,2.239-2.241c1.197,0,2.247,1.043,2.247,2.241v3.732
		h1.488v-2.238c0-1.196,1.05-2.249,2.247-2.249c1.189,0,2.238,1.052,2.238,2.249v3.734h1.496v-0.752
		c0-1.195,1.043-2.239,2.239-2.239s2.239,1.044,2.239,2.239L16.273,605.28L16.273,605.28z"/>
</g>
</svg>
