<?xml version="1.0" encoding="utf-8"?>
<!-- Generator: Adobe Illustrator 16.0.0, SVG Export Plug-In . SVG Version: 6.00 Build 0)  -->
<!DOCTYPE svg PUBLIC "-//W3C//DTD SVG 1.1//EN" "http://www.w3.org/Graphics/SVG/1.1/DTD/svg11.dtd">
<svg version="1.1" id="Layer_6" xmlns="http://www.w3.org/2000/svg" xmlns:xlink="http://www.w3.org/1999/xlink" x="0px" y="0px"
	 width="70px" height="70px" viewBox="0 0 70 70" enable-background="new 0 0 70 70" xml:space="preserve">
<g>
	<g>
		<path fill="#FFFFFF" d="M31.898,49.748L31.898,49.748c-0.01,0-0.154-0.002-0.164-0.002c-0.317-0.016-0.658-0.061-1.038-0.148
			c-1.04-0.229-1.997-0.939-2.565-1.877c-0.326-0.031-0.591-0.096-0.852-0.193c-0.981-0.365-1.66-0.938-2.025-1.709
			c-0.033,0.002-0.062,0.002-0.095,0.002c-0.604-0.022-1.081-0.164-1.535-0.426c-0.974-0.556-1.567-1.281-1.768-2.168
			c-0.693-0.146-1.299-0.52-1.816-1.1c-0.854-0.956-0.961-2.42-0.254-3.559c0.532-0.864,1.631-1.448,2.732-1.448
			c0.69,0.024,1.208,0.208,1.621,0.53c0.269,0.211,0.5,0.453,0.691,0.713c0.198-0.043,0.4-0.063,0.603-0.063
			c0.305,0.009,0.51,0.04,0.718,0.095c0.962,0.252,1.702,0.856,2.109,1.703c0.034-0.002,0.068-0.002,0.103-0.002
			c0.015,0,0.19,0.006,0.205,0.006c1.025,0.094,1.846,0.549,2.395,1.321c0.369,0.519,0.598,1.155,0.671,1.843
			c0.061,0.022,0.122,0.047,0.183,0.073c1.558,0.71,1.953,1.96,2.046,2.677l1.396,1.146c0.203,0.167,0.312,0.424,0.291,0.688
			c-0.021,0.262-0.166,0.498-0.396,0.631l-0.911,0.533C33.605,49.384,32.901,49.748,31.898,49.748z M28.446,46.117
			c0.349,0,0.803,0.188,0.928,0.49c0.371,0.763,0.996,1.266,1.675,1.416c0.276,0.063,0.522,0.101,0.75,0.107l0.1,0.809v-0.807
			c0.566,0,0.967-0.188,1.443-0.461l-0.767-0.627c-0.186-0.154-0.295-0.383-0.295-0.625c0-0.33-0.11-1.146-1.13-1.613
			c-0.081-0.035-0.2-0.062-0.33-0.065c-0.212-0.009-0.417-0.101-0.562-0.259c-0.144-0.16-0.222-0.369-0.21-0.584
			c0.024-0.598-0.115-1.145-0.398-1.539c-0.273-0.385-0.676-0.602-1.199-0.648c-0.249,0.005-0.339,0.018-0.461,0.059
			c-0.215,0.073-0.452,0.051-0.652-0.059c-0.2-0.109-0.342-0.3-0.395-0.521c-0.147-0.641-0.562-1.067-1.204-1.234
			c-0.09-0.023-0.176-0.038-0.254-0.04c-0.266-0.013-0.452,0.051-0.654,0.153c-0.198,0.105-0.435,0.117-0.649,0.039
			c-0.212-0.08-0.381-0.246-0.466-0.457c-0.107-0.266-0.305-0.521-0.571-0.729c-0.141-0.11-0.337-0.176-0.564-0.187
			c-0.002,0-0.002,0-0.005,0c-0.583,0-1.182,0.301-1.416,0.682c-0.332,0.538-0.298,1.208,0.085,1.636
			c0.247,0.278,0.649,0.612,1.157,0.634c0.232-0.021,0.51,0.062,0.672,0.217c0.163,0.154,0.319,0.367,0.319,0.592
			c-0.005,0.422,0.107,0.974,1.033,1.501c0.227,0.129,0.457,0.2,0.684,0.21c0.005,0,0.01,0,0.012,0c0.178,0,0.305-0.021,0.43-0.061
			c0.222-0.074,0.461-0.047,0.659,0.067c0.2,0.12,0.339,0.317,0.383,0.542c0.078,0.398,0.291,0.9,1.255,1.26
			c0.166,0.066,0.332,0.101,0.494,0.109C28.375,46.118,28.409,46.117,28.446,46.117z"/>
	</g>
	<g>
		<path fill="#FFFFFF" d="M17.494,40.387c-0.098,0-0.193-0.017-0.286-0.051L10.52,37.79c-0.4-0.151-0.611-0.588-0.482-0.998
			l5.05-15.975c0.065-0.212,0.218-0.388,0.421-0.486c0.201-0.095,0.432-0.105,0.64-0.022l6.64,2.584
			c0.396,0.153,0.603,0.587,0.476,0.992l-5.002,15.938c-0.066,0.212-0.217,0.386-0.417,0.483
			C17.735,40.359,17.616,40.387,17.494,40.387z M11.805,36.552l5.176,1.97l4.521-14.398l-5.136-2L11.805,36.552z"/>
	</g>
	<g>
		<path fill="#FFFFFF" d="M52.701,42.912c-0.145,0-0.288-0.039-0.417-0.115c-0.187-0.115-0.323-0.3-0.369-0.515l-0.608-2.688
			c-0.349,0.135-0.693,0.272-1.033,0.413l-0.651,0.269c-0.396,0.166-0.858-0.012-1.04-0.404l-0.295-0.643
			c-0.135-0.291-0.312-0.565-0.52-0.799c-0.582-0.654-2.129-2.34-4.01-3.862l-3.25-2.639c-0.275-0.228-0.576-0.456-0.882-0.687
			c-1.205-0.895-2.199-1.516-3.539-2.217l-0.2-0.112c-0.197-0.113-0.305-0.174-0.549-0.269c-0.129-0.051-0.366-0.112-0.764-0.125
			l-0.208-0.004c-1.06,0-2.278,0.295-2.908,0.471c-0.361,0.1-0.823,0.303-1.316,0.515c-1.243,0.535-2.625,1.13-3.997,1.13
			c-0.01,0-0.17-0.005-0.181-0.005c-1.113-0.044-2.053-0.51-2.72-1.35c-0.408-0.513-0.562-1.133-0.439-1.745
			c0.206-1.072,1.2-1.836,1.997-2.288c0.75-0.425,1.44-0.908,2.107-1.477c1.074-0.911,2.258-1.816,3.896-2.019l0.312-0.037
			c0.503-0.061,0.952-0.115,1.387-0.198l0.857-0.171c1.211-0.247,2.344-0.476,3.547-0.476l0.342,0.005
			c1.145,0.046,2.178,0.315,3.164,0.818c0.679,0.347,1.453,0.601,2.202,0.845c0.688,0.227,1.317,0.435,1.929,0.691
			c0.405,0.171,0.793,0.36,1.164,0.547c0.703,0.344,1.432,0.701,2.158,0.818c0.033,0.005,0.068,0.012,0.104,0.017
			c0.045-0.303,0.266-0.566,0.575-0.654l6.442-1.826c0.213-0.061,0.439-0.029,0.633,0.082c0.189,0.114,0.324,0.299,0.374,0.514
			l3.981,17.43c0.098,0.422-0.156,0.844-0.574,0.959l-6.491,1.771C52.846,42.902,52.771,42.912,52.701,42.912z M51.889,37.703
			c0.129,0,0.258,0.031,0.375,0.092c0.209,0.109,0.359,0.305,0.411,0.535l0.627,2.775l4.935-1.348l-3.621-15.85l-4.891,1.389
			c0.041,0.222-0.017,0.452-0.156,0.635c-0.144,0.188-0.365,0.303-0.604,0.314l-0.405,0.01l-0.244-0.005
			c-0.244-0.01-0.481-0.032-0.707-0.07c-0.961-0.157-1.838-0.586-2.609-0.965c-0.348-0.172-0.703-0.347-1.076-0.505
			c-0.57-0.239-1.158-0.432-1.729-0.62c-0.885-0.288-1.721-0.562-2.516-0.967c-0.771-0.396-1.584-0.605-2.49-0.642l-0.277-0.005
			c-1.04,0-2.095,0.215-3.21,0.442l-0.889,0.178c-0.474,0.088-0.959,0.149-1.448,0.208L31,23.349
			c-1.196,0.148-2.085,0.833-3.044,1.646c-0.745,0.635-1.516,1.174-2.357,1.653c-0.677,0.383-1.141,0.842-1.209,1.196
			c-0.03,0.154,0.008,0.288,0.122,0.432c0.374,0.471,0.872,0.713,1.519,0.74c0.002,0,0.005,0,0.007,0
			c1.155,0,2.371-0.523,3.445-0.986c0.591-0.254,1.125-0.481,1.543-0.598c0.87-0.242,2.153-0.53,3.342-0.53l0.269,0.007
			c0.493,0.015,0.923,0.093,1.281,0.229c0.359,0.139,0.518,0.229,0.715,0.342l0.213,0.12c1.411,0.739,2.463,1.399,3.745,2.351
			c0.334,0.247,0.652,0.491,0.945,0.735l3.235,2.627c1.977,1.599,3.598,3.362,4.203,4.044c0.295,0.334,0.555,0.724,0.75,1.131
			c0.493-0.203,0.998-0.398,1.498-0.584l0.368-0.144C51.684,37.721,51.786,37.703,51.889,37.703z"/>
	</g>
	<g>
		<path fill="#FFFFFF" d="M36.163,49.184c-0.099,0-0.187-0.004-0.265-0.007c-0.399-0.017-0.834-0.259-0.854-0.266
			c-0.275-0.154-0.393-0.235-0.654-0.422L32.8,47.186l1.025-1.248l1.545,1.271c0.155,0.107,0.244,0.171,0.457,0.288
			c0.044,0.024,0.142,0.065,0.187,0.073c0.291-0.002,0.524,0.005,0.7-0.149c0.493-0.432,0.288-0.787,0.281-0.803
			c-0.212-0.349-0.125-0.802,0.2-1.05c0.32-0.25,0.781-0.217,1.068,0.072c0.25,0.254,0.633,0.519,0.776,0.535
			c0.188,0.008,0.664,0.006,0.951-0.246c0.409-0.365,0.565-0.685,0.272-1.414l-0.179-0.465c-0.125-0.352,0.007-0.742,0.317-0.947
			c0.31-0.205,0.723-0.168,0.996,0.088l0,0c0,0,0.22,0.201,0.535,0.361c0.627,0.322,0.789,0.317,1.047,0.28
			c0.408-0.062,0.737-0.129,0.979-0.401c0.639-0.714-0.04-1.959-0.048-1.972c-0.204-0.358-0.103-0.813,0.231-1.056
			c0.338-0.238,0.799-0.188,1.074,0.123c0.114,0.129,0.516,0.5,0.939,0.645c0.459,0.159,0.662,0.119,0.945,0.062
			c0.766-0.137,1.119-0.767,1.242-1.032c0.188-0.405-0.082-1.214-0.607-1.804l1.205-1.07c0.824,0.926,1.41,2.384,0.865,3.553
			c-0.486,1.047-1.315,1.746-2.277,1.914c-0.439,0.085-0.938,0.184-1.688-0.031c-0.021,0.598-0.208,1.211-0.679,1.74
			c-0.649,0.73-1.492,0.854-1.948,0.923c-0.449,0.068-0.816,0.034-1.191-0.083c-0.049,0.67-0.369,1.266-0.965,1.793
			c-0.707,0.621-1.627,0.67-2.108,0.646c-0.161-0.008-0.317-0.043-0.472-0.096c-0.131,0.32-0.354,0.641-0.697,0.942
			C37.23,49.115,36.604,49.184,36.163,49.184z"/>
	</g>
	<g>
		<path fill="#FFFFFF" d="M20.796,38.573l-0.377-0.327c-0.249-0.212-0.652-0.473-1.05-0.732c-0.432-0.281-0.856-0.559-1.132-0.789
			l1.03-1.241c0.238,0.196,0.608,0.435,0.981,0.679c0.466,0.304,0.935,0.614,1.224,0.862l0.378,0.326L20.796,38.573z"/>
	</g>
	<g>
		<path fill="#FFFFFF" d="M26.295,26.037c-0.042,0-0.46-0.034-0.879-0.07c-0.376-0.03-0.752-0.062-0.82-0.066
			c-0.479-0.016-1.199-0.221-1.836-0.404c-0.239-0.068-0.455-0.129-0.613-0.167l0.366-1.57c0.176,0.04,0.42,0.11,0.688,0.187
			c0.466,0.132,1.167,0.332,1.462,0.342c0.046,0.002,0.464,0.037,0.884,0.071c0.376,0.032,0.752,0.063,0.82,0.066L26.295,26.037z"/>
	</g>
</g>
</svg>
