<?xml version="1.0" encoding="utf-8"?>
<!-- Generator: Adobe Illustrator 16.0.0, SVG Export Plug-In . SVG Version: 6.00 Build 0)  -->
<!DOCTYPE svg PUBLIC "-//W3C//DTD SVG 1.1//EN" "http://www.w3.org/Graphics/SVG/1.1/DTD/svg11.dtd">
<svg version="1.1" id="Layer_1" xmlns="http://www.w3.org/2000/svg" xmlns:xlink="http://www.w3.org/1999/xlink" x="0px" y="0px"
	 width="70px" height="70px" viewBox="-34.5 565.5 70 70" enable-background="new -34.5 565.5 70 70" xml:space="preserve">
<g>
	<path fill="#231F20" d="M19.51,599.629l-0.023-0.022c-0.051-1.09-0.191-2.172-0.425-3.228c-0.259-1.173-0.629-2.301-1.094-3.377
		c-2.957-6.836-9.823-11.511-17.468-11.511h-0.873h0l-0.022,0.021c-2.334,0.109-4.559,0.641-6.601,1.52
		c-6.765,2.915-11.514,9.647-11.514,17.469v0.856l0.021,0.021c0.107,2.34,0.638,4.568,1.52,6.615
		c0.001,0.001,0.001,0.003,0.001,0.004c2.915,6.764,9.647,11.511,17.467,11.511h0h0.855l0.021-0.021
		c2.34-0.107,4.572-0.64,6.619-1.521c0,0,0,0,0.001,0c6.765-2.916,11.512-9.647,11.512-17.467c0-0.298-0.008-0.594-0.022-0.891
		l0.023,0.021V599.629z M17.5,601.49c-0.227,3.951-1.808,7.544-4.284,10.325l-1.297-1.295l-1.399,1.399l1.296,1.295
		c-1.552,1.383-3.358,2.486-5.339,3.232c0,0,0,0-0.001,0c-0.916,0.345-1.869,0.611-2.851,0.795c-0.698,0.13-1.411,0.218-2.137,0.259
		v-3.381h-1.978v3.381c-3.953-0.228-7.547-1.809-10.328-4.286l1.296-1.295l-1.4-1.4l-1.295,1.295
		c-1.382-1.552-2.486-3.357-3.23-5.338c0-0.001,0-0.002,0-0.003c-0.343-0.913-0.611-1.864-0.793-2.845
		c-0.13-0.698-0.218-1.414-0.26-2.139h3.266v-1.98h-3.266c0.228-3.952,1.81-7.545,4.287-10.326l1.294,1.295l1.4-1.399l-1.295-1.295
		c1.552-1.383,3.357-2.485,5.337-3.23c0.911-0.343,1.858-0.608,2.834-0.791l0,0c0.704-0.134,1.422-0.223,2.154-0.263v3.348h1.978
		V583.5c3.891,0.229,7.506,1.803,10.316,4.296l-1.284,1.283l1.399,1.4l1.288-1.29c1.383,1.545,2.492,3.346,3.241,5.331
		c0.278,0.737,0.508,1.501,0.681,2.286c0.041,0.184,0.077,0.368,0.112,0.555c0,0,0,0.002,0,0.003
		c0.13,0.705,0.217,1.422,0.259,2.146h-3.138v1.98H17.5z"/>
	<path fill="#231F20" d="M3.136,600.7c0.004-0.066,0.008-0.132,0.008-0.198c0-0.189-0.021-0.382-0.062-0.573
		c-0.264-1.202-1.351-2.074-2.582-2.074c-0.035,0-0.07,0.001-0.105,0.004l-3.537-7.817l-1.803,0.815l3.538,7.815
		c-0.456,0.476-0.737,1.12-0.737,1.83c0,1.458,1.187,2.644,2.644,2.644c0.67,0,1.283-0.252,1.749-0.663l11.579,4.354l0.695-1.854
		L3.136,600.7z M0.5,601.166c-0.366,0-0.665-0.298-0.665-0.664c0-0.369,0.298-0.669,0.665-0.669l0,0.001
		c0.305,0,0.584,0.223,0.648,0.514c0.01,0.048,0.016,0.101,0.016,0.154C1.165,600.868,0.866,601.166,0.5,601.166z"/>
</g>
</svg>
